<?xml version="1.0" encoding="UTF-8"?>
<svg width="32px" height="28px" viewBox="0 0 32 28" version="1.1" xmlns="http://www.w3.org/2000/svg" xmlns:xlink="http://www.w3.org/1999/xlink">
    <!-- Generator: sketchtool 52.5 (67469) - http://www.bohemiancoding.com/sketch -->
    <title>48D93F7A-3F1E-432A-B888-BE762F14E98D</title>
    <desc>Created with sketchtool.</desc>
    <defs>
        <path d="M31.3066667,15.04 C27.7051093,10.735269 22.4604804,8.14198383 16.8533333,7.89333333 C16.5690914,7.87815216 16.2842419,7.87815216 16,7.89333333 C15.7466667,7.89333333 15.4933333,7.89333333 15.2533333,7.89333333 L13.84,2.66666667 L11.2666667,3.36 L12.6,8.22666667 C11.7274235,8.36309884 10.8669746,8.56817993 10.0266667,8.84 C9.1752023,9.11680522 8.33854116,9.43722863 7.52,9.8 C6.69441452,10.1800826 5.90074347,10.6259653 5.14666667,11.1333333 C4.56,11.5466667 3.41333333,12.4666667 2.85333333,12.88 C2.07987468,13.5259036 1.36590355,14.2398747 0.72,15.0133333 L0,15.8933333 C0.378403331,16.7007722 0.923731622,17.4187878 1.6,18 C2.18803305,17.2561864 2.82500104,16.5524036 3.50666667,15.8933333 L3.6,15.8 L4.93333333,20.5333333 C5.95608559,21.2272682 7.04068257,21.8253587 8.17333333,22.32 L5.90666667,13.88 C6.65373795,13.3379296 7.44291417,12.8563984 8.26666667,12.44 L11.1866667,23.3466667 C12.1365825,23.592877 13.1037992,23.7667086 14.08,23.8666667 L10.6666667,11.4 C11.5079284,11.1348147 12.3682052,10.9342321 13.24,10.8 L18.1466667,29.12 L20.72,28.4266667 L19.3866667,23.5733333 C24.0202736,22.768103 28.2218998,20.3557086 31.2533333,16.76 C31.6882265,16.2764079 31.7107629,15.5496073 31.3066667,15.04 Z M21.3333333,15.8933333 C21.3266328,17.792029 20.3110025,19.5439914 18.6666667,20.4933333 L18.12,18.4666667 C18.8932012,17.8368372 19.3393668,16.890574 19.3333333,15.8933333 C19.3317793,14.2514603 18.1303128,12.8573058 16.5066667,12.6133333 L16,10.56 C18.9455187,10.56 21.3333333,12.9478147 21.3333333,15.8933333 Z M23.0266667,19.72 C24.3260976,17.334358 24.3260976,14.4523086 23.0266667,12.0666667 C25.0795363,12.9761162 26.9361569,14.2757507 28.4933333,15.8933333 C26.9374911,17.5124752 25.0805446,18.8123377 23.0266667,19.72 Z" id="path-1"></path>
    </defs>
    <g id="Symbols" stroke="none" stroke-width="1" fill="none" fill-rule="evenodd">
        <g id="accessibility_icon_big" transform="translate(0.000000, -2.000000)">
            <g id="Elements-/-Icons-/-S-/-eye">
                <g>
                    <g id="eye">
                        <rect id="Rectangle" x="0" y="0" width="32" height="32"></rect>
                        <mask id="mask-2" fill="white">
                            <use xlink:href="#path-1"></use>
                        </mask>
                        <use id="Shape" fill="#EEF5FF" fill-rule="nonzero" xlink:href="#path-1"></use>
                        <g id="_Resources-/-ChangeColorsHere-/-Silver" mask="url(#mask-2)" fill="#F5F7FA">
                            <rect id="↳-🎨Color" x="0" y="0" width="32" height="32" rx="4"></rect>
                        </g>
                    </g>
                </g>
            </g>
        </g>
    </g>
</svg>