<?xml version="1.0" encoding="UTF-8"?>
<svg width="24px" height="24px" viewBox="0 0 24 24" version="1.1" xmlns="http://www.w3.org/2000/svg" xmlns:xlink="http://www.w3.org/1999/xlink">
    <!-- Generator: sketchtool 52.5 (67469) - http://www.bohemiancoding.com/sketch -->
    <title>F64B598B-2C46-4715-8A06-A1A1EB3595FB</title>
    <desc>Created with sketchtool.</desc>
    <defs>
        <path d="M12,24 C9.21268003,23.9805464 6.51621329,23.0064301 4.36,21.24 L4,20.95 L4,20.5 C4,18.5 6,17.38 7.46,16.57 C7.91620286,16.3385646 8.35120624,16.0675241 8.76,15.76 C8.65264058,15.5177947 8.51121016,15.2921795 8.34,15.09 C7.42397797,13.9278892 6.94923423,12.4788579 7,11 C6.96087719,9.66230737 7.47508788,8.36767984 8.42138386,7.42138386 C9.36767984,6.47508788 10.6623074,5.96087719 12,6 C13.3376926,5.96087719 14.6323202,6.47508788 15.5786161,7.42138386 C16.5249121,8.36767984 17.0391228,9.66230737 17,11 C17.0370676,12.4804173 16.5481074,13.9260389 15.62,15.08 C15.4487898,15.2821795 15.3073594,15.5077947 15.2,15.75 C15.6087938,16.0575241 16.0437971,16.3285646 16.5,16.56 C18,17.38 20,18.48 20,20.5 L20,20.95 L19.67,21.25 C17.5044462,23.0192945 14.7964139,23.9902318 12,24 Z M6.13,20.09 C6.75504655,19.3263993 7.55878218,18.7287497 8.47,18.35 C9.68,17.68 10.82,17.05 10.82,15.91 C10.7820724,15.1694785 10.4928308,14.4640112 10,13.91 C9.31745408,13.0975041 8.96106978,12.0604258 9,11 C8.97475209,10.1968764 9.28270767,9.41905706 9.85088236,8.85088236 C10.4190571,8.28270767 11.1968764,7.97475209 12,8 C12.8031236,7.97475209 13.5809429,8.28270767 14.1491176,8.85088236 C14.7172923,9.41905706 15.0252479,10.1968764 15,11 C15.0317838,12.045499 14.6796107,13.0664454 14.01,13.87 C13.5171692,14.4240112 13.2279276,15.1294785 13.19,15.87 C13.19,17.01 14.33,17.64 15.54,18.31 C16.4519225,18.7015093 17.2524931,19.313104 17.87,20.09 C16.1543237,21.3112312 14.1058151,21.9777817 12,22 C9.89502044,21.9727064 7.84798736,21.3066361 6.13,20.09 Z M3.22,16.78 C3.43798368,17.1885528 3.34695968,17.6933222 3,18 C2.78170819,18.1882455 2.4928033,18.2731397 2.20737488,18.2329116 C1.92194647,18.1926834 1.66775945,18.031246 1.51,17.79 C0.520903266,16.0204463 0.00108153941,14.0272226 0,12 C0.03830482,5.63807655 5.0350048,0.411743712 11.3887916,0.0878147547 C17.7425785,-0.236114203 23.2448879,4.45495781 23.93,10.78 C24.1846055,13.2036897 23.6889392,15.6471151 22.51,17.78 C22.3566921,18.0500074 22.0866603,18.2334837 21.7791693,18.2765716 C21.4716782,18.3196595 21.1616169,18.2174702 20.94,18 C20.6031972,17.6856527 20.524741,17.1818815 20.75,16.78 C23.060386,12.5734243 22.0565329,7.31868238 18.3582088,4.25999611 C14.6598848,1.20130984 9.31011523,1.20130984 5.61179118,4.25999611 C1.91346714,7.31868238 0.909613976,12.5734243 3.22,16.78 Z" id="path-1"></path>
    </defs>
    <g id="Page-1" stroke="none" stroke-width="1" fill="none" fill-rule="evenodd">
        <g id="desktop_info_enter_1440" transform="translate(-1353.000000, -16.000000)">
            <g id="Elements-/-Icons-/-S-/-Avatar" transform="translate(1353.000000, 16.000000)">
                <g id="avatar">
                    <rect id="Rectangle" x="0" y="0" width="24" height="24"></rect>
                    <mask id="mask-2" fill="white">
                        <use xlink:href="#path-1"></use>
                    </mask>
                    <use id="Shape" fill="#EEF5FF" fill-rule="nonzero" xlink:href="#path-1"></use>
                    <g id="_Resources-/-ChangeColorsHere-/-Ink" mask="url(#mask-2)" fill="#234161">
                        <rect id="↳-🎨Color" x="0" y="0" width="24" height="24" rx="4"></rect>
                    </g>
                </g>
            </g>
        </g>
    </g>
</svg>