<?xml version="1.0" encoding="UTF-8"?>
<svg width="24px" height="24px" viewBox="0 0 24 24" version="1.1" xmlns="http://www.w3.org/2000/svg" xmlns:xlink="http://www.w3.org/1999/xlink">
    <!-- Generator: sketchtool 52.5 (67469) - http://www.bohemiancoding.com/sketch -->
    <title>289759C2-AFFE-49C2-96E8-2F4AB38F0022</title>
    <desc>Created with sketchtool.</desc>
    <defs>
        <polygon id="path-1" points="5.51724138e-05 0.118251748 23.8772414 0.118251748 23.8772414 23.1187748 5.51724138e-05 23.1187748"></polygon>
    </defs>
    <g id="Desktop" stroke="none" stroke-width="1" fill="none" fill-rule="evenodd">
        <g id="Service-Desktop-HD" transform="translate(-1077.000000, -568.000000)">
            <g id="Group" transform="translate(1075.000000, 568.000000)">
                <g id="bad_smile-copy" transform="translate(2.000000, 0.000000)">
                    <g id="Group-3" transform="translate(0.000000, 0.147536)">
                        <mask id="mask-2" fill="white">
                            <use xlink:href="#path-1"></use>
                        </mask>
                        <g id="Clip-2"></g>
                        <path d="M23.8772966,11.618593 C23.8772966,17.9704392 18.532469,23.1187748 11.9388138,23.1187748 C5.34488276,23.1187748 5.51724138e-05,17.9704392 5.51724138e-05,11.618593 C5.51724138e-05,5.26674685 5.34488276,0.118145455 11.9388138,0.118145455 C18.532469,0.118145455 23.8772966,5.26674685 23.8772966,11.618593" id="Fill-1" fill="#D24103" mask="url(#mask-2)"></path>
                    </g>
                    <path d="M16.5581793,10.8251636 C15.3874207,10.8251636 14.4599724,9.93176503 14.4599724,8.83375105 L14.4599724,8.53028252 C14.4599724,8.24355524 14.7013517,8.01077203 14.9992828,8.01077203 C15.2974897,8.01077203 15.538869,8.24355524 15.538869,8.53028252 L15.538869,8.83375105 C15.538869,9.35857622 15.9824552,9.78587692 16.5272828,9.78587692 C17.1032828,9.78587692 17.5465931,9.35857622 17.5465931,8.83375105 L17.5465931,8.53028252 C17.5465931,8.24355524 17.7879724,8.01077203 18.0859034,8.01077203 C18.3838345,8.01077203 18.6254897,8.24355524 18.6254897,8.53028252 L18.6254897,8.83375105 C18.6254897,9.93176503 17.6980414,10.8251636 16.5581793,10.8251636" id="Fill-4" fill="#562912"></path>
                    <path d="M7.53031724,10.8251636 C6.35955862,10.8251636 5.43238621,9.93176503 5.43238621,8.83375105 L5.43238621,8.53028252 C5.43238621,8.24355524 5.67376552,8.01077203 5.97169655,8.01077203 C6.26962759,8.01077203 6.5110069,8.24355524 6.5110069,8.53028252 L6.5110069,8.83375105 C6.5110069,9.35857622 6.95431724,9.78587692 7.49942069,9.78587692 C8.07542069,9.78587692 8.51873103,9.35857622 8.51873103,8.83375105 L8.51873103,8.53028252 C8.51873103,8.24355524 8.76011034,8.01077203 9.05804138,8.01077203 C9.35597241,8.01077203 9.59735172,8.24355524 9.59735172,8.53028252 L9.59735172,8.83375105 C9.59735172,9.93176503 8.67017931,10.8251636 7.53031724,10.8251636" id="Fill-6" fill="#562912"></path>
                    <path d="M16.6641931,16.4086923 C16.4528828,16.4086923 16.2526069,16.2885804 16.1662621,16.089014 C16.1235034,15.9925524 15.1450207,13.8650839 12.0286069,13.8650839 C8.90777931,13.8650839 7.93122759,15.9986643 7.89122759,16.0895455 C7.77508966,16.3528881 7.45950345,16.4783147 7.18612414,16.366972 C6.9121931,16.2566923 6.78171034,15.9553497 6.89481379,15.6912098 C6.94474483,15.574021 8.16433103,12.8260629 12.0286069,12.8260629 C15.8934345,12.8260629 17.1127448,15.574021 17.1626759,15.6912098 C17.276331,15.9564126 17.1450207,16.2601469 16.8694345,16.3693636 C16.8021241,16.3962028 16.7328828,16.4086923 16.6641931,16.4086923" id="Fill-8" fill="#562912"></path>
                </g>
            </g>
        </g>
    </g>
</svg>