<?xml version="1.0" encoding="UTF-8"?>
<svg width="24px" height="28px" viewBox="0 0 24 28" version="1.1" xmlns="http://www.w3.org/2000/svg" xmlns:xlink="http://www.w3.org/1999/xlink">
    <!-- Generator: Sketch 52.5 (67469) - http://www.bohemiancoding.com/sketch -->
    <title>@1,5xcalendar_icon</title>
    <desc>Created with Sketch.</desc>
    <defs>
        <path d="M18.6666667,2.66666667 L18.6666667,0 L16,0 L16,2.66666667 L8,2.66666667 L8,0 L5.33333333,0 L5.33333333,2.66666667 L4,2.66666667 C1.790861,2.66666667 0,4.45752767 0,6.66666667 L0,22.6666667 C2.36847579e-15,24.8758057 1.790861,26.6666667 4,26.6666667 L20,26.6666667 C22.209139,26.6666667 24,24.8758057 24,22.6666667 L24,6.66666667 C24,4.45752767 22.209139,2.66666667 20,2.66666667 L18.6666667,2.66666667 Z M16,18.6666667 L13.3333333,18.6666667 L13.3333333,16 L16,16 L16,18.6666667 Z M18.6666667,16 L21.3333333,16 L21.3333333,18.6666667 L18.6666667,18.6666667 L18.6666667,16 Z M8,18.6666667 L8,16 L10.6666667,16 L10.6666667,18.6666667 L8,18.6666667 Z M10.6666667,21.3333333 L10.6666667,24 L8,24 L8,21.3333333 L10.6666667,21.3333333 Z M5.33333333,18.6666667 L2.66666667,18.6666667 L2.66666667,16 L5.33333333,16 L5.33333333,18.6666667 Z M13.3333333,13.3333333 L13.3333333,10.6666667 L16,10.6666667 L16,13.3333333 L13.3333333,13.3333333 Z M10.6666667,13.3333333 L8,13.3333333 L8,10.6666667 L10.6666667,10.6666667 L10.6666667,13.3333333 Z M5.33333333,13.3333333 L2.66666667,13.3333333 L2.66666667,10.6666667 L5.33333333,10.6666667 L5.33333333,13.3333333 Z M2.66666667,21.3333333 L5.33333333,21.3333333 L5.33333333,24 L4,24 C3.26362033,24 2.66666667,23.4030463 2.66666667,22.6666667 L2.66666667,21.3333333 Z M13.3333333,24 L13.3333333,21.3333333 L16,21.3333333 L16,24 L13.3333333,24 Z M18.6666667,24 L18.6666667,21.3333333 L21.3333333,21.3333333 L21.3333333,22.6666667 C21.3333333,23.4030463 20.7363797,24 20,24 L18.6666667,24 Z M21.3333333,13.3333333 L18.6666667,13.3333333 L18.6666667,10.6666667 L21.3333333,10.6666667 L21.3333333,13.3333333 Z M2.66666667,8 L2.66666667,6.66666667 C2.66666667,5.930287 3.26362033,5.33333333 4,5.33333333 L20,5.33333333 C20.7363797,5.33333333 21.3333333,5.930287 21.3333333,6.66666667 L21.3333333,8 L2.66666667,8 Z" id="path-1"></path>
    </defs>
    <g id="Desktop" stroke="none" stroke-width="1" fill="none" fill-rule="evenodd">
        <g id="Desktop-UI" transform="translate(-524.000000, -596.000000)">
            <g id="Elements-/-Icons-/-S-/-Calendar" transform="translate(520.000000, 594.000000)">
                <g id="Calendar">
                    <rect id="Rectangle" x="0" y="0" width="32" height="32"></rect>
                    <g id="_Resources-/-ChangeColorsHere-/-Platinum" transform="translate(4.000000, 2.666667)">
                        <mask id="mask-2" fill="white">
                            <use xlink:href="#path-1"></use>
                        </mask>
                        <use id="Shape" fill="#EEF5FF" fill-rule="nonzero" xlink:href="#path-1"></use>
                        <g id="_Resources-/-ChangeColorsHere-/-Ink" mask="url(#mask-2)" fill="#3B4256">
                            <g transform="translate(-4.000000, -2.666667)" id="↳-🎨Color">
                                <rect x="0" y="0" width="32" height="32" rx="4"></rect>
                            </g>
                        </g>
                    </g>
                </g>
            </g>
        </g>
    </g>
</svg>