<?xml version="1.0" encoding="UTF-8"?>
<svg width="86px" height="64px" viewBox="0 0 86 64" version="1.1" xmlns="http://www.w3.org/2000/svg" xmlns:xlink="http://www.w3.org/1999/xlink">
    <!-- Generator: Sketch 54.1 (76490) - https://sketchapp.com -->
    <title>@1,5x❝ copy</title>
    <desc>Created with Sketch.</desc>
    <g id="Desktop" stroke="none" stroke-width="1" fill="none" fill-rule="evenodd">
        <g id="gov_safe_city_index_desktop_1440" transform="translate(-110.000000, -978.000000)" fill="#F4F7FB">
            <g id="Leader-words" transform="translate(110.000000, 862.000000)">
                <path d="M53.0723039,138.148284 C54.9760444,137.266063 56.7985003,136.616015 58.5397263,136.198121 C60.2809523,135.780227 61.9176802,135.571283 63.4499592,135.571283 C69.5790748,135.571283 74.7446345,137.683939 78.9467933,141.909314 C83.1489521,146.134689 85.25,151.288641 85.25,157.371324 C85.25,160.296583 84.704424,163.082503 83.6132557,165.729167 C82.5220874,168.37583 80.9317915,170.720646 78.8423203,172.763685 C76.7992817,174.853156 74.4428578,176.443452 71.7729779,177.53462 C69.103098,178.625788 66.3287862,179.171364 63.4499592,179.171364 C58.7138244,179.171364 54.6858486,177.952524 51.3659109,175.514808 C48.0459733,173.077092 45.2252295,169.25806 42.9035948,164.057598 C40.442662,169.304492 37.5406621,173.135132 34.1975082,175.549632 C30.8543542,177.964132 26.8147704,179.171364 22.0786356,179.171364 C15.5780585,179.171364 10.2732027,176.896196 6.16390931,172.345792 C2.05461589,167.795388 0,161.852093 0,154.515727 C0,147.968717 1.40456793,141.897734 4.21374592,136.302594 C7.0229239,130.707454 10.9812517,126.075863 16.088848,122.40768 C19.0141078,120.364641 22.3456036,118.785953 26.0834355,117.671569 C29.8212673,116.557184 33.6635151,116 37.6102941,116 L40.0479984,116 L42.9035948,119.273489 C34.4528445,120.016412 27.7085968,121.908516 22.6706495,124.949857 C17.6327022,127.991198 13.9761824,132.39063 11.7009804,138.148284 C13.6975862,137.266063 15.5548661,136.616015 17.2728758,136.198121 C18.9908855,135.780227 20.5927894,135.571283 22.0786356,135.571283 C26.2575781,135.571283 29.9373139,136.581179 33.1179534,138.601001 C36.298593,140.620823 39.2354168,143.789807 41.9285131,148.108047 C44.7609074,137.521393 49.2996352,129.523482 55.5448325,124.114073 C61.7900299,118.704664 69.6022135,116 78.9816176,116 L81.4193219,116 L84.2749183,119.273489 C75.824168,120.016412 69.0683123,121.920124 64.0071487,124.984681 C58.945985,128.049239 55.3010732,132.437063 53.0723039,138.148284 Z" id="❝-copy"></path>
            </g>
        </g>
    </g>
</svg>