<?xml version="1.0" encoding="UTF-8"?>
<svg width="26px" height="15px" viewBox="0 0 26 15" version="1.1" xmlns="http://www.w3.org/2000/svg" xmlns:xlink="http://www.w3.org/1999/xlink">
    <!-- Generator: sketchtool 52.5 (67469) - http://www.bohemiancoding.com/sketch -->
    <title>CE87CE58-9572-4471-88FF-256A7B69855F</title>
    <desc>Created with sketchtool.</desc>
    <defs>
        <path d="M12.5031931,20.9999991 C12.5021287,20.9999997 12.5010644,21 12.5,21 C12.4928998,20.9999936 12.485799,20.9999843 12.4786977,20.9999699 C7.75974829,20.9957752 3.28388371,18.7104375 0.251172779,14.7567016 C-0.0837242597,14.322792 -0.0837242597,13.6880336 0.251172779,13.254124 C3.28677601,9.29009857 7.77197998,7 12.5,7 C17.22802,7 21.713224,9.29009857 24.7488272,13.254124 C25.0837243,13.6880336 25.0837243,14.322792 24.7488272,14.7567016 C21.7117923,18.7160892 17.2280447,21.001667 12.5031931,20.9999991 Z M7.20285487,10.2831695 C5.28425117,11.0717522 3.52972238,12.3333417 2.08333333,14 C3.52972238,15.6666583 5.28425117,16.9282478 7.20285487,17.7168305 C6.59912356,16.6397861 6.25,15.3655566 6.25,14 C6.25,12.6344434 6.59912356,11.3602139 7.20285487,10.2831695 Z M12.3146565,9.33786768 C10.0994756,9.44646923 8.33333333,11.492232 8.33333333,14 C8.33333333,16.507768 10.0994756,18.5535308 12.3146565,18.6621323 C12.5896022,18.6546982 12.8635338,18.6381439 13.1361195,18.6126259 C15.1353736,18.2696095 16.6666667,16.3350902 16.6666667,14 C16.6666667,12.762323 16.2276798,11.5753381 15.4462783,10.7001684 C14.8144354,9.99250436 14.0005601,9.53558986 13.1279151,9.38660879 C12.8580374,9.36152489 12.5868439,9.34522726 12.3146565,9.33786768 Z M18.1232021,10.9409707 C18.524739,11.8651455 18.75,12.9031097 18.75,14 C18.75,15.0703555 18.5311222,16.1154362 18.1211273,17.060179 C19.5074372,16.292128 20.7795881,15.2622312 21.875,14 C20.7801346,12.7383985 19.5087065,11.7088997 18.1232021,10.9409707 Z M12.5,16.3333333 C11.3494068,16.3333333 10.4166667,15.2886644 10.4166667,14 C10.4166667,12.7113356 11.3494068,11.6666667 12.5,11.6666667 C13.6505932,11.6666667 14.5833333,12.7113356 14.5833333,14 C14.5833333,15.2886644 13.6505932,16.3333333 12.5,16.3333333 Z" id="path-1"></path>
    </defs>
    <g id="Symbols" stroke="none" stroke-width="1" fill="none" fill-rule="evenodd">
        <g id="Components-/-Cards-/-News-/-WithPic+teg" transform="translate(-11.000000, -370.000000)">
            <g id="Elements-/-Icons-/-S-/-eye" transform="translate(11.562500, 363.632353)">
                <g id="eye">
                    <rect id="Rectangle" x="0" y="0" width="25" height="28"></rect>
                    <mask id="mask-2" fill="white">
                        <use xlink:href="#path-1"></use>
                    </mask>
                    <use id="Combined-Shape" fill="#EEF5FF" fill-rule="nonzero" xlink:href="#path-1"></use>
                    <g id="_Resources-/-ChangeColorsHere-/-Platinum" mask="url(#mask-2)" fill="#C7CCD1">
                        <rect id="Rectangle-4-Copy-11" x="0" y="0" width="25" height="28" rx="4"></rect>
                    </g>
                </g>
                <g id="visible" transform="translate(0.000000, 7.000000)"></g>
            </g>
        </g>
    </g>
</svg>