<?xml version="1.0" encoding="UTF-8"?>
<svg width="24px" height="24px" viewBox="0 0 24 24" version="1.1" xmlns="http://www.w3.org/2000/svg" xmlns:xlink="http://www.w3.org/1999/xlink">
    <!-- Generator: sketchtool 52.5 (67469) - http://www.bohemiancoding.com/sketch -->
    <title>68DB2789-9D2B-47A9-9366-E88212FB86FE</title>
    <desc>Created with sketchtool.</desc>
    <defs>
        <path d="M24,4.005 C23.9299288,1.82278287 22.1772171,0.0700712223 19.995,0 L4.005,0 C1.82594022,0.0773437639 0.0773437639,1.82594022 0,4.005 L0,19.995 C0.0700712223,22.1772171 1.82278287,23.9299288 4.005,24 L12,24 L12,15 L9,15 L9,10.935 L12,10.935 L12,9.435 C11.886017,6.7992677 13.8712246,4.54274837 16.5,4.32 L19.74,4.32 L19.74,8.325 L16.5,8.325 C16.14,8.325 15.735,8.76 15.735,9.405 L15.735,10.995 L19.74,10.995 L19.74,15 L15.735,15 L15.735,24 L19.995,24 C22.1772171,23.9299288 23.9299288,22.1772171 24,19.995 L24,4.005 Z" id="path-1"></path>
    </defs>
    <g id="Symbols" stroke="none" stroke-width="1" fill="none" fill-rule="evenodd">
        <g id="Elements-/-Icons-/-S-/-Social-/-facebook">
            <g id="facebook">
                <rect id="Rectangle" x="0" y="0" width="24" height="24"></rect>
                <mask id="mask-2" fill="white">
                    <use xlink:href="#path-1"></use>
                </mask>
                <use id="Facebook_alt_" fill="#EEF5FF" xlink:href="#path-1"></use>
                <g id="_Resources-/-ChangeColorsHere-/-Ink" mask="url(#mask-2)" fill="#234161">
                    <rect id="↳-🎨Color" x="0" y="0" width="24" height="24" rx="4"></rect>
                </g>
            </g>
        </g>
    </g>
</svg>