<?xml version="1.0" encoding="UTF-8"?>
<svg width="40px" height="40px" viewBox="0 0 40 40" version="1.1" xmlns="http://www.w3.org/2000/svg" xmlns:xlink="http://www.w3.org/1999/xlink">
    <!-- Generator: sketchtool 52.5 (67469) - http://www.bohemiancoding.com/sketch -->
    <title>ECFE49A7-62F9-4448-AD03-9A8299C650CF</title>
    <desc>Created with sketchtool.</desc>
    <g id="Desktop" stroke="none" stroke-width="1" fill="none" fill-rule="evenodd">
        <g id="Desktop-UI" transform="translate(-672.000000, -653.000000)">
            <g id="fb" transform="translate(672.000000, 653.000000)">
                <circle id="bg" stroke="#E8E8E8" fill="#FFFFFF" cx="20" cy="20" r="19.5"></circle>
                <g id="fb_icon" transform="translate(10.000000, 10.000000)">
                    <rect id="Rectangle-174" fill="#FFFFFF" opacity="0" x="0" y="0" width="20" height="20"></rect>
                    <path d="M11.2032,10.3801504 L13.552,10.3801504 L13.9048,7.64523308 L11.2032,7.64523308 L11.2032,5.89206015 C11.2032,5.09789474 11.416,4.55627068 12.5512,4.55627068 L14,4.55708271 L14,2.10150376 C13.7496,2.06821053 12.8896,2 11.8888,2 C9.8008,2 8.372,3.27245113 8.372,5.62084211 L8.372,7.64523308 L6,7.64523308 L6,10.3801504 L8.3712,10.3801504 L8.3712,17.4285714 L11.2032,17.4285714 L11.2032,10.3801504 Z" id="Shape-Copy-6" fill="#4661A3"></path>
                </g>
            </g>
        </g>
    </g>
</svg>