<?xml version="1.0" encoding="UTF-8"?>
<svg width="24px" height="24px" viewBox="0 0 24 24" version="1.1" xmlns="http://www.w3.org/2000/svg" xmlns:xlink="http://www.w3.org/1999/xlink">
    <!-- Generator: sketchtool 52.5 (67469) - http://www.bohemiancoding.com/sketch -->
    <title>8F516226-6950-4CFA-A3C3-3611B19F9B25</title>
    <desc>Created with sketchtool.</desc>
    <defs>
        <polygon id="path-1" points="5.51724138e-05 0.118251748 23.8772414 0.118251748 23.8772414 23.1188811 5.51724138e-05 23.1188811"></polygon>
    </defs>
    <g id="Desktop" stroke="none" stroke-width="1" fill="none" fill-rule="evenodd">
        <g id="Desktop-UI" transform="translate(-382.000000, -660.000000)">
            <g id="good_smile_mid" transform="translate(382.000000, 660.000000)">
                <g id="Group-3" transform="translate(0.000000, 0.147536)">
                    <mask id="mask-2" fill="white">
                        <use xlink:href="#path-1"></use>
                    </mask>
                    <g id="Clip-2"></g>
                    <path d="M23.8772966,11.618593 C23.8772966,17.9704392 18.532469,23.1190406 11.9388138,23.1190406 C5.34488276,23.1190406 5.51724138e-05,17.9704392 5.51724138e-05,11.618593 C5.51724138e-05,5.26674685 5.34488276,0.118145455 11.9388138,0.118145455 C18.532469,0.118145455 23.8772966,5.26674685 23.8772966,11.618593" id="Fill-1" fill="#7ED321" mask="url(#mask-2)"></path>
                </g>
                <path d="M16.5583172,8.53865315 C15.3875586,8.53865315 14.4601103,9.43205175 14.4601103,10.5300657 L14.4601103,10.8335343 C14.4601103,11.1202615 14.7014897,11.3530448 14.9994207,11.3530448 C15.2973517,11.3530448 15.5390069,11.1202615 15.5390069,10.8335343 L15.5390069,10.5300657 C15.5390069,10.0049748 15.9823172,9.57793986 16.5274207,9.57793986 C17.1034207,9.57793986 17.546731,10.0049748 17.546731,10.5300657 L17.546731,10.8335343 C17.546731,11.1202615 17.7881103,11.3530448 18.0860414,11.3530448 C18.3839724,11.3530448 18.6253517,11.1202615 18.6253517,10.8335343 L18.6253517,10.5300657 C18.6253517,9.43205175 17.6981793,8.53865315 16.5583172,8.53865315" id="Fill-4" fill="#562912"></path>
                <path d="M7.53045517,8.53865315 C6.35969655,8.53865315 5.43252414,9.43205175 5.43252414,10.5300657 L5.43252414,10.8335343 C5.43252414,11.1202615 5.67390345,11.3530448 5.97183448,11.3530448 C6.26976552,11.3530448 6.51114483,11.1202615 6.51114483,10.8335343 L6.51114483,10.5300657 C6.51114483,10.0049748 6.95445517,9.57793986 7.49955862,9.57793986 C8.07555862,9.57793986 8.51886897,10.0049748 8.51886897,10.5300657 L8.51886897,10.8335343 C8.51886897,11.1202615 8.76024828,11.3530448 9.05817931,11.3530448 C9.35611034,11.3530448 9.59748966,11.1202615 9.59748966,10.8335343 L9.59748966,10.5300657 C9.59748966,9.43205175 8.67031724,8.53865315 7.53045517,8.53865315" id="Fill-6" fill="#562912"></path>
                <path d="M16.664331,13.3539175 C16.4530207,13.3539175 16.2527448,13.4740294 16.1664,13.6735958 C16.1236414,13.7700573 15.1451586,15.8972601 12.0287448,15.8972601 C8.90791724,15.8972601 7.93136552,13.7639455 7.89136552,13.6727986 C7.77522759,13.4097217 7.45964138,13.2842951 7.18626207,13.3956378 C6.91233103,13.5056517 6.78184828,13.8072601 6.89495172,14.0714 C6.94488276,14.1883231 8.16446897,16.9365469 12.0287448,16.9365469 C15.8935724,16.9365469 17.1128828,14.1883231 17.1628138,14.0714 C17.276469,13.8061972 17.1451586,13.5024629 16.8695724,13.3929804 C16.8022621,13.366407 16.7330207,13.3539175 16.664331,13.3539175" id="Fill-8" fill="#562912"></path>
            </g>
        </g>
    </g>
</svg>