<?xml version="1.0" encoding="UTF-8"?>
<svg width="54px" height="20px" viewBox="0 0 54 20" version="1.1" xmlns="http://www.w3.org/2000/svg" xmlns:xlink="http://www.w3.org/1999/xlink">
    <!-- Generator: sketchtool 52.5 (67469) - http://www.bohemiancoding.com/sketch -->
    <title>37FA3974-ED90-4006-9C95-875275FAF5C2</title>
    <desc>Created with sketchtool.</desc>
    <g id="Page-1" stroke="none" stroke-width="1" fill="none" fill-rule="evenodd">
        <g id="desktop_info_registration_1440" transform="translate(-774.000000, -1027.000000)" fill="#304F81" fill-rule="nonzero">
            <g id="Group" transform="translate(135.000000, 319.000000)">
                <g id="gov_id" transform="translate(639.000000, 708.000000)">
                    <path d="M42.6339394,5.2815626 C42.1969394,5.2815626 41.8424167,5.64758004 41.8424167,6.09919474 L41.8424167,13.1823679 C41.8424167,13.6338105 42.1968901,13.9997771 42.6341553,13.9997771 C43.0714205,13.9997771 43.4258939,13.6338105 43.4258939,13.1823679 L43.4258939,6.09919474 C43.4258939,5.64758004 43.0713712,5.2815626 42.6339394,5.2815626 M49.2839394,12.3656274 L46.6455303,12.3656274 L46.6455303,6.91638106 L49.2839394,6.91638106 C50.7406404,6.91810083 51.9211145,8.13684952 51.9227803,9.6407813 C51.921115,11.1445393 50.7409036,12.3632162 49.2843712,12.3651815 M49.2843712,5.2815626 L45.8535758,5.2815626 C45.4161439,5.2815626 45.062053,5.64758004 45.062053,6.09919474 L45.062053,13.1823679 C45.062053,13.6339826 45.4161439,14 45.8535758,14 L49.2839394,14 C51.612303,14 53.5062576,12.0441918 53.5062576,9.6407813 C53.5062576,7.23737078 51.612303,5.2815626 49.2839394,5.2815626 M19,7.08406476 C17.5432989,7.08578452 16.3628248,8.30453321 16.3611591,9.80846499 C16.3628244,11.312223 17.5430358,12.5308999 18.9995682,12.5328652 C20.4564379,12.5313911 21.6371747,11.3125706 21.6388409,9.80846499 C21.6371752,8.30453321 20.4567011,7.08578452 19,7.08406476 M9.39420455,14.1676837 C7.06627273,14.1676837 5.17231818,12.2118755 5.17231818,9.80846499 C5.17231818,7.40460865 7.06627273,5.44924629 9.39420455,5.44924629 C10.514641,5.44605929 11.589735,5.90583686 12.3797955,6.72607206 C12.5798114,6.93257314 12.6579265,7.23355503 12.5847156,7.51564075 C12.5115047,7.79772648 12.2980902,8.01806051 12.0248633,8.09364516 C11.7516365,8.1692298 11.4601069,8.08858194 11.2600909,7.88208086 C10.7664246,7.36958719 10.0947186,7.08224049 9.39463636,7.08406476 C7.93776668,7.08553887 6.75702984,8.30435937 6.75536364,9.80846499 C6.75702939,11.3123968 7.93750349,12.5311455 9.39420455,12.5328652 C10.5735,12.5328652 11.5748864,11.7303909 11.9117045,10.6256513 L9.39420455,10.6256513 C8.95705861,10.6256513 8.60268182,10.2597845 8.60268182,9.80846499 C8.60268182,9.35714544 8.95705861,8.99127866 9.39420455,8.99127866 L12.825,8.99127866 C13.262,8.99127866 13.6165227,9.35685029 13.6165227,9.80846499 C13.6165227,12.2118755 11.7225682,14.1676837 9.39420455,14.1676837 M19,14.1676837 C16.6716364,14.1676837 14.7776818,12.2118755 14.7776818,9.80846499 C14.7776818,7.40460865 16.6716364,5.44924629 19,5.44924629 C21.3279318,5.44924629 23.2218864,7.40460865 23.2218864,9.80846499 C23.2218864,12.2118755 21.3279318,14.1676837 19,14.1676837 M31.9048864,6.89280838 L28.7383636,13.7040319 C28.6066373,13.9873671 28.3291976,14.1676039 28.0247841,14.1676039 C27.7203706,14.1676039 27.4429309,13.9873671 27.3112045,13.7040319 L24.1446818,6.8932542 C24.0222656,6.63005093 24.0451558,6.31941529 24.20473,6.07836073 C24.3643041,5.83730617 24.6363191,5.7024546 24.9183095,5.72460331 C25.2002999,5.74675202 25.4494247,5.92253609 25.5718409,6.18573936 L28.0245682,11.461562 L30.4772955,6.18573936 C30.6665346,5.77873925 31.1395203,5.60718306 31.5337386,5.80255789 C31.927957,5.99793271 32.0941255,6.48625409 31.9048864,6.8932542 M28.4995682,0 L9.49956818,0 C4.25340909,0 0,4.39131767 0,9.80801917 C0,15.2247207 4.25340909,19.6160383 9.5,19.6160383 L28.5,19.6160383 C33.7465909,19.6160383 38,15.2247207 38,9.80801917 C38,4.39131767 33.7465909,0 28.5,0" id="vf91a"></path>
                </g>
            </g>
        </g>
    </g>
</svg>