<?xml version="1.0" encoding="UTF-8"?>
<svg width="19px" height="12px" viewBox="0 0 19 12" version="1.1" xmlns="http://www.w3.org/2000/svg" xmlns:xlink="http://www.w3.org/1999/xlink">
    <!-- Generator: sketchtool 52.5 (67469) - http://www.bohemiancoding.com/sketch -->
    <title>45182913-4F9E-44ED-AE3D-3C7956D5B1CB</title>
    <desc>Created with sketchtool.</desc>
    <g id="Desktop" stroke="none" stroke-width="1" fill="none" fill-rule="evenodd" opacity="0.5">
        <g id="Desktop-UI" transform="translate(-263.000000, -100.000000)" fill="#08183B" fill-rule="nonzero">
            <g id="grafix_icon_active" transform="translate(263.000000, 100.000000)">
                <path d="M10,3 L10,7.05000906 C11.1411202,7.28164422 12,8.29052104 12,9.5 C12,10.8807119 10.8807119,12 9.5,12 C8.11928813,12 7,10.8807119 7,9.5 C7,8.29052104 7.85887984,7.28164422 9,7.05000906 L9,3 L4.94999094,3 C4.71835578,4.14112016 3.70947896,5 2.5,5 C1.11928813,5 0,3.88071187 0,2.5 C0,1.11928813 1.11928813,0 2.5,0 C3.70947896,0 4.71835578,0.858879839 4.94999094,2 L14.0500091,2 C14.2816442,0.858879839 15.290521,0 16.5,0 C17.8807119,0 19,1.11928813 19,2.5 C19,3.88071187 17.8807119,5 16.5,5 C15.290521,5 14.2816442,4.14112016 14.0500091,3 L10,3 Z" id="Combined-Shape"></path>
            </g>
        </g>
    </g>
</svg>