<?xml version="1.0" encoding="UTF-8"?>
<svg width="35px" height="35px" viewBox="0 0 35 35" version="1.1" xmlns="http://www.w3.org/2000/svg" xmlns:xlink="http://www.w3.org/1999/xlink">
    <!-- Generator: sketchtool 52.5 (67469) - http://www.bohemiancoding.com/sketch -->
    <title>BD63A668-E14F-4834-92EB-D60C4EFC6187</title>
    <desc>Created with sketchtool.</desc>
    <g id="Page-1" stroke="none" stroke-width="1" fill="none" fill-rule="evenodd">
        <g id="Index-Desktop-HD-1440" transform="translate(-151.000000, -2041.000000)" fill="#345BB7">
            <g id="Service" transform="translate(0.000000, 1924.000000)">
                <g id="Group-351" transform="translate(151.000000, 117.000000)">
                    <path d="M29.8,34.229 C29.6286,34.229 29.4,34.171 29.2857,34.057 L23,29.143 L13.6286,29.143 C12.0286,29.143 10.7143,27.829 10.7143,26.229 L10.7143,11.257 C10.7143,9.657 12.0286,8.343 13.6286,8.343 L31.8,8.343 C33.4,8.343 34.7143,9.657 34.7143,11.257 L34.7143,26.229 C34.7143,27.829 33.4,29.143 31.8,29.143 L30.7143,29.143 L30.6,33.429 C30.6,33.771 30.4286,34.057 30.0857,34.171 C30.0286,34.171 29.9143,34.229 29.8,34.229 Z M13.6286,10.057 C12.9429,10.057 12.4286,10.571 12.4286,11.257 L12.4286,26.229 C12.4286,26.857 13,27.429 13.6286,27.429 L23.2286,27.429 C23.4,27.429 23.6286,27.486 23.7429,27.6 L28.9429,31.657 L29,28.286 C29,27.829 29.4,27.429 29.8571,27.429 L31.8,27.429 C32.4857,27.429 33,26.914 33,26.229 L33,11.257 C33,10.571 32.4857,10.057 31.8,10.057 L13.6286,10.057 Z" id="Fill-348"></path>
                    <path d="M5.3429,26.229 C5.2286,26.229 5.1143,26.229 5,26.171 C4.7143,26.057 4.5429,25.714 4.4857,25.429 L4.3714,21.143 L3.2857,21.143 C1.6857,21.143 0.3714,19.829 0.3714,18.229 L0.3714,3.257 C0.3714,1.657 1.6857,0.343 3.2857,0.343 L21.4571,0.343 C23.0571,0.343 24.3714,1.657 24.3714,3.257 L24.3714,9.2 C24.3714,9.657 23.9714,10.057 23.5143,10.057 C23.0571,10.057 22.6571,9.657 22.6571,9.2 L22.6571,3.257 C22.6571,2.571 22.1429,2.057 21.4571,2.057 L3.2857,2.057 C2.6,2.057 2.0857,2.571 2.0857,3.257 L2.0857,18.229 C2.0857,18.914 2.6,19.429 3.2857,19.429 L5.2286,19.429 C5.6857,19.429 6.0857,19.829 6.0857,20.286 L6.1429,23.657 L10.7714,20.057 C11.1714,19.771 11.6857,19.829 11.9714,20.229 C12.2571,20.629 12.2,21.143 11.8,21.429 L5.8571,26.057 C5.6857,26.171 5.5143,26.229 5.3429,26.229 Z" id="Fill-350"></path>
                </g>
            </g>
        </g>
    </g>
</svg>