<?xml version="1.0" encoding="UTF-8"?>
<svg width="24px" height="24px" viewBox="0 0 24 24" version="1.1" xmlns="http://www.w3.org/2000/svg" xmlns:xlink="http://www.w3.org/1999/xlink">
    <!-- Generator: sketchtool 52.5 (67469) - http://www.bohemiancoding.com/sketch -->
    <title>7E61B46F-0EC2-4034-B846-3CEE83B49F75</title>
    <desc>Created with sketchtool.</desc>
    <defs>
        <path d="M9,5 L21,5 L21,7 L9,7 L9,5 Z M9,17 L21,17 L21,19 L9,19 L9,17 Z M9,11 L21,11 L21,13 L9,13 L9,11 Z M5,8 C3.8954305,8 3,7.1045695 3,6 C3,4.8954305 3.8954305,4 5,4 C6.1045695,4 7,4.8954305 7,6 C7,7.1045695 6.1045695,8 5,8 Z M5,14 C3.8954305,14 3,13.1045695 3,12 C3,10.8954305 3.8954305,10 5,10 C6.1045695,10 7,10.8954305 7,12 C7,13.1045695 6.1045695,14 5,14 Z M5,20 C3.8954305,20 3,19.1045695 3,18 C3,16.8954305 3.8954305,16 5,16 C6.1045695,16 7,16.8954305 7,18 C7,19.1045695 6.1045695,20 5,20 Z" id="path-1"></path>
    </defs>
    <g id="Symbols" stroke="none" stroke-width="1" fill="none" fill-rule="evenodd">
        <g id="Elements-/-Icons-/-S-/-List">
            <g id="List">
                <rect id="Rectangle" x="0" y="0" width="24" height="24"></rect>
                <mask id="mask-2" fill="white">
                    <use xlink:href="#path-1"></use>
                </mask>
                <use id="Mask" fill="#FFFFFF" xlink:href="#path-1"></use>
                <g id="_Resources-/-ChangeColorsHere-/-Platinum" mask="url(#mask-2)" fill="#C7CCD1">
                    <rect id="Rectangle-4-Copy-11" x="0" y="0" width="24" height="24" rx="4"></rect>
                </g>
            </g>
        </g>
    </g>
</svg>