<?xml version="1.0" encoding="UTF-8"?>
<svg width="24px" height="24px" viewBox="0 0 24 24" version="1.1" xmlns="http://www.w3.org/2000/svg" xmlns:xlink="http://www.w3.org/1999/xlink">
    <!-- Generator: sketchtool 52.5 (67469) - http://www.bohemiancoding.com/sketch -->
    <title>73157D69-037D-440F-A5F3-EDC79676B86E</title>
    <desc>Created with sketchtool.</desc>
    <defs>
        <polygon id="path-1" points="5.51724138e-05 0.118251748 23.8772414 0.118251748 23.8772414 23.1188811 5.51724138e-05 23.1188811"></polygon>
    </defs>
    <g id="Desktop" stroke="none" stroke-width="1" fill="none" fill-rule="evenodd">
        <g id="Service-Desktop-HD" transform="translate(-1145.000000, -568.000000)">
            <g id="Group" transform="translate(1075.000000, 568.000000)">
                <g id="none_smile-copy" transform="translate(70.000000, 0.000000)">
                    <g id="Group-3" transform="translate(0.000000, 0.147536)">
                        <mask id="mask-2" fill="white">
                            <use xlink:href="#path-1"></use>
                        </mask>
                        <g id="Clip-2"></g>
                        <path d="M23.8772966,11.618593 C23.8772966,17.9704392 18.532469,23.1190406 11.9388138,23.1190406 C5.34488276,23.1190406 5.51724138e-05,17.9704392 5.51724138e-05,11.618593 C5.51724138e-05,5.26674685 5.34488276,0.118145455 11.9388138,0.118145455 C18.532469,0.118145455 23.8772966,5.26674685 23.8772966,11.618593" id="Fill-1" fill="#FFCE00" mask="url(#mask-2)"></path>
                    </g>
                    <path d="M17.3865931,15.3339566 L6.4905931,15.3339566 C6.16811034,15.3339566 5.90686897,15.0823063 5.90686897,14.7713972 C5.90686897,14.4610196 6.16811034,14.2091035 6.4905931,14.2091035 L17.3865931,14.2091035 C17.7090759,14.2091035 17.9703172,14.4610196 17.9703172,14.7713972 C17.9703172,15.0823063 17.7090759,15.3339566 17.3865931,15.3339566" id="Fill-4" fill="#562912"></path>
                    <path d="M18.1852138,9.80907552 C18.1852138,10.4792573 17.6210759,11.0229497 16.9248,11.0229497 C16.2288,11.0229497 15.6643862,10.4792573 15.6643862,9.80907552 C15.6643862,9.13862797 16.2288,8.59493566 16.9248,8.59493566 C17.6210759,8.59493566 18.1852138,9.13862797 18.1852138,9.80907552" id="Fill-6" fill="#562912"></path>
                    <path d="M8.21241379,9.80907552 C8.21241379,10.4792573 7.648,11.0229497 6.952,11.0229497 C6.256,11.0229497 5.69158621,10.4792573 5.69158621,9.80907552 C5.69158621,9.13862797 6.256,8.59493566 6.952,8.59493566 C7.648,8.59493566 8.21241379,9.13862797 8.21241379,9.80907552" id="Fill-8" fill="#562912"></path>
                </g>
            </g>
        </g>
    </g>
</svg>