<?xml version="1.0" encoding="UTF-8"?>
<svg width="36px" height="60px" viewBox="0 0 36 60" version="1.1" xmlns="http://www.w3.org/2000/svg" xmlns:xlink="http://www.w3.org/1999/xlink">
    <!-- Generator: sketchtool 52.5 (67469) - http://www.bohemiancoding.com/sketch -->
    <title>13EF415A-A297-4FC8-A6C4-B5DC388D859B</title>
    <desc>Created with sketchtool.</desc>
    <g id="Symbols" stroke="none" stroke-width="1" fill="none" fill-rule="evenodd">
        <g id="Elements-/-Coats-/-Gov" transform="translate(-14.000000, -2.000000)" fill="#000000" fill-rule="nonzero">
            <path d="M31.6190476,2 C30.2505938,3.586484 29.4166667,5.663189 29.4166667,7.942583 C29.4977613,12.947444 30.0986119,17.942147 30.1507937,22.945508 C30.2594239,27.608531 28.890371,31.988222 27.2257557,36.260603 C26.6710875,37.441223 26.0710973,38.596784 25.4707341,39.753473 L23.7042396,39.390104 C22.114746,39.065402 21.0808368,37.486268 21.3986228,35.862089 C21.6766895,34.440938 22.9008404,33.454082 24.2663078,33.447557 L24.9086689,33.517883 L23.4748249,21.281123 C23.0061671,15.832022 20.2549322,11.052314 16.202381,7.942583 C15.5059646,7.408178 14.7680789,6.91961 14,6.489176 L14,49.950773 L23.8189484,49.950773 C24.5531224,54.023246 26.7465646,57.571097 29.8296102,60.007424 C30.5629619,60.523898 31.1772412,61.205069 31.6190476,62 C32.060854,61.205069 32.6751333,60.523898 33.4084821,60.007424 C36.4915306,57.571097 38.6849758,54.023246 39.4191468,49.950773 L49.2380952,49.950773 L49.2380952,6.489176 C48.4700163,6.91961 47.7321306,7.408178 47.0357143,7.942583 C42.983163,11.052314 40.2319282,15.832022 39.7632703,21.281123 L38.3294263,33.517883 L38.9717875,33.447557 C40.3372548,33.454097 41.5614087,34.440938 41.8394725,35.862089 C42.1572584,37.486268 41.1233521,39.065402 39.5338556,39.390104 L37.7673611,39.753473 C37.1670009,38.596784 36.5670077,37.441223 36.0123395,36.260603 C34.3477242,31.988222 32.9786713,27.608531 33.0873016,22.945508 C33.1394833,17.942147 33.740334,12.947444 33.8214256,7.942583 C33.8214256,5.663189 32.9875014,3.586484 31.6190476,2 Z M16.8571429,13.4285714 C18.7672845,15.6772087 20.049224,18.4793497 20.431456,21.5589901 L21.6190476,31.5167722 C20.106838,32.2719038 18.9604401,33.6572663 18.5289976,35.3333333 L16.8571429,35.3333333 L16.8571429,13.4285714 Z M46.3809524,13.4285714 L46.3809524,35.3333333 L44.7090977,35.3333333 C44.2776581,33.6572663 43.1312572,32.2719038 41.6190476,31.5167722 L42.8066422,21.5589901 C43.1888713,18.4793497 44.4708107,15.6772087 46.3809524,13.4285714 Z M32.0952381,33.4285714 C32.7944423,36.0218889 33.7564117,38.48441 34.952381,40.7732228 C33.8148245,41.1650952 32.8247797,41.9273324 32.0952381,42.952381 C31.3656939,41.9273324 30.3756517,41.1650952 29.2380952,40.7732228 C30.4340619,38.48441 31.3960339,36.0218889 32.0952381,33.4285714 Z M16.8571429,37.2380952 L18.3988758,37.2380952 C18.8849711,39.4289696 20.351548,41.1600416 22.2159962,41.764365 L23.5238095,42.1115862 C23.1736243,43.5921832 22.9815466,45.1521425 22.9815466,46.7619048 L16.8571429,46.7619048 L16.8571429,37.2380952 Z M44.8392195,37.2380952 L46.3809524,37.2380952 L46.3809524,46.7619048 L40.2565486,46.7619048 C40.2565486,45.1521425 40.064471,43.5921832 39.7142857,42.1115862 L41.0220991,41.764365 C42.8865472,41.1600416 44.3531269,39.4289696 44.8392195,37.2380952 Z M27.8690469,42.952381 C29.7178057,43.2169861 31.1428571,44.8171011 31.1428571,46.7619048 L27.3333333,46.7619048 C27.3333333,45.4389686 27.5268541,44.1640629 27.8690469,42.952381 Z M36.3214267,42.952381 C36.6636192,44.1640629 36.8571429,45.4389686 36.8571429,46.7619048 L33.047619,46.7619048 C33.047619,44.8171011 34.4726693,43.2169861 36.3214267,42.952381 Z M27.3333333,49.6190476 L30.1904762,49.6190476 L30.1904762,55.3333333 C28.8038815,53.7681169 27.7966166,51.8027219 27.3333333,49.6190476 Z M33.047619,49.6190476 L35.9047619,49.6190476 C35.4414812,51.8027219 34.4342113,53.7681169 33.047619,55.3333333 L33.047619,49.6190476 Z" id="path7306"></path>
        </g>
    </g>
</svg>