<?xml version="1.0" encoding="UTF-8"?>
<svg width="25px" height="24px" viewBox="0 0 25 24" version="1.1" xmlns="http://www.w3.org/2000/svg" xmlns:xlink="http://www.w3.org/1999/xlink">
    <!-- Generator: sketchtool 52.5 (67469) - http://www.bohemiancoding.com/sketch -->
    <title>8C763021-FFAA-4420-8F81-DCA12CB4A805</title>
    <desc>Created with sketchtool.</desc>
    <g id="Page-1" stroke="none" stroke-width="1" fill="none" fill-rule="evenodd">
        <g id="desktop_info_registration_1440" transform="translate(-470.000000, -1024.000000)">
            <g id="Group" transform="translate(135.000000, 319.000000)">
                <g id="Privat" transform="translate(335.000000, 704.000000)">
                    <polygon id="Fill-17" fill="#1A1919" points="0.86875 24.8864583 10.2125 24.8864583 10.2125 15.5458333 0.86875 15.5458333"></polygon>
                    <path d="M0.880208333,0.996875 L0.880208333,12.6229167 L3.35104167,12.6229167 C9.85104167,12.6229167 13.1489583,15.9208333 13.1489583,22.4197917 L13.1489583,24.890625 L24.775,24.890625 L24.775,0.996875 L0.880208333,0.996875 Z M19.8354167,5.9375 C19.8354167,9.11145833 19.8354167,16.775 19.8354167,19.95 C18.946875,19.95 18.7916667,19.95 17.9302083,19.95 C17.1083333,13.0197917 12.75,8.66666667 5.82083333,7.84479167 C5.82083333,6.97916667 5.82083333,6.82604167 5.82083333,5.9375 C8.99583333,5.9375 16.6604167,5.9375 19.8354167,5.9375 Z" id="Fill-18" fill="#5BB245"></path>
                </g>
            </g>
        </g>
    </g>
</svg>