<?xml version="1.0" encoding="UTF-8"?>
<svg width="44px" height="60px" viewBox="0 0 44 60" version="1.1" xmlns="http://www.w3.org/2000/svg" xmlns:xlink="http://www.w3.org/1999/xlink">
    <!-- Generator: sketchtool 52.5 (67469) - http://www.bohemiancoding.com/sketch -->
    <title>5397119B-2ED7-45F8-9DE0-4A9105B75C43</title>
    <desc>Created with sketchtool.</desc>
    <g id="Symbols" stroke="none" stroke-width="1" fill="none" fill-rule="evenodd">
        <g id="Elements-/-Coats--/-eagle_heller_small" transform="translate(-10.000000, -2.000000)" fill-rule="nonzero">
            <g id="Ukraine" transform="translate(10.000000, 2.000000)">
                <path d="M0,0 L0,45.3333339 C0.00336521739,48.3985174 1.79480609,51.3241409 4.80245739,52.6458339 L21.5217391,60 L38.2410209,52.6458339 C41.2486696,51.3241409 43.0401052,48.3985174 43.0434783,45.3333339 L43.0434783,0 L0,0 Z" id="path2839" fill="#FFD500"></path>
                <path d="M0.652173913,0.652174904 L0.652173913,45 C0.65546087,47.9985496 2.39259391,50.860573 5.30910261,52.1535339 L21.5217391,59.3478261 L37.7343757,52.1535339 C40.6508843,50.860573 42.388033,47.9985496 42.3913043,45 L42.3913043,0.652174904 L0.652173913,0.652174904 Z" id="path7710" fill="#005BBB"></path>
                <path d="M21.5217391,3.91304348 C20.3060504,5.29259478 19.5652174,7.09842522 19.5652174,9.08050696 C19.6372591,13.43256 20.1710348,17.77578 20.2173913,22.1265287 C20.3138948,26.1813313 19.0976739,29.9897583 17.6188852,33.7048722 C17.1261365,34.7314983 16.5931252,35.7363339 16.0597826,36.7421504 L14.4904878,36.4261774 C13.0784348,36.1438278 12.1599443,34.7706678 12.4422548,33.3583383 C12.68928,32.1225548 13.7767748,31.2644191 14.9898104,31.2587452 L15.5604626,31.3198983 L14.2866835,20.6792374 C13.8703435,15.9408887 11.4262383,11.7846209 7.82608696,9.08050696 C7.20741391,8.61580696 6.55190087,8.19096522 5.86956522,7.81667478 L5.86956522,45.6093678 L14.5923913,45.6093678 C15.244607,49.1506487 17.1931878,52.2357365 19.9320626,54.3542817 C20.5835478,54.8033896 21.129253,55.3957122 21.5217391,56.0869565 C21.9142252,55.3957122 22.4599304,54.8033896 23.111413,54.3542817 C25.8502904,52.2357365 27.7988739,49.1506487 28.451087,45.6093678 L37.173913,45.6093678 L37.173913,7.81667478 C36.4915774,8.19096522 35.8360643,8.61580696 35.2173913,9.08050696 C31.61724,11.7846209 29.1731348,15.9408887 28.7567948,20.6792374 L27.4830157,31.3198983 L28.0536678,31.2587452 C29.2667035,31.2644322 30.3542009,32.1225548 30.6012235,33.3583383 C30.8835339,34.7706678 29.9650461,36.1438278 28.5529904,36.4261774 L26.9836957,36.7421504 C26.4503557,35.7363339 25.9173417,34.7314983 25.424593,33.7048722 C23.9458043,29.9897583 22.7295835,26.1813313 22.826087,22.1265287 C22.8724435,17.77578 23.4062191,13.43256 23.4782583,9.08050696 C23.4782583,7.09842522 22.7374278,5.29259478 21.5217391,3.91304348 Z M8.47826087,13.2593113 C10.1664391,15.2409704 11.2994139,17.7104165 11.6372296,20.4244148 L12.68682,29.1999209 C11.350333,29.8653965 10.3371496,31.0862765 9.95584174,32.5633461 L8.47826087,32.5633461 L8.47826087,13.2593113 Z M34.5652174,13.2593113 L34.5652174,32.5633461 L33.0876365,32.5633461 C32.7063313,31.0862765 31.6931452,29.8653965 30.3566583,29.1999209 L31.4062513,20.4244148 C31.7440643,17.7104165 32.8770391,15.2409704 34.5652174,13.2593113 Z M21.5217391,30.9020009 C22.222487,33.1944157 23.18658,35.3712104 24.3851896,37.3944522 C23.2451217,37.7408557 22.2528913,38.4146504 21.5217391,39.3207626 C20.7905843,38.4146504 19.7983565,37.7408557 18.6582887,37.3944522 C19.8568957,35.3712104 20.8209913,33.1944157 21.5217391,30.9020009 Z M8.47826087,35.1725504 L9.95584174,35.1725504 C10.4217104,36.9732287 11.8272626,38.3959957 13.6141304,38.8926887 L14.8675252,39.1780696 C14.5319113,40.3949713 14.3478261,41.6771009 14.3478261,43.0001635 L8.47826087,43.0001635 L8.47826087,35.1725504 Z M33.0876365,35.1725504 L34.5652174,35.1725504 L34.5652174,43.0001635 L28.6956522,43.0001635 C28.6956522,41.6771009 28.511567,40.3949713 28.175953,39.1780696 L29.4293478,38.8926887 C31.2162157,38.3959957 32.6217704,36.9732287 33.0876365,35.1725504 Z M17.4150809,39.7794261 C18.9975783,40.0031348 20.2173913,41.3559417 20.2173913,43.0001635 L16.9565217,43.0001635 C16.9565217,41.8816957 17.1221713,40.8038348 17.4150809,39.7794261 Z M25.6283974,39.7794261 C25.921307,40.8038348 26.0869591,41.8816957 26.0869591,43.0001635 L22.826087,43.0001635 C22.826087,41.3559417 24.0459,40.0031348 25.6283974,39.7794261 Z M17.2520374,45.6093678 L20.2173913,45.6093678 L20.2173913,51.1029522 C18.7782809,49.5981887 17.732867,47.7087026 17.2520374,45.6093678 Z M22.826087,45.6093678 L25.7914409,45.6093678 C25.3106139,47.7087026 24.2651948,49.5981887 22.826087,51.1029522 L22.826087,45.6093678 Z" id="path7306" fill="#FFD500"></path>
            </g>
        </g>
    </g>
</svg>