<?xml version="1.0" encoding="UTF-8"?>
<svg width="24px" height="12px" viewBox="0 0 24 12" version="1.1" xmlns="http://www.w3.org/2000/svg" xmlns:xlink="http://www.w3.org/1999/xlink">
    <!-- Generator: sketchtool 52.5 (67469) - http://www.bohemiancoding.com/sketch -->
    <title>FECF4B44-4F9B-4C45-839C-E8912C38007A</title>
    <desc>Created with sketchtool.</desc>
    <g id="Desktop" stroke="none" stroke-width="1" fill="none" fill-rule="evenodd" opacity="0.5">
        <g id="Desktop-UI" transform="translate(-524.000000, -638.000000)" fill="#234161">
            <g id="visible" transform="translate(524.000000, 637.000000)">
                <path d="M12,13 C7.5695417,12.9963987 3.36730734,11.0343799 0.52,7.64 C0.20557676,7.26747789 0.20557676,6.72252211 0.52,6.35 C3.37002283,2.94678631 7.58102562,0.980680142 12.02,0.980680142 C16.4589744,0.980680142 20.6699772,2.94678631 23.52,6.35 C23.8344232,6.72252211 23.8344232,7.26747789 23.52,7.64 C20.6637059,11.0451058 16.4444452,13.008234 12,13 Z M2.63,7 C5.0812516,9.55166489 8.46669135,10.9939257 12.005,10.9939257 C15.5433087,10.9939257 18.9287484,9.55166489 21.38,7 C18.9287484,4.44833511 15.5433087,3.00607434 12.005,3.00607434 C8.46669135,3.00607434 5.0812516,4.44833511 2.63,7 Z" id="Shape" fill-rule="nonzero"></path>
                <circle id="Oval" cx="12" cy="7" r="2.5"></circle>
                <path d="M12,13 C8.6862915,13 6,10.3137085 6,7 C6,3.6862915 8.6862915,1 12,1 C15.3137085,1 18,3.6862915 18,7 C18,8.59129894 17.367859,10.1174224 16.2426407,11.2426407 C15.1174224,12.367859 13.5912989,13 12,13 Z M12,3 C9.790861,3 8,4.790861 8,7 C8,9.209139 9.790861,11 12,11 C14.209139,11 16,9.209139 16,7 C16,5.93913404 15.5785726,4.92171839 14.8284271,4.17157288 C14.0782816,3.42142736 13.060866,3 12,3 Z" id="Shape" fill-rule="nonzero"></path>
            </g>
        </g>
    </g>
</svg>