<?xml version="1.0" standalone="no"?>
<!DOCTYPE svg PUBLIC "-//W3C//DTD SVG 1.1//EN" "http://www.w3.org/Graphics/SVG/1.1/DTD/svg11.dtd" >
<svg xmlns="http://www.w3.org/2000/svg" xmlns:xlink="http://www.w3.org/1999/xlink" version="1.1">
<metadata>
Created by FontForge 20170731 at Mon Jun  6 02:42:38 2016
 By Aleksey,,,
Copyright (c) 2014-2016 by Andriy Konstantynov. All rights reserved.
</metadata>
<defs>
<font id="ProbaPro-Regular" horiz-adv-x="220" >
  <font-face 
    font-family="Proba Pro"
    font-weight="400"
    font-stretch="normal"
    units-per-em="1000"
    panose-1="2 13 0 3 3 2 0 0 0 0"
    ascent="750"
    descent="-250"
    x-height="450"
    cap-height="700"
    bbox="-44 -258 1210 974"
    underline-thickness="50"
    underline-position="-200"
    unicode-range="U+0020-FB04"
  />
<missing-glyph horiz-adv-x="230" 
 />
    <glyph glyph-name="ff" unicode="ff" horiz-adv-x="580" 
d="M350 0v390h-178v-390h-77v390h-63v60h63v155q0 69 42 110.5t111 41.5q31 0 54 -10v-64q-18 10 -41 10q-39 0 -64 -24.5t-25 -63.5v-155h178v155q0 69 42 110.5t111 41.5q31 0 54 -10v-64q-18 10 -41 10q-39 0 -64 -24.5t-25 -63.5v-155h130v-60h-130v-390h-77z" />
    <glyph glyph-name="fi" unicode="fi" horiz-adv-x="497" 
d="M350 0v390h-178v-390h-77v390h-63v60h63v155q0 69 42 110.5t111 41.5q31 0 54 -10v-64q-18 10 -41 10q-39 0 -64 -24.5t-25 -63.5v-155h253v-450h-75zM337 585q0 21 14.5 35.5t35.5 14.5t35.5 -14.5t14.5 -35.5t-14.5 -35.5t-35.5 -14.5t-35.5 14.5t-14.5 35.5z" />
    <glyph glyph-name="fl" unicode="fl" horiz-adv-x="527" 
d="M495 50v-50q-12 -5 -38 -5q-49 0 -77 30t-28 86v279h-180v-390h-77v390h-63v60h63v155q0 69 42 110.5t111 41.5q31 0 54 -10v-64q-18 10 -42 10q-38 0 -63 -24.5t-25 -63.5v-155h180v300h75v-637q0 -63 68 -63z" />
    <glyph glyph-name="ffi" unicode="ffi" horiz-adv-x="752" 
d="M605 0v390h-178v-390h-77v390h-178v-390h-77v390h-63v60h63v155q0 69 42 110.5t111 41.5q31 0 54 -10v-64q-18 10 -41 10q-39 0 -64 -24.5t-25 -63.5v-155h178v155q0 69 42 110.5t111 41.5q31 0 54 -10v-64q-18 10 -41 10q-39 0 -64 -24.5t-25 -63.5v-155h253v-450h-75z
M592 585q0 21 14.5 35.5t35.5 14.5t35.5 -14.5t14.5 -35.5t-14.5 -35.5t-35.5 -14.5t-35.5 14.5t-14.5 35.5z" />
    <glyph glyph-name="ffl" unicode="ffl" horiz-adv-x="782" 
d="M750 50v-50q-12 -5 -38 -5q-49 0 -77 30t-28 86v279h-180v-390h-77v390h-178v-390h-77v390h-63v60h63v155q0 69 42 110.5t111 41.5q31 0 54 -10v-64q-18 10 -42 10q-38 0 -63 -24.5t-25 -63.5v-155h178v155q0 69 42 110.5t111 41.5q31 0 54 -10v-64q-18 10 -42 10
q-38 0 -63 -24.5t-25 -63.5v-155h180v300h75v-637q0 -63 68 -63z" />
    <glyph glyph-name="f_f_j" unicode="ffj" horiz-adv-x="752" 
d="M540 -250v50q65 0 65 63v527h-178v-390h-77v390h-178v-390h-77v390h-63v60h63v155q0 69 42 110.5t111 41.5q31 0 54 -10v-64q-18 10 -42 10q-38 0 -63 -24.5t-25 -63.5v-155h178v155q0 69 42 110.5t111 41.5q31 0 54 -10v-64q-18 10 -42 10q-38 0 -63 -24.5t-25 -63.5
v-155h253v-589q0 -56 -28 -86t-77 -30q-23 0 -35 5zM592 585q0 21 14.5 35.5t35.5 14.5t35.5 -14.5t14.5 -35.5t-14.5 -35.5t-35.5 -14.5t-35.5 14.5t-14.5 35.5z" />
    <glyph glyph-name="f_j" unicode="fj" horiz-adv-x="497" 
d="M285 -250v50q65 0 65 63v527h-178v-390h-77v390h-63v60h63v155q0 69 42 110.5t111 41.5q31 0 54 -10v-64q-18 10 -42 10q-38 0 -63 -24.5t-25 -63.5v-155h253v-589q0 -56 -28 -86t-77 -30q-23 0 -35 5zM337 585q0 21 14.5 35.5t35.5 14.5t35.5 -14.5t14.5 -35.5
t-14.5 -35.5t-35.5 -14.5t-35.5 14.5t-14.5 35.5z" />
    <glyph glyph-name="afii10104_afii10104" unicode="&#x457;&#x457;" horiz-adv-x="440" 
d="M72 0v450h75v-450h-75zM-14 560q0 20 14 33.5t33 13.5q20 0 34 -13.5t14 -33.5t-14 -34t-34 -14t-33.5 14t-13.5 34zM292 0v450h75v-450h-75zM358 560q0 20 14 34t34 14t34 -14t14 -34t-14 -34t-34 -14t-34 14t-14 34zM172 560q0 20 14 34t34 14t34 -14t14 -34t-14 -34
t-34 -14t-34 14t-14 34z" />
    <glyph glyph-name="afii10056_afii10056" unicode="&#x407;&#x407;" horiz-adv-x="445" 
d="M72 0v700h78v-700h-78zM-15 797q0 20 13.5 34t33.5 14t34 -14t14 -34t-14 -33.5t-34 -13.5t-33.5 14t-13.5 33zM295 0v700h77v-700h-77zM365 797q0 20 13.5 34t33.5 14t34 -14t14 -34t-14 -33.5t-34 -13.5t-33.5 14t-13.5 33zM174 797q0 20 14 34t34 14t34 -14t14 -34
t-14 -33.5t-34 -13.5t-34 13.5t-14 33.5z" />
    <glyph glyph-name="quoteright_afii10104" unicode="&#x2019;&#x457;" horiz-adv-x="305" 
d="M51 488l-26 27q39 41 47 73q-18 3 -30 16.5t-12 32.5q0 21 14.5 35.5t35.5 14.5t35.5 -14t14.5 -44q0 -62 -79 -141zM157 0v450h75v-450h-75zM223 560q0 20 14 34t34 14t34 -14t14 -34t-14 -34t-34 -14t-34 14t-14 34z" />
    <glyph glyph-name="afii10103_afii10104" unicode="&#x456;&#x457;" horiz-adv-x="440" 
d="M72 0v450h75v-450h-75zM60 585q0 21 14.5 35.5t35.5 14.5t35.5 -14.5t14.5 -35.5t-14.5 -35.5t-35.5 -14.5t-35.5 14.5t-14.5 35.5zM292 0v450h75v-450h-75zM215 560q0 20 13.5 33.5t33.5 13.5t34 -13.5t14 -33.5t-14 -34t-34 -14t-33.5 14t-13.5 34zM358 560q0 20 14 34
t34 14t34 -14t14 -34t-14 -34t-34 -14t-34 14t-14 34z" />
    <glyph glyph-name=".notdef" horiz-adv-x="230" 
 />
    <glyph glyph-name=".null" horiz-adv-x="0" 
 />
    <glyph glyph-name="nonmarkingreturn" horiz-adv-x="333" 
 />
    <glyph glyph-name="space" unicode=" " horiz-adv-x="230" 
 />
    <glyph glyph-name="exclam" unicode="!" 
d="M60 42q0 21 14.5 35.5t35.5 14.5t35.5 -14.5t14.5 -35.5t-14.5 -35.5t-35.5 -14.5t-35.5 14.5t-14.5 35.5zM72 192v508h75v-508h-75z" />
    <glyph glyph-name="quotedbl" unicode="&#x22;" horiz-adv-x="365" 
d="M72 450v250h65v-250h-65zM227 450v250h65v-250h-65z" />
    <glyph glyph-name="numbersign" unicode="#" horiz-adv-x="606" 
d="M332 0l28 175h-170l-27 -175h-76l28 175h-75v60h84l36 230h-84v60h93l28 175h76l-29 -175h170l28 175h76l-29 -175h77v-60h-85l-37 -230h87v-60h-96l-27 -175h-76zM236 465l-37 -230h170l36 230h-169z" />
    <glyph glyph-name="dollar" unicode="$" horiz-adv-x="541" 
d="M245 -100v93q-123 8 -199 92l48 49q58 -65 151 -72v260q-33 13 -54 22t-48 26.5t-43 36t-27 47.5t-11 64q0 76 47 130.5t136 58.5v93h45v-95q103 -11 171 -81l-49 -49q-47 50 -122 60v-248q38 -15 56 -23t49 -26t46 -35.5t27.5 -46t12.5 -63.5q0 -77 -49.5 -135
t-141.5 -65v-93h-45zM401 191q0 41 -28.5 66t-82.5 47v-240q55 10 83 47.5t28 79.5zM142 520q0 -41 26.5 -67.5t76.5 -47.5v231q-51 -6 -77 -40.5t-26 -75.5z" />
    <glyph glyph-name="percent" unicode="%" horiz-adv-x="857" 
d="M206 0l369 700h76l-368 -700h-77zM40 537q0 76 47 123t123 47t123 -47t47 -123t-47 -123t-123 -47t-123 47t-47 123zM107 537q0 -50 28.5 -81t74.5 -31q45 0 73.5 31.5t28.5 80.5q0 50 -28.5 81.5t-73.5 31.5q-46 0 -74.5 -31.5t-28.5 -81.5zM477 162q0 76 47 123t123 47
t123 -47t47 -123t-47 -123t-123 -47t-123 47t-47 123zM545 162q0 -49 28.5 -80.5t73.5 -31.5q46 0 74.5 31t28.5 81t-28.5 81.5t-74.5 31.5q-45 0 -73.5 -31.5t-28.5 -81.5z" />
    <glyph glyph-name="ampersand" unicode="&#x26;" horiz-adv-x="612" 
d="M340 348v64h227v-64h-75v-145q0 -94 -61 -152.5t-159 -58.5t-159 58.5t-61 152.5q0 64 30.5 110.5t84.5 67.5q-85 43 -85 145q0 80 52.5 130.5t137.5 50.5t137.5 -50.5t52.5 -130.5h-77q0 50 -31.5 82t-81.5 32q-49 0 -80.5 -32t-31.5 -82t31.5 -82t80.5 -32h28v-64h-28
q-63 0 -102.5 -40.5t-39.5 -104.5t39.5 -103.5t102.5 -39.5q64 0 103.5 39.5t39.5 103.5v145h-75z" />
    <glyph glyph-name="quotesingle" unicode="'" horiz-adv-x="210" 
d="M72 450v250h65v-250h-65z" />
    <glyph glyph-name="parenleft" unicode="(" horiz-adv-x="297" 
d="M252 757v-57q-46 0 -80.5 -128t-34.5 -322t34.5 -322t80.5 -128v-58q-80 0 -136 143t-56 365t56 364.5t136 142.5z" />
    <glyph glyph-name="parenright" unicode=")" horiz-adv-x="297" 
d="M45 700v57q80 0 136 -142.5t56 -364.5t-56 -365t-136 -143v58q46 0 80.5 128t34.5 322t-34.5 322t-80.5 128z" />
    <glyph glyph-name="asterisk" unicode="*" horiz-adv-x="446" 
d="M223 474l-82 -113l-45 34l81 112l-132 43l18 54l131 -43v139h57v-139l132 44l18 -54l-133 -44l83 -113l-47 -33z" />
    <glyph glyph-name="plus" unicode="+" horiz-adv-x="435" 
d="M60 262v60h127v128h60v-128h128v-60h-128v-127h-60v127h-127z" />
    <glyph glyph-name="comma" unicode="," 
d="M81 -107l-26 27q39 41 47 73q-18 3 -30 16.5t-12 32.5q0 21 14.5 35.5t35.5 14.5t35.5 -14t14.5 -44q0 -62 -79 -141z" />
    <glyph glyph-name="hyphen" unicode="-" horiz-adv-x="340" 
d="M60 235v60h220v-60h-220z" />
    <glyph glyph-name="period" unicode="." 
d="M60 42q0 21 14.5 35.5t35.5 14.5t35.5 -14.5t14.5 -35.5t-14.5 -35.5t-35.5 -14.5t-35.5 14.5t-14.5 35.5z" />
    <glyph glyph-name="slash" unicode="/" horiz-adv-x="550" 
d="M52 -50l369 800h76l-369 -800h-76z" />
    <glyph glyph-name="zero" unicode="0" horiz-adv-x="565" 
d="M50 350q0 159 64.5 258t167.5 99q104 0 168.5 -99t64.5 -258q0 -160 -64.5 -259t-168.5 -99t-168 99t-64 259zM127 350q0 -129 43 -209.5t112 -80.5t112 80.5t43 209.5t-43 209.5t-112 80.5t-112 -80.5t-43 -209.5z" />
    <glyph glyph-name="one" unicode="1" horiz-adv-x="317" 
d="M32 612v60l185 32v-704h-75v633z" />
    <glyph glyph-name="two" unicode="2" horiz-adv-x="517" 
d="M49 66l303 303q40 40 40 117q0 68 -38 110.5t-98 42.5q-61 0 -98.5 -42.5t-37.5 -110.5h-78q0 99 59.5 160t154.5 61t154.5 -61t59.5 -160q0 -105 -63 -168l-253 -253h316v-65h-421v66z" />
    <glyph glyph-name="three" unicode="3" horiz-adv-x="532" 
d="M219 348v64h46q49 0 80.5 32t31.5 82t-31.5 82t-80.5 32q-50 0 -81.5 -32t-31.5 -82h-77q0 80 52.5 130.5t137.5 50.5t137.5 -50.5t52.5 -130.5q0 -102 -85 -145q54 -21 84.5 -67.5t30.5 -110.5q0 -94 -61 -152.5t-159 -58.5t-159 58.5t-61 152.5h77q0 -64 39.5 -103.5
t103.5 -39.5q63 0 102.5 39.5t39.5 103.5t-39.5 104.5t-102.5 40.5h-46z" />
    <glyph glyph-name="four" unicode="4" horiz-adv-x="548" 
d="M359 0v135h-319v37l314 528h77v-500h63v-65h-60v-135h-75zM133 200h228v386z" />
    <glyph glyph-name="five" unicode="5" horiz-adv-x="517" 
d="M470 214q0 -99 -59.5 -160.5t-154.5 -61.5t-154.5 58t-59.5 151h75q0 -62 39 -101.5t100 -39.5q60 0 98 43t38 111q0 74 -43 120.5t-111 46.5q-71 0 -115 -42l-55 21l43 340h307v-65h-240l-29 -208q39 22 93 22q102 0 165 -65t63 -170z" />
    <glyph glyph-name="six" unicode="6" horiz-adv-x="530" 
d="M292 707l65 -37q-99 -135 -169 -259q33 19 78 19q97 0 158 -60t61 -158t-61 -159t-160 -61q-98 0 -158.5 61.5t-60.5 164.5q0 40 10.5 80t22 70.5t52 95t65.5 101.5t97 142zM122 212q0 -68 39.5 -110t103.5 -42q63 0 102.5 42.5t39.5 109.5q0 68 -39.5 110.5t-102.5 42.5
q-64 0 -103.5 -42.5t-39.5 -110.5z" />
    <glyph glyph-name="seven" unicode="7" horiz-adv-x="524" 
d="M50 635v65h424v-28l-252 -672h-80l235 635h-327z" />
    <glyph glyph-name="eight" unicode="8" horiz-adv-x="535" 
d="M77 526q0 80 52.5 130.5t137.5 50.5t137.5 -50.5t52.5 -130.5q0 -102 -85 -145q54 -21 84.5 -67.5t30.5 -110.5q0 -94 -61 -152.5t-159 -58.5t-159 58.5t-61 152.5q0 64 30.5 110.5t83.5 67.5q-84 42 -84 145zM125 203q0 -64 39.5 -103.5t102.5 -39.5q64 0 103.5 39.5
t39.5 103.5t-39.5 104t-103.5 40q-63 0 -102.5 -40t-39.5 -104zM155 526q0 -50 31 -81.5t81 -31.5t81.5 31.5t31.5 81.5t-31.5 82t-81.5 32q-49 0 -80.5 -32t-31.5 -82z" />
    <glyph glyph-name="nine" unicode="9" horiz-adv-x="530" 
d="M237 -8l-64 37q108 151 169 260q-35 -19 -78 -19q-98 0 -158.5 59.5t-60.5 158.5q0 98 60.5 158.5t159.5 60.5t159.5 -61t60.5 -164q0 -90 -45 -175t-188 -293q-10 -14 -15 -22zM407 487q0 68 -39.5 110.5t-102.5 42.5q-64 0 -103.5 -42.5t-39.5 -110.5t39.5 -110
t103.5 -42q63 0 102.5 42.5t39.5 109.5z" />
    <glyph glyph-name="colon" unicode=":" 
d="M60 42q0 21 14.5 35.5t35.5 14.5t35.5 -14.5t14.5 -35.5t-14.5 -35.5t-35.5 -14.5t-35.5 14.5t-14.5 35.5zM60 407q0 21 14.5 35.5t35.5 14.5t35.5 -14.5t14.5 -35.5t-14.5 -35.5t-35.5 -14.5t-35.5 14.5t-14.5 35.5z" />
    <glyph glyph-name="semicolon" unicode=";" 
d="M60 407q0 21 14.5 35.5t35.5 14.5t35.5 -14.5t14.5 -35.5t-14.5 -35.5t-35.5 -14.5t-35.5 14.5t-14.5 35.5zM81 -107l-26 27q39 41 47 73q-18 3 -30 16.5t-12 32.5q0 21 14.5 35.5t35.5 14.5t35.5 -14t14.5 -44q0 -62 -79 -141z" />
    <glyph glyph-name="less" unicode="&#x3c;" horiz-adv-x="410" 
d="M316 109l-281 191l281 191l44 -44l-219 -147l219 -147z" />
    <glyph glyph-name="equal" unicode="=" horiz-adv-x="475" 
d="M60 325v60h355v-60h-355zM60 150v60h355v-60h-355z" />
    <glyph glyph-name="greater" unicode="&#x3e;" horiz-adv-x="410" 
d="M370 300l-281 -191l-44 44l218 147l-218 147l44 44z" />
    <glyph glyph-name="question" unicode="?" horiz-adv-x="471" 
d="M86 584l-49 49q79 74 193 74q93 0 144.5 -52.5t51.5 -127.5q0 -41 -16 -71t-39 -48.5t-46 -37.5t-39 -49t-16 -71v-58h-75v58q0 50 16 87.5t38.5 58.5t45 39t38.5 40.5t16 50.5q0 45 -30.5 79.5t-90.5 34.5q-39 0 -78 -15.5t-64 -40.5zM183 42q0 21 14.5 35.5t35.5 14.5
t35.5 -14.5t14.5 -35.5t-14.5 -35.5t-35.5 -14.5t-35.5 14.5t-14.5 35.5z" />
    <glyph glyph-name="at" unicode="@" horiz-adv-x="1050" 
d="M835 -73l48 -47q-63 -67 -155 -102.5t-200 -35.5q-214 0 -346 133.5t-132 349.5q0 215 132 348.5t345 133.5q141 0 250 -60t166 -160t57 -223q0 -73 -21 -128.5t-55 -85t-71.5 -44t-76.5 -14.5q-88 0 -117 52q-58 -52 -141 -52q-97 0 -156.5 64.5t-59.5 168.5t64.5 168
t169.5 64q125 0 188 -74v-271q0 -25 18.5 -38.5t47.5 -13.5q52 0 92 48t40 148q0 165 -108 274.5t-286 109.5t-289.5 -115t-111.5 -300t111.5 -300t291.5 -115q91 0 171.5 30.5t133.5 86.5zM380 225q0 -73 43.5 -119t113.5 -46q69 0 112 41v254q-45 35 -114 35
q-70 0 -112.5 -45.5t-42.5 -119.5z" />
    <glyph glyph-name="A" unicode="A" horiz-adv-x="731" 
d="M611 0l-83 200h-326l-82 -200h-90l299 700h73l298 -700h-89zM366 601l-136 -331h270z" />
    <glyph glyph-name="B" unicode="B" horiz-adv-x="555" 
d="M80 0v700h192q84 0 136 -49.5t52 -131.5q0 -105 -81 -150q55 -19 87 -65.5t32 -110.5q0 -88 -55 -140.5t-145 -52.5h-218zM420 198q0 58 -34.5 93.5t-90.5 35.5h-135v-260h135q56 0 90.5 36t34.5 95zM382 513q0 54 -31.5 86.5t-83.5 32.5h-107v-237h107q52 0 83.5 32.5
t31.5 85.5z" />
    <glyph glyph-name="C" unicode="C" horiz-adv-x="709" 
d="M135 350q0 -128 76.5 -208t199.5 -80q126 0 203 80l50 -49q-98 -101 -257 -101q-157 0 -254.5 99t-97.5 259q0 159 97.5 258t254.5 99q159 0 257 -101l-50 -50q-78 81 -203 81q-123 0 -199.5 -79.5t-76.5 -207.5z" />
    <glyph glyph-name="D" unicode="D" horiz-adv-x="702" 
d="M80 0v700h215q158 0 255 -96t97 -254q0 -159 -97 -254.5t-255 -95.5h-215zM567 350q0 127 -75 204.5t-197 77.5h-135v-565h135q122 0 197 77.5t75 205.5z" />
    <glyph glyph-name="E" unicode="E" horiz-adv-x="507" 
d="M157 635v-250h260v-65h-260v-255h298v-65h-375v700h370v-65h-293z" />
    <glyph glyph-name="F" unicode="F" horiz-adv-x="481" 
d="M157 635v-250h243v-65h-243v-320h-77v700h355v-65h-278z" />
    <glyph glyph-name="G" unicode="G" horiz-adv-x="744" 
d="M407 305v65h257v-277q-98 -101 -257 -101q-157 0 -254.5 99t-97.5 259q0 159 97.5 258t254.5 99q159 0 257 -101l-50 -50q-78 81 -203 81q-123 0 -199.5 -79.5t-76.5 -207.5t76.5 -208t199.5 -80q105 0 175 59v184h-179z" />
    <glyph glyph-name="H" unicode="H" horiz-adv-x="700" 
d="M157 700v-315h385v315h78v-700h-78v320h-385v-320h-77v700h77z" />
    <glyph glyph-name="I" unicode="I" horiz-adv-x="232" 
d="M77 0v700h78v-700h-78z" />
    <glyph glyph-name="J" unicode="J" horiz-adv-x="462" 
d="M307 190v510h78v-510q0 -88 -55 -143t-142 -55q-89 0 -143 56l50 50q34 -36 90 -36q54 0 88 35.5t34 92.5z" />
    <glyph glyph-name="K" unicode="K" horiz-adv-x="607" 
d="M77 0v700h78v-700h-78zM472 0l-308 359l288 341h97l-287 -341l310 -359h-100z" />
    <glyph glyph-name="L" unicode="L" horiz-adv-x="475" 
d="M157 700v-635h273v-65h-350v700h77z" />
    <glyph glyph-name="M" unicode="M" horiz-adv-x="818" 
d="M660 0v540l-234 -380h-34l-235 380v-540h-77v700h59l270 -431l270 431h59v-700h-78z" />
    <glyph glyph-name="N" unicode="N" horiz-adv-x="722" 
d="M80 700h52l433 -553v553h77v-700h-52l-433 553v-553h-77v700z" />
    <glyph glyph-name="O" unicode="O" horiz-adv-x="806" 
d="M54 350q0 159 96.5 258t252.5 99t252.5 -99t96.5 -258q0 -160 -96.5 -259t-252.5 -99t-252.5 99t-96.5 259zM134 350q0 -128 75 -208t194 -80q120 0 194.5 80t74.5 208t-74.5 207.5t-194.5 79.5q-119 0 -194 -80t-75 -207z" />
    <glyph glyph-name="P" unicode="P" horiz-adv-x="529" 
d="M80 0v700h190q92 0 148 -53.5t56 -143.5q0 -89 -56 -142.5t-148 -53.5h-110v-307h-80zM394 503q0 58 -34 93.5t-90 35.5h-110v-257h110q56 0 90 35t34 93z" />
    <glyph glyph-name="Q" unicode="Q" horiz-adv-x="807" 
d="M715 -26l-90 91q-92 -73 -222 -73q-156 0 -252.5 99t-96.5 259q0 159 96.5 258t252.5 99t252.5 -99t96.5 -258q0 -141 -78 -235l90 -91zM134 350q0 -128 74.5 -208t194.5 -80q106 0 170 55l-112 114l49 49l106 -108q55 70 55 178q0 128 -74 207.5t-194 79.5t-194.5 -79.5
t-74.5 -207.5z" />
    <glyph glyph-name="R" unicode="R" horiz-adv-x="544" 
d="M421 0l-166 307h-95v-307h-80v700h197q92 0 148.5 -53.5t56.5 -143.5q0 -74 -40 -124.5t-108 -65.5l176 -313h-89zM402 503q0 58 -34.5 93.5t-90.5 35.5h-117v-257h117q56 0 90.5 35t34.5 93z" />
    <glyph glyph-name="S" unicode="S" horiz-adv-x="541" 
d="M461 624l-49 -49q-25 27 -66 44.5t-82 17.5q-61 0 -91.5 -36t-30.5 -81q0 -33 18.5 -57.5t48.5 -40t66 -29.5t72.5 -30t66.5 -36.5t48.5 -54.5t18.5 -79q0 -83 -56.5 -142t-159.5 -59q-132 0 -219 93l48 49q30 -34 74.5 -53t89.5 -19q70 0 106.5 40.5t36.5 88.5
q0 36 -25 62.5t-63 41t-81.5 33t-81.5 38.5t-63 59t-25 93q0 79 50 134t145 55q124 0 204 -83z" />
    <glyph glyph-name="T" unicode="T" horiz-adv-x="567" 
d="M322 635v-635h-77v635h-200v65h477v-65h-200z" />
    <glyph glyph-name="U" unicode="U" horiz-adv-x="682" 
d="M524 255v445h78v-445q0 -118 -72.5 -190.5t-189.5 -72.5t-188.5 72.5t-71.5 190.5v445h77v-445q0 -86 51 -139.5t132 -53.5q82 0 133 53.5t51 139.5z" />
    <glyph glyph-name="V" unicode="V" horiz-adv-x="731" 
d="M700 700l-298 -700h-73l-299 700h92l244 -599l243 599h91z" />
    <glyph glyph-name="W" unicode="W" horiz-adv-x="1094" 
d="M1064 700l-251 -700h-79l-188 567l-186 -567h-79l-251 700h90l200 -581l186 581h81l187 -581l200 581h90z" />
    <glyph glyph-name="X" unicode="X" horiz-adv-x="704" 
d="M572 0l-221 301l-219 -301h-99l262 354l-255 346h100l211 -292l213 292h100l-256 -346l263 -354h-99z" />
    <glyph glyph-name="Y" unicode="Y" horiz-adv-x="677" 
d="M299 0v301l-267 399h90l216 -322l216 322h90l-267 -400v-300h-78z" />
    <glyph glyph-name="Z" unicode="Z" horiz-adv-x="635" 
d="M61 635v65h517v-28l-411 -607h413v-65h-525v28l410 607h-404z" />
    <glyph glyph-name="bracketleft" unicode="[" horiz-adv-x="297" 
d="M247 750v-60h-100v-880h100v-60h-175v1000h175z" />
    <glyph glyph-name="backslash" unicode="\" horiz-adv-x="550" 
d="M128 750l369 -800h-76l-369 800h76z" />
    <glyph glyph-name="bracketright" unicode="]" horiz-adv-x="297" 
d="M50 690v60h175v-1000h-175v60h100v880h-100z" />
    <glyph glyph-name="asciicircum" unicode="^" horiz-adv-x="452" 
d="M226 676l191 -191l-39 -39l-152 152l-152 -152l-39 39z" />
    <glyph glyph-name="underscore" unicode="_" horiz-adv-x="450" 
d="M0 -160v60h450v-60h-450z" />
    <glyph glyph-name="grave" unicode="`" horiz-adv-x="265" 
d="M89 676l126 -126l-39 -39l-126 126z" />
    <glyph glyph-name="a" unicode="a" horiz-adv-x="453" 
d="M418 49v-50q-12 -5 -32 -5q-64 0 -83 51q-55 -53 -129 -53q-63 0 -97 37.5t-34 92.5q0 68 50.5 104t134.5 36q19 0 36 -2t24 -4l8 -1v60q0 33 -23 56.5t-71 23.5q-67 0 -103 -36l-39 39q59 59 148 59q79 0 121 -40.5t42 -101.5v-227q0 -39 47 -39zM196 55q59 0 100 42
v105q-23 7 -62 7q-116 0 -116 -79q0 -31 19 -53t59 -22z" />
    <glyph glyph-name="b" unicode="b" horiz-adv-x="539" 
d="M251 -8q-116 0 -179 63v695h75v-330q52 37 125 37q99 0 160.5 -64.5t61.5 -168.5q0 -106 -64 -169t-179 -63zM417 223q0 75 -43 121t-113 46q-72 0 -114 -48v-250q42 -32 110 -32q75 0 117.5 45t42.5 118z" />
    <glyph glyph-name="c" unicode="c" horiz-adv-x="477" 
d="M122 225q0 -73 43.5 -119t113.5 -46q73 0 116 46l47 -47q-65 -67 -167 -67q-103 0 -166.5 64.5t-63.5 168.5t63.5 168t166.5 64q102 0 167 -68l-47 -46q-44 47 -116 47q-70 0 -113.5 -46t-43.5 -119z" />
    <glyph glyph-name="d" unicode="d" horiz-adv-x="541" 
d="M468 0h-75v36q-57 -44 -132 -44q-97 0 -156.5 64.5t-59.5 168.5t63 168t165 64q66 0 120 -32v325h75v-750zM122 225q0 -73 43.5 -119t113.5 -46q71 0 114 43v244q-43 43 -114 43q-70 0 -113.5 -46t-43.5 -119z" />
    <glyph glyph-name="e" unicode="e" horiz-adv-x="508" 
d="M465 204h-341q5 -66 47.5 -105t110.5 -39q75 0 119 46l45 -47q-65 -67 -169 -67t-168 64.5t-64 170.5q0 103 59.5 166.5t157.5 63.5q99 0 151 -67.5t52 -185.5zM262 391q-56 0 -93.5 -35.5t-44.5 -96.5h266q-7 62 -40 97t-88 35z" />
    <glyph glyph-name="f" unicode="f" horiz-adv-x="322" 
d="M32 390v60h63v155q0 69 42 110.5t111 41.5q31 0 54 -10v-64q-18 10 -41 10q-39 0 -64 -24.5t-25 -63.5v-155h130v-60h-130v-390h-77v390h-63z" />
    <glyph glyph-name="g" unicode="g" horiz-adv-x="495" 
d="M22 -118q0 43 27.5 75t75.5 48q-58 25 -58 75q0 52 63 76q-78 40 -78 137q0 74 49.5 119t128.5 45q71 0 120 -38q35 38 84 38q8 0 26 -2v-60q-12 2 -20 2q-30 0 -55 -18q22 -38 22 -84q0 -73 -49.5 -118t-129.5 -45q-42 0 -65 -14t-23 -36t28.5 -36t76.5 -14
q96 0 154 -38t58 -100q0 -67 -65 -109.5t-165 -42.5q-93 0 -149 39t-56 101zM100 -118q0 -37 34 -59t93 -22q65 0 109 26t44 66q0 36 -37.5 58t-97.5 22q-66 0 -105.5 -25t-39.5 -66zM127 295q0 -46 29 -74.5t75 -28.5t74.5 28.5t28.5 74.5q0 45 -28.5 73.5t-74.5 28.5
t-75 -28.5t-29 -73.5z" />
    <glyph glyph-name="h" unicode="h" horiz-adv-x="523" 
d="M72 750h75v-338q54 45 132 45q76 0 122.5 -51t46.5 -134v-272h-75v272q0 53 -31 85.5t-81 32.5q-71 0 -114 -45v-345h-75v750z" />
    <glyph glyph-name="i" unicode="i" 
d="M72 0v450h75v-450h-75zM60 585q0 21 14.5 35.5t35.5 14.5t35.5 -14.5t14.5 -35.5t-14.5 -35.5t-35.5 -14.5t-35.5 14.5t-14.5 35.5z" />
    <glyph glyph-name="j" unicode="j" 
d="M60 585q0 21 14.5 35.5t35.5 14.5t35.5 -14.5t14.5 -35.5t-14.5 -35.5t-35.5 -14.5t-35.5 14.5t-14.5 35.5zM7 -250v50q65 0 65 63v587h75v-589q0 -54 -28.5 -85t-76.5 -31q-23 0 -35 5z" />
    <glyph glyph-name="k" unicode="k" horiz-adv-x="459" 
d="M147 0h-75v750h75v-503l178 203h90l-188 -211l209 -239h-89l-200 231v-231z" />
    <glyph glyph-name="l" unicode="l" horiz-adv-x="247" 
d="M215 50v-50q-12 -5 -37 -5q-49 0 -77.5 31t-28.5 85v639h75v-637q0 -63 68 -63z" />
    <glyph glyph-name="m" unicode="m" horiz-adv-x="761" 
d="M613 0v302q0 39 -22.5 63.5t-58.5 24.5q-73 0 -119 -44q5 -23 5 -44v-302h-75v302q0 39 -22.5 63.5t-59.5 24.5q-71 0 -114 -45v-345h-75v450h75v-38q54 45 132 45q77 0 115 -62q59 62 155 62q63 0 101 -42.5t38 -112.5v-302h-75z" />
    <glyph glyph-name="n" unicode="n" horiz-adv-x="520" 
d="M72 450h75v-38q54 45 132 45q76 0 122.5 -51t46.5 -134v-272h-75v272q0 53 -31 85.5t-81 32.5q-71 0 -114 -45v-345h-75v450z" />
    <glyph glyph-name="o" unicode="o" horiz-adv-x="549" 
d="M44 225q0 104 63.5 168t166.5 64t167 -64.5t64 -167.5q0 -104 -64 -168.5t-167 -64.5t-166.5 64.5t-63.5 168.5zM121 225q0 -74 42.5 -119.5t110.5 -45.5t110.5 46t42.5 119t-42.5 119t-110.5 46t-110.5 -45.5t-42.5 -119.5z" />
    <glyph glyph-name="p" unicode="p" horiz-adv-x="541" 
d="M72 450h75v-38q54 45 133 45q97 0 156.5 -64t59.5 -168t-63 -168.5t-165 -64.5q-69 0 -121 32v-274h-75v700zM418 225q0 73 -43.5 119t-113.5 46q-71 0 -114 -45v-243q42 -42 114 -42q70 0 113.5 46t43.5 119z" />
    <glyph glyph-name="q" unicode="q" horiz-adv-x="539" 
d="M284 457q56 0 105.5 -17t77.5 -47v-643h-75v279q-52 -37 -125 -37q-99 0 -160.5 64.5t-61.5 168.5q0 105 64 168.5t175 63.5zM122 225q0 -74 43 -119.5t113 -45.5q71 0 114 46v251q-40 33 -110 33q-74 0 -117 -45.5t-43 -119.5z" />
    <glyph glyph-name="r" unicode="r" horiz-adv-x="335" 
d="M269 456q11 0 31 -2v-66q-16 3 -35 3q-74 0 -118 -62v-329h-75v450h75v-55q53 61 122 61z" />
    <glyph glyph-name="s" unicode="s" horiz-adv-x="382" 
d="M325 403l-44 -44q-14 15 -39.5 25t-48.5 10q-33 0 -50 -19.5t-17 -43.5q0 -19 14.5 -34t28.5 -21.5t50 -21.5q28 -12 44.5 -20.5t36 -23.5t28.5 -35.5t9 -46.5q0 -55 -39.5 -95.5t-110.5 -40.5q-92 0 -148 61l44 44q36 -42 99 -42q40 0 60 21.5t20 48.5q0 25 -19.5 39
t-69.5 35q-29 11 -46.5 20.5t-37 24.5t-29 36t-9.5 49q0 53 35 90.5t101 37.5q86 0 138 -54z" />
    <glyph glyph-name="t" unicode="t" horiz-adv-x="317" 
d="M27 390v60h58v100h77v-100h120v-60h-120v-250q0 -37 22 -60t58 -23q24 0 40 10v-65q-23 -10 -53 -10q-66 0 -105 40.5t-39 107.5v250h-58z" />
    <glyph glyph-name="u" unicode="u" horiz-adv-x="530" 
d="M458 450v-265q0 -86 -53.5 -139.5t-139.5 -53.5t-139.5 53.5t-53.5 139.5v265h78v-265q0 -56 32.5 -90.5t84.5 -34.5t84.5 35t32.5 90v265h74z" />
    <glyph glyph-name="v" unicode="v" horiz-adv-x="493" 
d="M477 450l-196 -450h-70l-196 450h84l147 -357l148 357h83z" />
    <glyph glyph-name="w" unicode="w" horiz-adv-x="745" 
d="M729 450l-167 -450h-78l-112 345l-111 -345h-79l-167 450h86l120 -359l113 359h76l113 -359l120 359h86z" />
    <glyph glyph-name="x" unicode="x" horiz-adv-x="479" 
d="M372 0l-133 181l-132 -181h-87l170 229l-163 221h88l124 -172l125 172h87l-163 -221l171 -229h-87z" />
    <glyph glyph-name="y" unicode="y" horiz-adv-x="493" 
d="M477 450l-308 -700h-83l125 250l-196 450h84l147 -360l148 360h83z" />
    <glyph glyph-name="z" unicode="z" horiz-adv-x="465" 
d="M51 390v60h367v-28l-262 -362h262v-60h-371v28l262 362h-258z" />
    <glyph glyph-name="braceleft" unicode="{" horiz-adv-x="317" 
d="M277 -200v-58q-67 0 -112 62t-45 158v95q0 71 -23.5 117t-56.5 46v57q33 0 56.5 46t23.5 117v97q0 96 45 158t112 62v-57q-33 0 -56.5 -46t-23.5 -117v-97q0 -67 -23 -117.5t-61 -74.5q38 -23 61 -73t23 -118v-95q0 -70 23.5 -116t56.5 -46z" />
    <glyph glyph-name="bar" unicode="|" 
d="M72 -250v1000h75v-1000h-75z" />
    <glyph glyph-name="braceright" unicode="}" horiz-adv-x="317" 
d="M40 -258v58q33 0 56.5 46t23.5 116v95q0 68 23 118t61 73q-38 24 -61 74.5t-23 117.5v97q0 71 -23.5 117t-56.5 46v57q67 0 112 -62t45 -158v-97q0 -71 23.5 -117t56.5 -46v-57q-33 0 -56.5 -46t-23.5 -117v-95q0 -96 -45 -158t-112 -62z" />
    <glyph glyph-name="asciitilde" unicode="~" horiz-adv-x="432" 
d="M86 248h-51q0 48 30.5 78t76.5 30q41 0 80 -31.5t67 -31.5q25 0 41 16.5t16 42.5h51q0 -48 -30 -78t-78 -30q-42 0 -80 32t-66 32q-25 0 -41 -16.5t-16 -43.5z" />
    <glyph glyph-name="exclamdown" unicode="&#xa1;" 
d="M60 407q0 21 14.5 35.5t35.5 14.5t35.5 -14.5t14.5 -35.5t-14.5 -35.5t-35.5 -14.5t-35.5 14.5t-14.5 35.5zM72 257h75v-507h-75v507z" />
    <glyph glyph-name="cent" unicode="&#xa2;" horiz-adv-x="477" 
d="M242 -100v94q-90 11 -143.5 73t-53.5 158q0 94 54 156.5t143 73.5v95h45v-93q93 -4 155 -68l-47 -46q-42 44 -108 47v-330q67 1 108 46l47 -47q-61 -63 -155 -67v-92h-45zM122 225q0 -63 32.5 -106.5t87.5 -54.5v322q-55 -12 -87.5 -55t-32.5 -106z" />
    <glyph glyph-name="sterling" unicode="&#xa3;" horiz-adv-x="522" 
d="M45 320v60h75v137q0 86 54.5 138t141.5 52q89 0 144 -55l-50 -51q-33 36 -91 36q-54 0 -87.5 -32.5t-33.5 -87.5v-137h177v-60h-177v-202q24 -7 74 -34.5t78 -27.5q27 0 43 16.5t16 42.5h61q0 -55 -33 -89t-85 -34q-44 0 -103 33.5t-87 33.5q-27 0 -43 -16t-16 -43h-61
q0 43 21 74.5t57 42.5v203h-75z" />
    <glyph glyph-name="currency" unicode="&#xa4;" horiz-adv-x="530" 
d="M95 300q0 58 28 98l-83 84l42 43l85 -85q41 30 98 30t98 -30l85 85l42 -43l-84 -84q29 -40 29 -98q0 -59 -29 -100l84 -83l-43 -42l-84 84q-40 -29 -98 -29t-98 29l-84 -84l-43 42l83 83q-28 42 -28 100zM163 300q0 -50 28.5 -81.5t73.5 -31.5q46 0 74.5 31.5t28.5 81.5
t-28.5 81t-74.5 31q-45 0 -73.5 -31.5t-28.5 -80.5z" />
    <glyph glyph-name="yen" unicode="&#xa5;" horiz-adv-x="677" 
d="M159 220v45h140v36l-267 399h90l216 -322l216 322h90l-267 -400v-35h140v-45h-140v-83h140v-45h-140v-92h-78v92h-140v45h140v83h-140z" />
    <glyph glyph-name="brokenbar" unicode="&#xa6;" 
d="M72 -250v450h75v-450h-75zM147 750v-450h-75v450h75z" />
    <glyph glyph-name="section" unicode="&#xa7;" horiz-adv-x="423" 
d="M162 439l204 -204l-50 -50l-206 206q-65 65 -65 146q0 76 51 123t133 47q96 0 154 -67l-48 -48q-39 47 -106 47q-47 0 -77 -28.5t-30 -73.5q0 -60 40 -98zM261 10l-204 205l50 50l206 -206q65 -65 65 -147q0 -76 -51 -123t-133 -47q-95 0 -154 67l48 49q40 -48 106 -48
q47 0 77 29t30 74q0 57 -40 97z" />
    <glyph glyph-name="dieresis" unicode="&#xa8;" horiz-adv-x="428" 
d="M70 572q0 20 13.5 34t33.5 14t34 -14t14 -34t-14 -33.5t-34 -13.5q-19 0 -33 13.5t-14 33.5zM257 572q0 20 14 34t34 14t34 -14t14 -34t-14 -33.5t-34 -13.5t-34 13.5t-14 33.5z" />
    <glyph glyph-name="copyright" unicode="&#xa9;" horiz-adv-x="805" 
d="M50 350q0 159 97.5 258t254.5 99t255 -99t98 -258q0 -160 -97.5 -259t-255.5 -99q-157 0 -254.5 99t-97.5 259zM108 350q0 -139 81.5 -225.5t212.5 -86.5t213 86.5t82 225.5q0 138 -82 224.5t-213 86.5q-130 0 -212 -86.5t-82 -224.5zM280 350q0 -61 37 -99.5t95 -38.5
q60 0 96 38l30 -29q-48 -50 -128 -50t-129 49.5t-49 129.5t49.5 129.5t128.5 49.5t128 -51l-30 -29q-36 38 -96 38q-59 0 -95.5 -38t-36.5 -99z" />
    <glyph glyph-name="ordfeminine" unicode="&#xaa;" horiz-adv-x="260" 
d="M232 483v-31q-6 -3 -18 -3q-32 0 -45 26q-28 -28 -69 -28q-35 0 -53.5 20.5t-18.5 48.5q0 38 33.5 60t85.5 22q10 0 18 -2v26q0 16 -12 29.5t-35 13.5q-32 0 -52 -20l-26 25q34 34 82 34q42 0 66 -24t24 -58v-119q0 -20 20 -20zM115 487q32 0 50 22v55q-4 1 -16 1
q-32 0 -52.5 -12t-20.5 -32q0 -13 9.5 -23.5t29.5 -10.5z" />
    <glyph glyph-name="guillemotleft" unicode="&#xab;" horiz-adv-x="470" 
d="M206 79l-171 171l171 171l39 -39l-132 -132l132 -132zM376 79l-171 171l171 171l39 -39l-132 -132l132 -132z" />
    <glyph glyph-name="logicalnot" unicode="&#xac;" horiz-adv-x="500" 
d="M60 270v60h380v-175h-60v115h-320z" />
    <glyph glyph-name="uni00AD" unicode="&#xad;" horiz-adv-x="340" 
d="M60 235v60h220v-60h-220z" />
    <glyph glyph-name="registered" unicode="&#xae;" horiz-adv-x="805" 
d="M50 350q0 159 97.5 258t254.5 99t255 -99t98 -258q0 -160 -97.5 -259t-255.5 -99q-157 0 -254.5 99t-97.5 259zM108 350q0 -139 81.5 -225.5t212.5 -86.5t213 86.5t82 225.5q0 138 -82 224.5t-213 86.5q-130 0 -212 -86.5t-82 -224.5zM472 174l-80 150h-42v-150h-48v350
h102q48 0 77 -27.5t29 -72.5q0 -36 -19 -61.5t-52 -34.5l86 -154h-53zM462 424q0 26 -16 42.5t-42 16.5h-54v-119h54q26 0 42 16.5t16 43.5z" />
    <glyph glyph-name="macron" unicode="&#xaf;" horiz-adv-x="375" 
d="M65 542v48h245v-48h-245z" />
    <glyph glyph-name="degree" unicode="&#xb0;" horiz-adv-x="290" 
d="M45 602q0 46 28 74.5t72 28.5q46 0 73.5 -28t27.5 -75q0 -46 -27.5 -74t-73.5 -28q-44 0 -72 28t-28 74zM86 602q0 -28 16.5 -44.5t42.5 -16.5q27 0 43.5 16.5t16.5 44.5t-16.5 44.5t-43.5 16.5q-26 0 -42.5 -16.5t-16.5 -44.5z" />
    <glyph glyph-name="plusminus" unicode="&#xb1;" horiz-adv-x="435" 
d="M60 272v60h127v128h60v-128h128v-60h-128v-127h-60v127h-127zM60 52v60h315v-60h-315z" />
    <glyph glyph-name="twosuperior" unicode="&#xb2;" horiz-adv-x="279" 
d="M32 388l150 150q19 19 19 54q0 31 -17.5 51t-44.5 20q-28 0 -45.5 -19.5t-17.5 -51.5h-47q0 50 30.5 81t79.5 31q48 0 78 -31t30 -81q0 -49 -33 -84l-120 -120h153v-38h-215v38z" />
    <glyph glyph-name="threesuperior" unicode="&#xb3;" horiz-adv-x="287" 
d="M120 520v38h23q23 0 37.5 15t14.5 38t-14.5 37.5t-37.5 14.5t-37 -14.5t-14 -37.5h-47q0 41 27.5 67t70.5 26q44 0 71.5 -26t27.5 -67q0 -49 -40 -71q53 -24 53 -87q0 -48 -31 -77.5t-81 -29.5t-81 29.5t-31 77.5h47q0 -30 18 -48.5t47 -18.5t47.5 18.5t18.5 48.5
q0 29 -18.5 48t-47.5 19h-23z" />
    <glyph glyph-name="acute" unicode="&#xb4;" horiz-adv-x="265" 
d="M50 550l126 126l39 -39l-126 -126z" />
    <glyph glyph-name="mu" unicode="&#xb5;" horiz-adv-x="530" 
d="M17 -200v50q55 0 55 53v547h78v-265q0 -56 32.5 -90.5t84.5 -34.5t84.5 35t32.5 90v265h74v-265q0 -86 -53.5 -139.5t-139.5 -53.5q-71 0 -118 35v-126q0 -49 -26 -77.5t-70 -28.5q-22 0 -34 5z" />
    <glyph glyph-name="paragraph" unicode="&#xb6;" horiz-adv-x="577" 
d="M354 700v-700h-72v317h-30q-90 0 -145 52t-55 139t55 139.5t145 52.5h102zM432 0v700h72v-700h-72z" />
    <glyph glyph-name="periodcentered" unicode="&#xb7;" 
d="M60 250q0 21 14.5 35.5t35.5 14.5t35.5 -14.5t14.5 -35.5t-14.5 -35.5t-35.5 -14.5t-35.5 14.5t-14.5 35.5z" />
    <glyph glyph-name="cedilla" unicode="&#xb8;" horiz-adv-x="264" 
d="M140 0v-59q66 -12 66 -77q0 -35 -23 -57t-60 -22t-61 24l26 26q14 -14 35 -14t34 12t13 33q0 46 -65 46v88h35z" />
    <glyph glyph-name="onesuperior" unicode="&#xb9;" horiz-adv-x="183" 
d="M26 650v36l100 16v-352h-45v310z" />
    <glyph glyph-name="ordmasculine" unicode="&#xba;" horiz-adv-x="315" 
d="M29 576q0 57 35.5 92.5t92.5 35.5q58 0 93.5 -35.5t35.5 -92.5q0 -58 -35.5 -93.5t-93.5 -35.5q-57 0 -92.5 35.5t-35.5 93.5zM78 576q0 -39 22 -62.5t57 -23.5q36 0 58 23.5t22 62.5q0 38 -22 61.5t-58 23.5q-35 0 -57 -23.5t-22 -61.5z" />
    <glyph glyph-name="guillemotright" unicode="&#xbb;" horiz-adv-x="470" 
d="M430 250l-171 -171l-39 39l132 132l-132 132l39 39zM260 250l-171 -171l-39 39l132 132l-132 132l39 39z" />
    <glyph glyph-name="onequarter" unicode="&#xbc;" horiz-adv-x="634" 
d="M26 650v36l100 16v-352h-45v310zM97 0l369 700h56l-368 -700h-57zM524 0v65h-158v21l156 264h45v-246h31v-39h-29v-65h-45zM422 104h104v178z" />
    <glyph glyph-name="onehalf" unicode="&#xbd;" horiz-adv-x="686" 
d="M26 650v36l100 16v-352h-45v310zM97 0l369 700h56l-368 -700h-57zM439 38l150 150q19 19 19 54q0 31 -17.5 51t-44.5 20q-28 0 -45.5 -19.5t-17.5 -51.5h-47q0 50 30.5 81t79.5 31q48 0 78 -31t30 -81q0 -49 -33 -84l-120 -120h153v-38h-215v38z" />
    <glyph glyph-name="threequarters" unicode="&#xbe;" horiz-adv-x="652" 
d="M120 520v38h23q23 0 37.5 15t14.5 38t-14.5 37.5t-37.5 14.5t-37 -14.5t-14 -37.5h-47q0 41 27.5 67t70.5 26q44 0 71.5 -26t27.5 -67q0 -49 -40 -71q53 -24 53 -87q0 -48 -31 -77.5t-81 -29.5t-81 29.5t-31 77.5h47q0 -30 18 -48.5t47 -18.5t47.5 18.5t18.5 48.5
q0 29 -18.5 48t-47.5 19h-23zM140 0l368 700h57l-369 -700h-56zM542 0v65h-158v21l156 264h45v-246h31v-39h-29v-65h-45zM440 104h104v178z" />
    <glyph glyph-name="questiondown" unicode="&#xbf;" horiz-adv-x="471" 
d="M385 -135l49 -49q-80 -74 -193 -74q-93 0 -144.5 52.5t-51.5 128.5q0 41 16 71t39 48.5t46 37.5t39 49t16 71v57h75v-57q0 -51 -16 -88.5t-38.5 -58.5t-45 -38.5t-38.5 -40t-16 -50.5q0 -45 30.5 -79.5t90.5 -34.5q85 0 142 55zM288 407q0 -21 -14.5 -35.5t-35.5 -14.5
t-35.5 14.5t-14.5 35.5t14.5 35.5t35.5 14.5t35.5 -14.5t14.5 -35.5z" />
    <glyph glyph-name="Agrave" unicode="&#xc0;" horiz-adv-x="731" 
d="M611 0l-83 200h-326l-82 -200h-90l299 700h73l298 -700h-89zM366 601l-136 -331h270zM302 901l126 -126l-39 -39l-126 126z" />
    <glyph glyph-name="Aacute" unicode="&#xc1;" horiz-adv-x="731" 
d="M611 0l-83 200h-326l-82 -200h-90l299 700h73l298 -700h-89zM366 601l-136 -331h270zM302 775l126 126l39 -39l-126 -126z" />
    <glyph glyph-name="Acircumflex" unicode="&#xc2;" horiz-adv-x="731" 
d="M611 0l-83 200h-326l-82 -200h-90l299 700h73l298 -700h-89zM366 601l-136 -331h270zM365 901l126 -126l-39 -39l-87 87l-87 -87l-39 39z" />
    <glyph glyph-name="Atilde" unicode="&#xc3;" horiz-adv-x="731" 
d="M611 0l-83 200h-326l-82 -200h-90l299 700h73l298 -700h-89zM366 601l-136 -331h270zM269 763h-43q0 39 23.5 63.5t60.5 24.5q32 0 60 -24t48 -24q18 0 30 12.5t12 31.5h43q0 -40 -23.5 -64t-61.5 -24q-32 0 -60 24t-47 24q-18 0 -30 -12t-12 -32z" />
    <glyph glyph-name="Adieresis" unicode="&#xc4;" horiz-adv-x="731" 
d="M611 0l-83 200h-326l-82 -200h-90l299 700h73l298 -700h-89zM366 601l-136 -331h270zM224 797q0 20 13.5 34t33.5 14t34 -14t14 -34t-14 -33.5t-34 -13.5q-19 0 -33 14t-14 33zM411 797q0 20 14 34t34 14t34 -14t14 -34t-14 -33.5t-34 -13.5t-34 13.5t-14 33.5z" />
    <glyph glyph-name="Aring" unicode="&#xc5;" horiz-adv-x="731" 
d="M611 0l-83 200h-326l-82 -200h-90l299 700h73l298 -700h-89zM366 601l-136 -331h270zM278 820q0 40 24.5 65t63.5 25q40 0 64 -24.5t24 -65.5t-24 -65.5t-64 -24.5q-39 0 -63.5 25t-24.5 65zM314 819q0 -24 14.5 -38.5t37.5 -14.5t37.5 14.5t14.5 38.5t-14.5 39t-37.5 15
t-37.5 -14.5t-14.5 -39.5z" />
    <glyph glyph-name="AE" unicode="&#xc6;" horiz-adv-x="782" 
d="M457 635v-250h238v-65h-238v-255h275v-65h-352v200h-171l-87 -200h-90l311 700h384v-65h-270zM237 270h143v331z" />
    <glyph glyph-name="Ccedilla" unicode="&#xc7;" horiz-adv-x="709" 
d="M135 350q0 -128 76.5 -208t199.5 -80q126 0 203 80l50 -49q-92 -95 -241 -100v-52q66 -12 66 -77q0 -35 -23 -57t-60 -22t-61 24l26 26q14 -14 35 -14t34 12t13 33q0 46 -65 46v81q-150 6 -241.5 104t-91.5 253q0 159 97.5 258t254.5 99q159 0 257 -101l-50 -50
q-78 81 -203 81q-123 0 -199.5 -79.5t-76.5 -207.5z" />
    <glyph glyph-name="Egrave" unicode="&#xc8;" horiz-adv-x="507" 
d="M157 635v-250h260v-65h-260v-255h298v-65h-375v700h370v-65h-293zM202 901l126 -126l-39 -39l-126 126z" />
    <glyph glyph-name="Eacute" unicode="&#xc9;" horiz-adv-x="507" 
d="M157 635v-250h260v-65h-260v-255h298v-65h-375v700h370v-65h-293zM203 775l126 126l39 -39l-126 -126z" />
    <glyph glyph-name="Ecircumflex" unicode="&#xca;" horiz-adv-x="507" 
d="M157 635v-250h260v-65h-260v-255h298v-65h-375v700h370v-65h-293zM266 901l126 -126l-39 -39l-87 87l-87 -87l-39 39z" />
    <glyph glyph-name="Edieresis" unicode="&#xcb;" horiz-adv-x="507" 
d="M157 635v-250h260v-65h-260v-255h298v-65h-375v700h370v-65h-293zM124 797q0 20 13.5 34t33.5 14t34 -14t14 -34t-14 -33.5t-34 -13.5q-19 0 -33 14t-14 33zM311 797q0 20 14 34t34 14t34 -14t14 -34t-14 -33.5t-34 -13.5t-34 13.5t-14 33.5z" />
    <glyph glyph-name="Igrave" unicode="&#xcc;" horiz-adv-x="232" 
d="M77 0v700h78v-700h-78zM53 901l126 -126l-39 -39l-126 126z" />
    <glyph glyph-name="Iacute" unicode="&#xcd;" horiz-adv-x="232" 
d="M77 0v700h78v-700h-78zM54 775l126 126l39 -39l-126 -126z" />
    <glyph glyph-name="Icircumflex" unicode="&#xce;" horiz-adv-x="232" 
d="M77 0v700h78v-700h-78zM116 901l126 -126l-39 -39l-87 87l-87 -87l-39 39z" />
    <glyph glyph-name="Idieresis" unicode="&#xcf;" horiz-adv-x="232" 
d="M77 0v700h78v-700h-78zM-10 797q0 20 13.5 34t33.5 14t34 -14t14 -34t-14 -33.5t-34 -13.5q-19 0 -33 14t-14 33zM147 797q0 20 14 34t34 14t34 -14t14 -34t-14 -33.5t-34 -13.5t-34 13.5t-14 33.5z" />
    <glyph glyph-name="Eth" unicode="&#xd0;" horiz-adv-x="717" 
d="M50 320v60h55v320h205q158 0 255 -96t97 -254q0 -159 -97 -254.5t-255 -95.5h-205v320h-55zM582 350q0 127 -75 204.5t-197 77.5h-125v-252h160v-60h-160v-253h125q122 0 197 77.5t75 205.5z" />
    <glyph glyph-name="Ntilde" unicode="&#xd1;" horiz-adv-x="722" 
d="M80 700h52l433 -553v553h77v-700h-52l-433 553v-553h-77v700zM265 763h-43q0 39 23.5 63.5t60.5 24.5q32 0 60.5 -24t47.5 -24q18 0 30 12.5t12 31.5h43q0 -40 -23.5 -64t-61.5 -24q-32 0 -60 24t-47 24q-18 0 -30 -12t-12 -32z" />
    <glyph glyph-name="Ograve" unicode="&#xd2;" horiz-adv-x="806" 
d="M54 350q0 159 96.5 258t252.5 99t252.5 -99t96.5 -258q0 -160 -96.5 -259t-252.5 -99t-252.5 99t-96.5 259zM134 350q0 -128 75 -208t194 -80q120 0 194.5 80t74.5 208t-74.5 207.5t-194.5 79.5q-119 0 -194 -80t-75 -207zM340 901l126 -126l-39 -39l-126 126z" />
    <glyph glyph-name="Oacute" unicode="&#xd3;" horiz-adv-x="806" 
d="M54 350q0 159 96.5 258t252.5 99t252.5 -99t96.5 -258q0 -160 -96.5 -259t-252.5 -99t-252.5 99t-96.5 259zM134 350q0 -128 75 -208t194 -80q120 0 194.5 80t74.5 208t-74.5 207.5t-194.5 79.5q-119 0 -194 -80t-75 -207zM340 775l126 126l39 -39l-126 -126z" />
    <glyph glyph-name="Ocircumflex" unicode="&#xd4;" horiz-adv-x="806" 
d="M54 350q0 159 96.5 258t252.5 99t252.5 -99t96.5 -258q0 -160 -96.5 -259t-252.5 -99t-252.5 99t-96.5 259zM134 350q0 -128 75 -208t194 -80q120 0 194.5 80t74.5 208t-74.5 207.5t-194.5 79.5q-119 0 -194 -80t-75 -207zM403 901l126 -126l-39 -39l-87 87l-87 -87
l-39 39z" />
    <glyph glyph-name="Otilde" unicode="&#xd5;" horiz-adv-x="806" 
d="M54 350q0 159 96.5 258t252.5 99t252.5 -99t96.5 -258q0 -160 -96.5 -259t-252.5 -99t-252.5 99t-96.5 259zM134 350q0 -128 75 -208t194 -80q120 0 194.5 80t74.5 208t-74.5 207.5t-194.5 79.5q-119 0 -194 -80t-75 -207zM307 763h-43q0 39 23.5 63.5t60.5 24.5
q32 0 60 -24t48 -24q18 0 30 12.5t12 31.5h43q0 -40 -23.5 -64t-61.5 -24q-32 0 -60 24t-47 24q-18 0 -30 -12t-12 -32z" />
    <glyph glyph-name="Odieresis" unicode="&#xd6;" horiz-adv-x="806" 
d="M54 350q0 159 96.5 258t252.5 99t252.5 -99t96.5 -258q0 -160 -96.5 -259t-252.5 -99t-252.5 99t-96.5 259zM134 350q0 -128 75 -208t194 -80q120 0 194.5 80t74.5 208t-74.5 207.5t-194.5 79.5q-119 0 -194 -80t-75 -207zM262 797q0 20 13.5 34t33.5 14t34 -14t14 -34
t-14 -33.5t-34 -13.5q-19 0 -33 14t-14 33zM449 797q0 20 14 34t34 14t34 -14t14 -34t-14 -33.5t-34 -13.5t-34 13.5t-14 33.5z" />
    <glyph glyph-name="multiply" unicode="&#xd7;" horiz-adv-x="435" 
d="M100 130l-43 42l118 118l-118 117l43 43l117 -118l118 118l42 -43l-117 -117l117 -118l-42 -42l-118 117z" />
    <glyph glyph-name="Oslash" unicode="&#xd8;" horiz-adv-x="806" 
d="M56 -8l89 104q-91 99 -91 254q0 159 96.5 258t252.5 99q122 0 211 -64l55 64h81l-90 -105q92 -98 92 -252q0 -160 -96.5 -259t-252.5 -99q-124 0 -212 63l-54 -63h-81zM134 350q0 -116 62 -194l369 430q-69 51 -162 51q-119 0 -194 -80t-75 -207zM672 350q0 114 -63 193
l-368 -430q68 -51 162 -51q120 0 194.5 80t74.5 208z" />
    <glyph glyph-name="Ugrave" unicode="&#xd9;" horiz-adv-x="682" 
d="M524 255v445h78v-445q0 -118 -72.5 -190.5t-189.5 -72.5t-188.5 72.5t-71.5 190.5v445h77v-445q0 -86 51 -139.5t132 -53.5q82 0 133 53.5t51 139.5zM277 901l126 -126l-39 -39l-126 126z" />
    <glyph glyph-name="Uacute" unicode="&#xda;" horiz-adv-x="682" 
d="M524 255v445h78v-445q0 -118 -72.5 -190.5t-189.5 -72.5t-188.5 72.5t-71.5 190.5v445h77v-445q0 -86 51 -139.5t132 -53.5q82 0 133 53.5t51 139.5zM278 775l126 126l39 -39l-126 -126z" />
    <glyph glyph-name="Ucircumflex" unicode="&#xdb;" horiz-adv-x="682" 
d="M524 255v445h78v-445q0 -118 -72.5 -190.5t-189.5 -72.5t-188.5 72.5t-71.5 190.5v445h77v-445q0 -86 51 -139.5t132 -53.5q82 0 133 53.5t51 139.5zM341 901l126 -126l-39 -39l-87 87l-87 -87l-39 39z" />
    <glyph glyph-name="Udieresis" unicode="&#xdc;" horiz-adv-x="682" 
d="M524 255v445h78v-445q0 -118 -72.5 -190.5t-189.5 -72.5t-188.5 72.5t-71.5 190.5v445h77v-445q0 -86 51 -139.5t132 -53.5q82 0 133 53.5t51 139.5zM199 797q0 20 13.5 34t33.5 14t34 -14t14 -34t-14 -33.5t-34 -13.5t-33.5 14t-13.5 33zM386 797q0 20 14 34t34 14
t34 -14t14 -34t-14 -33.5t-34 -13.5t-34 13.5t-14 33.5z" />
    <glyph glyph-name="Yacute" unicode="&#xdd;" horiz-adv-x="677" 
d="M299 0v301l-267 399h90l216 -322l216 322h90l-267 -400v-300h-78zM276 775l126 126l39 -39l-126 -126z" />
    <glyph glyph-name="Thorn" unicode="&#xde;" horiz-adv-x="529" 
d="M80 0v700h80v-145h110q92 0 148 -53.5t56 -143.5q0 -89 -56 -142.5t-148 -53.5h-110v-162h-80zM394 358q0 58 -34 93.5t-90 35.5h-110v-257h110q56 0 90 35t34 93z" />
    <glyph glyph-name="germandbls" unicode="&#xdf;" horiz-adv-x="600" 
d="M150 570v-570h-78v570q0 83 55 135t143 52t143 -52t55 -135q0 -64 -33.5 -110.5t-89.5 -62.5q0 -39 21.5 -65t52 -41t61 -31t52 -47.5t21.5 -79.5q0 -57 -39.5 -99t-110.5 -42q-92 0 -148 61l46 46q38 -43 97 -43q40 0 60 23t20 50q0 31 -21.5 52t-52 35.5t-61 32.5
t-52 53t-21.5 86v62q53 0 86.5 33t33.5 86t-33.5 87t-86.5 34t-86.5 -33.5t-33.5 -86.5z" />
    <glyph glyph-name="agrave" unicode="&#xe0;" horiz-adv-x="453" 
d="M418 49v-50q-12 -5 -32 -5q-64 0 -83 51q-55 -53 -129 -53q-63 0 -97 37.5t-34 92.5q0 68 50.5 104t134.5 36q19 0 36 -2t24 -4l8 -1v60q0 33 -23 56.5t-71 23.5q-67 0 -103 -36l-39 39q59 59 148 59q79 0 121 -40.5t42 -101.5v-227q0 -39 47 -39zM196 55q59 0 100 42
v105q-23 7 -62 7q-116 0 -116 -79q0 -31 19 -53t59 -22zM145 676l126 -126l-39 -39l-126 126z" />
    <glyph glyph-name="aacute" unicode="&#xe1;" horiz-adv-x="453" 
d="M418 49v-50q-12 -5 -32 -5q-64 0 -83 51q-55 -53 -129 -53q-63 0 -97 37.5t-34 92.5q0 68 50.5 104t134.5 36q19 0 36 -2t24 -4l8 -1v60q0 33 -23 56.5t-71 23.5q-67 0 -103 -36l-39 39q59 59 148 59q79 0 121 -40.5t42 -101.5v-227q0 -39 47 -39zM196 55q59 0 100 42
v105q-23 7 -62 7q-116 0 -116 -79q0 -31 19 -53t59 -22zM149 550l126 126l39 -39l-126 -126z" />
    <glyph glyph-name="acircumflex" unicode="&#xe2;" horiz-adv-x="453" 
d="M418 49v-50q-12 -5 -32 -5q-64 0 -83 51q-55 -53 -129 -53q-63 0 -97 37.5t-34 92.5q0 68 50.5 104t134.5 36q19 0 36 -2t24 -4l8 -1v60q0 33 -23 56.5t-71 23.5q-67 0 -103 -36l-39 39q59 59 148 59q79 0 121 -40.5t42 -101.5v-227q0 -39 47 -39zM196 55q59 0 100 42
v105q-23 7 -62 7q-116 0 -116 -79q0 -31 19 -53t59 -22zM214 676l126 -126l-39 -39l-87 87l-87 -87l-39 39z" />
    <glyph glyph-name="atilde" unicode="&#xe3;" horiz-adv-x="453" 
d="M418 49v-50q-12 -5 -32 -5q-64 0 -83 51q-55 -53 -129 -53q-63 0 -97 37.5t-34 92.5q0 68 50.5 104t134.5 36q19 0 36 -2t24 -4l8 -1v60q0 33 -23 56.5t-71 23.5q-67 0 -103 -36l-39 39q59 59 148 59q79 0 121 -40.5t42 -101.5v-227q0 -39 47 -39zM196 55q59 0 100 42
v105q-23 7 -62 7q-116 0 -116 -79q0 -31 19 -53t59 -22zM125 538h-43q0 39 23.5 63.5t60.5 24.5q32 0 60 -24t48 -24q18 0 30 12.5t12 31.5h43q0 -40 -23.5 -64t-61.5 -24q-32 0 -60 24t-47 24q-18 0 -30 -12t-12 -32z" />
    <glyph glyph-name="adieresis" unicode="&#xe4;" horiz-adv-x="453" 
d="M418 49v-50q-12 -5 -32 -5q-64 0 -83 51q-55 -53 -129 -53q-63 0 -97 37.5t-34 92.5q0 68 50.5 104t134.5 36q19 0 36 -2t24 -4l8 -1v60q0 33 -23 56.5t-71 23.5q-67 0 -103 -36l-39 39q59 59 148 59q79 0 121 -40.5t42 -101.5v-227q0 -39 47 -39zM196 55q59 0 100 42
v105q-23 7 -62 7q-116 0 -116 -79q0 -31 19 -53t59 -22zM264 572q0 20 14 34t34 14t34 -14t14 -34t-14 -33.5t-34 -13.5t-34 13.5t-14 33.5zM77 572q0 20 13.5 34t33.5 14t34 -14t14 -34t-14 -33.5t-34 -13.5t-33.5 13.5t-13.5 33.5z" />
    <glyph glyph-name="aring" unicode="&#xe5;" horiz-adv-x="453" 
d="M418 49v-50q-12 -5 -32 -5q-64 0 -83 51q-55 -53 -129 -53q-63 0 -97 37.5t-34 92.5q0 68 50.5 104t134.5 36q19 0 36 -2t24 -4l8 -1v60q0 33 -23 56.5t-71 23.5q-67 0 -103 -36l-39 39q59 59 148 59q79 0 121 -40.5t42 -101.5v-227q0 -39 47 -39zM128 595q0 40 24.5 65
t63.5 25q40 0 64 -24.5t24 -65.5t-24 -65.5t-64 -24.5q-39 0 -63.5 25t-24.5 65zM196 55q59 0 100 42v105q-23 7 -62 7q-116 0 -116 -79q0 -31 19 -53t59 -22zM164 594q0 -24 14.5 -38.5t37.5 -14.5t37.5 14.5t14.5 38.5t-14.5 39t-37.5 15t-37.5 -14.5t-14.5 -39.5z" />
    <glyph glyph-name="ae" unicode="&#xe6;" horiz-adv-x="719" 
d="M296 260v53q0 32 -23 57t-67 25q-27 0 -56 -10.5t-44 -26.5l-42 42q57 57 148 57q79 0 119 -51q56 51 141 51q99 0 152 -66.5t53 -186.5h-306v-92q43 -52 122 -52q76 0 119 46l46 -47q-65 -67 -170 -67q-112 0 -173 69q-56 -69 -141 -69q-63 0 -96 37t-33 87
q0 68 61.5 107t155.5 39q18 0 34 -2zM371 313v-54h230q-6 62 -39.5 97t-88.5 35q-67 0 -105 -49q3 -27 3 -29zM296 102v106q-16 2 -30 2q-64 0 -104.5 -23.5t-40.5 -63.5q0 -26 18 -47t58 -21q58 0 99 47z" />
    <glyph glyph-name="ccedilla" unicode="&#xe7;" horiz-adv-x="477" 
d="M122 225q0 -73 43.5 -119t113.5 -46q73 0 116 46l47 -47q-61 -63 -155 -67v-51q66 -12 66 -77q0 -35 -23 -57t-60 -22t-61 24l26 26q14 -14 35 -14t34 12t13 33q0 46 -65 46v81q-93 8 -150 71t-57 161q0 104 63.5 168t166.5 64q102 0 167 -68l-47 -46q-44 47 -116 47
q-70 0 -113.5 -46t-43.5 -119z" />
    <glyph glyph-name="egrave" unicode="&#xe8;" horiz-adv-x="508" 
d="M465 204h-341q5 -66 47.5 -105t110.5 -39q75 0 119 46l45 -47q-65 -67 -169 -67t-168 64.5t-64 170.5q0 103 59.5 166.5t157.5 63.5q99 0 151 -67.5t52 -185.5zM262 391q-56 0 -93.5 -35.5t-44.5 -96.5h266q-7 62 -40 97t-88 35zM197 676l126 -126l-39 -39l-126 126z" />
    <glyph glyph-name="eacute" unicode="&#xe9;" horiz-adv-x="508" 
d="M465 204h-341q5 -66 47.5 -105t110.5 -39q75 0 119 46l45 -47q-65 -67 -169 -67t-168 64.5t-64 170.5q0 103 59.5 166.5t157.5 63.5q99 0 151 -67.5t52 -185.5zM262 391q-56 0 -93.5 -35.5t-44.5 -96.5h266q-7 62 -40 97t-88 35zM197 550l126 126l39 -39l-126 -126z" />
    <glyph glyph-name="ecircumflex" unicode="&#xea;" horiz-adv-x="508" 
d="M465 204h-341q5 -66 47.5 -105t110.5 -39q75 0 119 46l45 -47q-65 -67 -169 -67t-168 64.5t-64 170.5q0 103 59.5 166.5t157.5 63.5q99 0 151 -67.5t52 -185.5zM262 391q-56 0 -93.5 -35.5t-44.5 -96.5h266q-7 62 -40 97t-88 35zM260 676l126 -126l-39 -39l-87 87
l-87 -87l-39 39z" />
    <glyph glyph-name="edieresis" unicode="&#xeb;" horiz-adv-x="508" 
d="M465 204h-341q5 -66 47.5 -105t110.5 -39q75 0 119 46l45 -47q-65 -67 -169 -67t-168 64.5t-64 170.5q0 103 59.5 166.5t157.5 63.5q99 0 151 -67.5t52 -185.5zM262 391q-56 0 -93.5 -35.5t-44.5 -96.5h266q-7 62 -40 97t-88 35zM119 572q0 20 13.5 34t33.5 14t34 -14
t14 -34t-14 -33.5t-34 -13.5t-33.5 13.5t-13.5 33.5zM306 572q0 20 14 34t34 14t34 -14t14 -34t-14 -33.5t-34 -13.5t-34 13.5t-14 33.5z" />
    <glyph glyph-name="igrave" unicode="&#xec;" 
d="M46 676l126 -126l-39 -39l-126 126zM72 0v450h75v-450h-75z" />
    <glyph glyph-name="iacute" unicode="&#xed;" 
d="M47 550l126 126l39 -39l-126 -126zM72 0v450h75v-450h-75z" />
    <glyph glyph-name="icircumflex" unicode="&#xee;" 
d="M72 0v450h75v-450h-75zM110 676l126 -126l-39 -39l-87 87l-87 -87l-39 39z" />
    <glyph glyph-name="idieresis" unicode="&#xef;" 
d="M72 0v450h75v-450h-75zM-14 572q0 20 13.5 34t33.5 14t34 -14t14 -34t-14 -33.5t-34 -13.5q-19 0 -33 13.5t-14 33.5zM138 572q0 20 14 34t34 14t34 -14t14 -34t-14 -33.5t-34 -13.5t-34 13.5t-14 33.5z" />
    <glyph glyph-name="eth" unicode="&#xf0;" horiz-adv-x="555" 
d="M167 536l-30 52l86 49l-63 83l67 37l62 -82l92 52l30 -51l-85 -49q106 -158 145 -236.5t39 -158.5q0 -110 -64 -175t-168 -65q-105 0 -169 64.5t-64 169.5q0 103 65 167t166 64q48 0 85 -21q-43 72 -100 154zM432 225q0 73 -43 119t-112 46t-112 -46t-43 -119t43 -119
t112 -46t112 46t43 119z" />
    <glyph glyph-name="ntilde" unicode="&#xf1;" horiz-adv-x="520" 
d="M72 450h75v-38q54 45 132 45q76 0 122.5 -51t46.5 -134v-272h-75v272q0 53 -31 85.5t-81 32.5q-71 0 -114 -45v-345h-75v450zM159 538h-43q0 39 23.5 63.5t60.5 24.5q32 0 60 -24t48 -24q18 0 30 12.5t12 31.5h43q0 -40 -23.5 -64t-61.5 -24q-32 0 -60 24t-47 24
q-18 0 -30 -12t-12 -32z" />
    <glyph glyph-name="ograve" unicode="&#xf2;" horiz-adv-x="549" 
d="M44 225q0 104 63.5 168t166.5 64t167 -64.5t64 -167.5q0 -104 -64 -168.5t-167 -64.5t-166.5 64.5t-63.5 168.5zM121 225q0 -74 42.5 -119.5t110.5 -45.5t110.5 46t42.5 119t-42.5 119t-110.5 46t-110.5 -45.5t-42.5 -119.5zM211 676l126 -126l-39 -39l-126 126z" />
    <glyph glyph-name="oacute" unicode="&#xf3;" horiz-adv-x="549" 
d="M44 225q0 104 63.5 168t166.5 64t167 -64.5t64 -167.5q0 -104 -64 -168.5t-167 -64.5t-166.5 64.5t-63.5 168.5zM121 225q0 -74 42.5 -119.5t110.5 -45.5t110.5 46t42.5 119t-42.5 119t-110.5 46t-110.5 -45.5t-42.5 -119.5zM212 550l126 126l39 -39l-126 -126z" />
    <glyph glyph-name="ocircumflex" unicode="&#xf4;" horiz-adv-x="549" 
d="M44 225q0 104 63.5 168t166.5 64t167 -64.5t64 -167.5q0 -104 -64 -168.5t-167 -64.5t-166.5 64.5t-63.5 168.5zM121 225q0 -74 42.5 -119.5t110.5 -45.5t110.5 46t42.5 119t-42.5 119t-110.5 46t-110.5 -45.5t-42.5 -119.5zM274 676l126 -126l-39 -39l-87 87l-87 -87
l-39 39z" />
    <glyph glyph-name="otilde" unicode="&#xf5;" horiz-adv-x="549" 
d="M44 225q0 104 63.5 168t166.5 64t167 -64.5t64 -167.5q0 -104 -64 -168.5t-167 -64.5t-166.5 64.5t-63.5 168.5zM121 225q0 -74 42.5 -119.5t110.5 -45.5t110.5 46t42.5 119t-42.5 119t-110.5 46t-110.5 -45.5t-42.5 -119.5zM178 538h-43q0 39 23.5 63.5t60.5 24.5
q31 0 60 -24t48 -24q18 0 30 12.5t12 31.5h43q0 -40 -23.5 -64t-61.5 -24q-32 0 -60 24t-47 24q-18 0 -30 -12t-12 -32z" />
    <glyph glyph-name="odieresis" unicode="&#xf6;" horiz-adv-x="549" 
d="M44 225q0 104 63.5 168t166.5 64t167 -64.5t64 -167.5q0 -104 -64 -168.5t-167 -64.5t-166.5 64.5t-63.5 168.5zM121 225q0 -74 42.5 -119.5t110.5 -45.5t110.5 46t42.5 119t-42.5 119t-110.5 46t-110.5 -45.5t-42.5 -119.5zM133 572q0 20 13.5 34t33.5 14t34 -14t14 -34
t-14 -33.5t-34 -13.5t-33.5 13.5t-13.5 33.5zM320 572q0 20 14 34t34 14t34 -14t14 -34t-14 -33.5t-34 -13.5t-34 13.5t-14 33.5z" />
    <glyph glyph-name="divide" unicode="&#xf7;" horiz-adv-x="500" 
d="M60 237v60h380v-60h-380zM203 102q0 19 13.5 32.5t33.5 13.5t33 -13t13 -33t-13 -33t-33 -13t-33.5 13.5t-13.5 32.5zM203 432q0 19 13.5 32.5t33.5 13.5t33 -13t13 -33t-13 -33t-33 -13t-33.5 13.5t-13.5 32.5z" />
    <glyph glyph-name="oslash" unicode="&#xf8;" horiz-adv-x="549" 
d="M51 -8l53 68q-60 63 -60 165q0 104 63.5 168t166.5 64q64 0 119 -29l27 34h77l-55 -70q63 -65 63 -167q0 -104 -64 -168.5t-167 -64.5q-70 0 -122 30l-23 -30h-78zM432 225q0 64 -34 111l-204 -261q35 -20 80 -20q70 0 114 47t44 123zM116 225q0 -66 32 -109l204 260
q-35 19 -78 19q-70 0 -114 -47t-44 -123z" />
    <glyph glyph-name="ugrave" unicode="&#xf9;" horiz-adv-x="530" 
d="M458 450v-265q0 -86 -53.5 -139.5t-139.5 -53.5t-139.5 53.5t-53.5 139.5v265h78v-265q0 -56 32.5 -90.5t84.5 -34.5t84.5 35t32.5 90v265h74zM201 676l126 -126l-39 -39l-126 126z" />
    <glyph glyph-name="uacute" unicode="&#xfa;" horiz-adv-x="530" 
d="M458 450v-265q0 -86 -53.5 -139.5t-139.5 -53.5t-139.5 53.5t-53.5 139.5v265h78v-265q0 -56 32.5 -90.5t84.5 -34.5t84.5 35t32.5 90v265h74zM202 550l126 126l39 -39l-126 -126z" />
    <glyph glyph-name="ucircumflex" unicode="&#xfb;" horiz-adv-x="530" 
d="M458 450v-265q0 -86 -53.5 -139.5t-139.5 -53.5t-139.5 53.5t-53.5 139.5v265h78v-265q0 -56 32.5 -90.5t84.5 -34.5t84.5 35t32.5 90v265h74zM265 676l126 -126l-39 -39l-87 87l-87 -87l-39 39z" />
    <glyph glyph-name="udieresis" unicode="&#xfc;" horiz-adv-x="530" 
d="M458 450v-265q0 -86 -53.5 -139.5t-139.5 -53.5t-139.5 53.5t-53.5 139.5v265h78v-265q0 -56 32.5 -90.5t84.5 -34.5t84.5 35t32.5 90v265h74zM123 572q0 20 13.5 34t33.5 14t34 -14t14 -34t-14 -33.5t-34 -13.5t-33.5 13.5t-13.5 33.5zM310 572q0 20 14 34t34 14t34 -14
t14 -34t-14 -33.5t-34 -13.5t-34 13.5t-14 33.5z" />
    <glyph glyph-name="yacute" unicode="&#xfd;" horiz-adv-x="493" 
d="M477 450l-308 -700h-83l125 250l-196 450h84l147 -360l148 360h83zM183 550l126 126l39 -39l-126 -126z" />
    <glyph glyph-name="thorn" unicode="&#xfe;" horiz-adv-x="541" 
d="M72 750h75v-338q54 45 133 45q97 0 156.5 -64t59.5 -168t-63 -168.5t-165 -64.5q-69 0 -121 32v-274h-75v1000zM418 225q0 73 -43.5 119t-113.5 46q-71 0 -114 -45v-243q42 -42 114 -42q70 0 113.5 46t43.5 119z" />
    <glyph glyph-name="ydieresis" unicode="&#xff;" horiz-adv-x="493" 
d="M477 450l-308 -700h-83l125 250l-196 450h84l147 -360l148 360h83zM105 572q0 20 13.5 34t33.5 14t34 -14t14 -34t-14 -33.5t-34 -13.5t-33.5 13.5t-13.5 33.5zM292 572q0 20 14 34t34 14t34 -14t14 -34t-14 -33.5t-34 -13.5t-34 13.5t-14 33.5z" />
    <glyph glyph-name="Amacron" unicode="&#x100;" horiz-adv-x="731" 
d="M611 0l-83 200h-326l-82 -200h-90l299 700h73l298 -700h-89zM366 601l-136 -331h270zM243 767v48h245v-48h-245z" />
    <glyph glyph-name="amacron" unicode="&#x101;" horiz-adv-x="453" 
d="M418 49v-50q-12 -5 -32 -5q-64 0 -83 51q-55 -53 -129 -53q-63 0 -97 37.5t-34 92.5q0 68 50.5 104t134.5 36q19 0 36 -2t24 -4l8 -1v60q0 33 -23 56.5t-71 23.5q-67 0 -103 -36l-39 39q59 59 148 59q79 0 121 -40.5t42 -101.5v-227q0 -39 47 -39zM196 55q59 0 100 42
v105q-23 7 -62 7q-116 0 -116 -79q0 -31 19 -53t59 -22zM91 542v48h245v-48h-245z" />
    <glyph glyph-name="Abreve" unicode="&#x102;" horiz-adv-x="731" 
d="M611 0l-83 200h-326l-82 -200h-90l299 700h73l298 -700h-89zM366 601l-136 -331h270zM365 807q62 0 102 42l39 -39q-57 -59 -141 -59q-83 0 -141 60l39 39q41 -43 102 -43z" />
    <glyph glyph-name="abreve" unicode="&#x103;" horiz-adv-x="453" 
d="M418 49v-50q-12 -5 -32 -5q-64 0 -83 51q-55 -53 -129 -53q-63 0 -97 37.5t-34 92.5q0 68 50.5 104t134.5 36q19 0 36 -2t24 -4l8 -1v60q0 33 -23 56.5t-71 23.5q-67 0 -103 -36l-39 39q59 59 148 59q79 0 121 -40.5t42 -101.5v-227q0 -39 47 -39zM196 55q59 0 100 42
v105q-23 7 -62 7q-116 0 -116 -79q0 -31 19 -53t59 -22zM216 582q62 0 102 42l39 -39q-57 -59 -141 -59q-83 0 -141 60l39 39q41 -43 102 -43z" />
    <glyph glyph-name="Aogonek" unicode="&#x104;" horiz-adv-x="731" 
d="M637 -39q0 -27 15.5 -42t39.5 -15q25 0 40 15l28 -27q-26 -27 -68 -27t-68 26.5t-26 69.5q0 22 10 39h3l-83 200h-326l-82 -200h-90l299 700h73l298 -700h-53q-10 -17 -10 -39zM366 601l-136 -331h270z" />
    <glyph glyph-name="aogonek" unicode="&#x105;" horiz-adv-x="453" 
d="M383 -39q0 -27 15.5 -42t39.5 -15q25 0 40 15l28 -27q-26 -27 -68 -27t-68 26.5t-26 69.5q0 20 9 38q-36 11 -50 46q-55 -53 -129 -53q-63 0 -97 37.5t-34 92.5q0 68 50.5 104t134.5 36q19 0 36 -2t24 -4l8 -1v60q0 33 -23 56.5t-71 23.5q-67 0 -103 -36l-39 39
q59 59 148 59q79 0 121 -40.5t42 -101.5v-227q0 -39 47 -39v-50q-12 -3 -29 -5q-6 -14 -6 -33zM196 55q59 0 100 42v105q-23 7 -62 7q-116 0 -116 -79q0 -31 19 -53t59 -22z" />
    <glyph glyph-name="Cacute" unicode="&#x106;" horiz-adv-x="709" 
d="M135 350q0 -128 76.5 -208t199.5 -80q126 0 203 80l50 -49q-98 -101 -257 -101q-157 0 -254.5 99t-97.5 259q0 159 97.5 258t254.5 99q159 0 257 -101l-50 -50q-78 81 -203 81q-123 0 -199.5 -79.5t-76.5 -207.5zM323 780l126 126l39 -39l-126 -126z" />
    <glyph glyph-name="cacute" unicode="&#x107;" horiz-adv-x="477" 
d="M122 225q0 -73 43.5 -119t113.5 -46q73 0 116 46l47 -47q-65 -67 -167 -67q-103 0 -166.5 64.5t-63.5 168.5t63.5 168t166.5 64q102 0 167 -68l-47 -46q-44 47 -116 47q-70 0 -113.5 -46t-43.5 -119zM203 550l126 126l39 -39l-126 -126z" />
    <glyph glyph-name="Ccircumflex" unicode="&#x108;" horiz-adv-x="709" 
d="M135 350q0 -128 76.5 -208t199.5 -80q126 0 203 80l50 -49q-98 -101 -257 -101q-157 0 -254.5 99t-97.5 259q0 159 97.5 258t254.5 99q159 0 257 -101l-50 -50q-78 81 -203 81q-123 0 -199.5 -79.5t-76.5 -207.5zM387 901l126 -126l-39 -39l-87 87l-87 -87l-39 39z" />
    <glyph glyph-name="ccircumflex" unicode="&#x109;" horiz-adv-x="477" 
d="M122 225q0 -73 43.5 -119t113.5 -46q73 0 116 46l47 -47q-65 -67 -167 -67q-103 0 -166.5 64.5t-63.5 168.5t63.5 168t166.5 64q102 0 167 -68l-47 -46q-44 47 -116 47q-70 0 -113.5 -46t-43.5 -119zM265 676l126 -126l-39 -39l-87 87l-87 -87l-39 39z" />
    <glyph glyph-name="Cdotaccent" unicode="&#x10a;" horiz-adv-x="709" 
d="M135 350q0 -128 76.5 -208t199.5 -80q126 0 203 80l50 -49q-98 -101 -257 -101q-157 0 -254.5 99t-97.5 259q0 159 97.5 258t254.5 99q159 0 257 -101l-50 -50q-78 81 -203 81q-123 0 -199.5 -79.5t-76.5 -207.5zM337 810q0 21 14.5 35.5t35.5 14.5t35.5 -14.5
t14.5 -35.5t-14.5 -35.5t-35.5 -14.5t-35.5 14.5t-14.5 35.5z" />
    <glyph glyph-name="cdotaccent" unicode="&#x10b;" horiz-adv-x="477" 
d="M122 225q0 -73 43.5 -119t113.5 -46q73 0 116 46l47 -47q-65 -67 -167 -67q-103 0 -166.5 64.5t-63.5 168.5t63.5 168t166.5 64q102 0 167 -68l-47 -46q-44 47 -116 47q-70 0 -113.5 -46t-43.5 -119zM213 585q0 21 14.5 35.5t35.5 14.5t35.5 -14.5t14.5 -35.5
t-14.5 -35.5t-35.5 -14.5t-35.5 14.5t-14.5 35.5z" />
    <glyph glyph-name="Ccaron" unicode="&#x10c;" horiz-adv-x="709" 
d="M135 350q0 -128 76.5 -208t199.5 -80q126 0 203 80l50 -49q-98 -101 -257 -101q-157 0 -254.5 99t-97.5 259q0 159 97.5 258t254.5 99q159 0 257 -101l-50 -50q-78 81 -203 81q-123 0 -199.5 -79.5t-76.5 -207.5zM385 736l-126 126l39 39l87 -87l87 87l39 -39z" />
    <glyph glyph-name="ccaron" unicode="&#x10d;" horiz-adv-x="477" 
d="M122 225q0 -73 43.5 -119t113.5 -46q73 0 116 46l47 -47q-65 -67 -167 -67q-103 0 -166.5 64.5t-63.5 168.5t63.5 168t166.5 64q102 0 167 -68l-47 -46q-44 47 -116 47q-70 0 -113.5 -46t-43.5 -119zM264 511l-126 126l39 39l87 -87l87 87l39 -39z" />
    <glyph glyph-name="Dcaron" unicode="&#x10e;" horiz-adv-x="702" 
d="M80 0v700h215q158 0 255 -96t97 -254q0 -159 -97 -254.5t-255 -95.5h-215zM567 350q0 127 -75 204.5t-197 77.5h-135v-565h135q122 0 197 77.5t75 205.5zM341 736l-126 126l39 39l87 -87l87 87l39 -39z" />
    <glyph glyph-name="dcaron" unicode="&#x10f;" horiz-adv-x="658" 
d="M468 0h-75v36q-57 -44 -132 -44q-97 0 -156.5 64.5t-59.5 168.5t63 168t165 64q66 0 120 -32v325h75v-750zM122 225q0 -73 43.5 -119t113.5 -46q71 0 114 43v244q-43 43 -114 43q-70 0 -113.5 -46t-43.5 -119zM582 558l-26 27q39 41 47 73q-18 3 -30 16.5t-12 32.5
q0 21 14.5 35.5t35.5 14.5t35.5 -14t14.5 -44q0 -62 -79 -141z" />
    <glyph glyph-name="Dcroat" unicode="&#x110;" horiz-adv-x="717" 
d="M50 320v60h55v320h205q158 0 255 -96t97 -254q0 -159 -97 -254.5t-255 -95.5h-205v320h-55zM582 350q0 127 -75 204.5t-197 77.5h-125v-252h160v-60h-160v-253h125q122 0 197 77.5t75 205.5z" />
    <glyph glyph-name="dcroat" unicode="&#x111;" horiz-adv-x="556" 
d="M468 0h-75v37q-54 -45 -132 -45q-97 0 -156.5 64.5t-59.5 168.5t63 168t165 64q70 0 120 -35v155h-132v60h132v113h75v-113h58v-60h-58v-577zM122 225q0 -73 43.5 -119t113.5 -46q73 0 114 44v243q-43 43 -114 43q-70 0 -113.5 -46t-43.5 -119z" />
    <glyph glyph-name="Emacron" unicode="&#x112;" horiz-adv-x="507" 
d="M157 635v-250h260v-65h-260v-255h298v-65h-375v700h370v-65h-293zM143 767v48h245v-48h-245z" />
    <glyph glyph-name="emacron" unicode="&#x113;" horiz-adv-x="508" 
d="M465 204h-341q5 -66 47.5 -105t110.5 -39q75 0 119 46l45 -47q-65 -67 -169 -67t-168 64.5t-64 170.5q0 103 59.5 166.5t157.5 63.5q99 0 151 -67.5t52 -185.5zM262 391q-56 0 -93.5 -35.5t-44.5 -96.5h266q-7 62 -40 97t-88 35zM137 542v48h245v-48h-245z" />
    <glyph glyph-name="Ebreve" unicode="&#x114;" horiz-adv-x="507" 
d="M157 635v-250h260v-65h-260v-255h298v-65h-375v700h370v-65h-293zM266 807q62 0 102 42l39 -39q-57 -59 -141 -59q-83 0 -141 60l39 39q41 -43 102 -43z" />
    <glyph glyph-name="ebreve" unicode="&#x115;" horiz-adv-x="508" 
d="M465 204h-341q5 -66 47.5 -105t110.5 -39q75 0 119 46l45 -47q-65 -67 -169 -67t-168 64.5t-64 170.5q0 103 59.5 166.5t157.5 63.5q99 0 151 -67.5t52 -185.5zM262 391q-56 0 -93.5 -35.5t-44.5 -96.5h266q-7 62 -40 97t-88 35zM260 582q62 0 102 42l39 -39
q-57 -59 -141 -59q-83 0 -141 60l39 39q41 -43 102 -43z" />
    <glyph glyph-name="Edotaccent" unicode="&#x116;" horiz-adv-x="507" 
d="M157 635v-250h260v-65h-260v-255h298v-65h-375v700h370v-65h-293zM216 810q0 21 14.5 35.5t35.5 14.5t35.5 -14.5t14.5 -35.5t-14.5 -35.5t-35.5 -14.5t-35.5 14.5t-14.5 35.5z" />
    <glyph glyph-name="edotaccent" unicode="&#x117;" horiz-adv-x="508" 
d="M465 204h-341q5 -66 47.5 -105t110.5 -39q75 0 119 46l45 -47q-65 -67 -169 -67t-168 64.5t-64 170.5q0 103 59.5 166.5t157.5 63.5q99 0 151 -67.5t52 -185.5zM262 391q-56 0 -93.5 -35.5t-44.5 -96.5h266q-7 62 -40 97t-88 35zM211 585q0 21 14.5 35.5t35.5 14.5
t35.5 -14.5t14.5 -35.5t-14.5 -35.5t-35.5 -14.5t-35.5 14.5t-14.5 35.5z" />
    <glyph glyph-name="Eogonek" unicode="&#x118;" horiz-adv-x="507" 
d="M343 -39q0 -27 15.5 -42t39.5 -15q25 0 40 15l28 -27q-25 -27 -68 -27q-42 0 -68 26.5t-26 69.5q0 22 10 39h-234v700h370v-65h-293v-250h260v-65h-260v-255h298v-65h-102q-10 -17 -10 -39z" />
    <glyph glyph-name="eogonek" unicode="&#x119;" horiz-adv-x="508" 
d="M328 -39q0 -27 15 -42t40 -15t40 15l28 -27q-26 -27 -68 -27t-68 26.5t-26 69.5q0 17 6 32q-6 -1 -18 -1q-104 0 -168 64.5t-64 170.5q0 103 59.5 166.5t157.5 63.5q99 0 151 -67.5t52 -185.5h-341q5 -66 47.5 -105t110.5 -39q75 0 119 46l45 -47q-45 -47 -109 -60
q-9 -15 -9 -38zM262 391q-56 0 -93.5 -35.5t-44.5 -96.5h266q-7 62 -40 97t-88 35z" />
    <glyph glyph-name="Ecaron" unicode="&#x11a;" horiz-adv-x="507" 
d="M157 635v-250h260v-65h-260v-255h298v-65h-375v700h370v-65h-293zM266 736l-126 126l39 39l87 -87l87 87l39 -39z" />
    <glyph glyph-name="ecaron" unicode="&#x11b;" horiz-adv-x="508" 
d="M465 204h-341q5 -66 47.5 -105t110.5 -39q75 0 119 46l45 -47q-65 -67 -169 -67t-168 64.5t-64 170.5q0 103 59.5 166.5t157.5 63.5q99 0 151 -67.5t52 -185.5zM262 391q-56 0 -93.5 -35.5t-44.5 -96.5h266q-7 62 -40 97t-88 35zM260 511l-126 126l39 39l87 -87l87 87
l39 -39z" />
    <glyph glyph-name="Gcircumflex" unicode="&#x11c;" horiz-adv-x="744" 
d="M407 305v65h257v-277q-98 -101 -257 -101q-157 0 -254.5 99t-97.5 259q0 159 97.5 258t254.5 99q159 0 257 -101l-50 -50q-78 81 -203 81q-123 0 -199.5 -79.5t-76.5 -207.5t76.5 -208t199.5 -80q105 0 175 59v184h-179zM406 901l126 -126l-39 -39l-87 87l-87 -87l-39 39
z" />
    <glyph glyph-name="gcircumflex" unicode="&#x11d;" horiz-adv-x="495" 
d="M22 -118q0 43 27.5 75t75.5 48q-58 25 -58 75q0 52 63 76q-78 40 -78 137q0 74 49.5 119t128.5 45q71 0 120 -38q35 38 84 38q8 0 26 -2v-60q-12 2 -20 2q-30 0 -55 -18q22 -38 22 -84q0 -73 -49.5 -118t-129.5 -45q-42 0 -65 -14t-23 -36t28.5 -36t76.5 -14
q96 0 154 -38t58 -100q0 -67 -65 -109.5t-165 -42.5q-93 0 -149 39t-56 101zM100 -118q0 -37 34 -59t93 -22q65 0 109 26t44 66q0 36 -37.5 58t-97.5 22q-66 0 -105.5 -25t-39.5 -66zM127 295q0 -46 29 -74.5t75 -28.5t74.5 28.5t28.5 74.5q0 45 -28.5 73.5t-74.5 28.5
t-75 -28.5t-29 -73.5zM229 676l126 -126l-39 -39l-87 87l-87 -87l-39 39z" />
    <glyph glyph-name="Gbreve" unicode="&#x11e;" horiz-adv-x="744" 
d="M407 305v65h257v-277q-98 -101 -257 -101q-157 0 -254.5 99t-97.5 259q0 159 97.5 258t254.5 99q159 0 257 -101l-50 -50q-78 81 -203 81q-123 0 -199.5 -79.5t-76.5 -207.5t76.5 -208t199.5 -80q105 0 175 59v184h-179zM406 807q62 0 102 42l39 -39q-57 -59 -141 -59
q-83 0 -141 60l39 39q41 -43 102 -43z" />
    <glyph glyph-name="gbreve" unicode="&#x11f;" horiz-adv-x="495" 
d="M22 -118q0 43 27.5 75t75.5 48q-58 25 -58 75q0 52 63 76q-78 40 -78 137q0 74 49.5 119t128.5 45q71 0 120 -38q35 38 84 38q8 0 26 -2v-60q-12 2 -20 2q-30 0 -55 -18q22 -38 22 -84q0 -73 -49.5 -118t-129.5 -45q-42 0 -65 -14t-23 -36t28.5 -36t76.5 -14
q96 0 154 -38t58 -100q0 -67 -65 -109.5t-165 -42.5q-93 0 -149 39t-56 101zM100 -118q0 -37 34 -59t93 -22q65 0 109 26t44 66q0 36 -37.5 58t-97.5 22q-66 0 -105.5 -25t-39.5 -66zM127 295q0 -46 29 -74.5t75 -28.5t74.5 28.5t28.5 74.5q0 45 -28.5 73.5t-74.5 28.5
t-75 -28.5t-29 -73.5zM230 582q62 0 102 42l39 -39q-57 -59 -141 -59q-83 0 -141 60l39 39q41 -43 102 -43z" />
    <glyph glyph-name="Gdotaccent" unicode="&#x120;" horiz-adv-x="744" 
d="M407 305v65h257v-277q-98 -101 -257 -101q-157 0 -254.5 99t-97.5 259q0 159 97.5 258t254.5 99q159 0 257 -101l-50 -50q-78 81 -203 81q-123 0 -199.5 -79.5t-76.5 -207.5t76.5 -208t199.5 -80q105 0 175 59v184h-179zM356 810q0 21 14.5 35.5t35.5 14.5t35.5 -14.5
t14.5 -35.5t-14.5 -35.5t-35.5 -14.5t-35.5 14.5t-14.5 35.5z" />
    <glyph glyph-name="gdotaccent" unicode="&#x121;" horiz-adv-x="495" 
d="M22 -118q0 43 27.5 75t75.5 48q-58 25 -58 75q0 52 63 76q-78 40 -78 137q0 74 49.5 119t128.5 45q71 0 120 -38q35 38 84 38q8 0 26 -2v-60q-12 2 -20 2q-30 0 -55 -18q22 -38 22 -84q0 -73 -49.5 -118t-129.5 -45q-42 0 -65 -14t-23 -36t28.5 -36t76.5 -14
q96 0 154 -38t58 -100q0 -67 -65 -109.5t-165 -42.5q-93 0 -149 39t-56 101zM100 -118q0 -37 34 -59t93 -22q65 0 109 26t44 66q0 36 -37.5 58t-97.5 22q-66 0 -105.5 -25t-39.5 -66zM127 295q0 -46 29 -74.5t75 -28.5t74.5 28.5t28.5 74.5q0 45 -28.5 73.5t-74.5 28.5
t-75 -28.5t-29 -73.5zM178 585q0 21 14.5 35.5t35.5 14.5t35.5 -14.5t14.5 -35.5t-14.5 -35.5t-35.5 -14.5t-35.5 14.5t-14.5 35.5z" />
    <glyph glyph-name="Gcommaaccent" unicode="&#x122;" horiz-adv-x="744" 
d="M407 305v65h257v-277q-98 -101 -257 -101q-157 0 -254.5 99t-97.5 259q0 159 97.5 258t254.5 99q159 0 257 -101l-50 -50q-78 81 -203 81q-123 0 -199.5 -79.5t-76.5 -207.5t76.5 -208t199.5 -80q105 0 175 59v184h-179zM374 -219l-23 22q36 38 41 65q-15 2 -25.5 14
t-10.5 28q0 18 12.5 30t30.5 12t30 -12t12 -37q0 -57 -67 -122z" />
    <glyph glyph-name="gcommaaccent" unicode="&#x123;" horiz-adv-x="495" 
d="M22 -118q0 43 27.5 75t75.5 48q-58 25 -58 75q0 52 63 76q-78 40 -78 137q0 74 49.5 119t128.5 45q71 0 120 -38q35 38 84 38q8 0 26 -2v-60q-12 2 -20 2q-30 0 -55 -18q22 -38 22 -84q0 -73 -49.5 -118t-129.5 -45q-42 0 -65 -14t-23 -36t28.5 -36t76.5 -14
q96 0 154 -38t58 -100q0 -67 -65 -109.5t-165 -42.5q-93 0 -149 39t-56 101zM100 -118q0 -37 34 -59t93 -22q65 0 109 26t44 66q0 36 -37.5 58t-97.5 22q-66 0 -105.5 -25t-39.5 -66zM127 295q0 -46 29 -74.5t75 -28.5t74.5 28.5t28.5 74.5q0 45 -28.5 73.5t-74.5 28.5
t-75 -28.5t-29 -73.5zM257 684l23 -22q-36 -38 -41 -65q15 -2 25.5 -14t10.5 -28q0 -18 -12.5 -30t-30.5 -12t-30 12t-12 37q0 57 67 122z" />
    <glyph glyph-name="Hcircumflex" unicode="&#x124;" horiz-adv-x="700" 
d="M157 700v-315h385v315h78v-700h-78v320h-385v-320h-77v700h77zM350 901l126 -126l-39 -39l-87 87l-87 -87l-39 39z" />
    <glyph glyph-name="hcircumflex" unicode="&#x125;" horiz-adv-x="523" 
d="M72 750h75v-338q54 45 132 45q76 0 122.5 -51t46.5 -134v-272h-75v272q0 53 -31 85.5t-81 32.5q-71 0 -114 -45v-345h-75v750zM274 911l126 -126l-39 -39l-87 87l-87 -87l-39 39z" />
    <glyph glyph-name="Hbar" unicode="&#x126;" horiz-adv-x="710" 
d="M105 0v510h-60v60h60v130h77v-130h340v130h78v-130h65v-60h-65v-510h-78v320h-340v-320h-77zM182 385h340v125h-340v-125z" />
    <glyph glyph-name="hbar" unicode="&#x127;" horiz-adv-x="538" 
d="M30 590v60h57v100h75v-100h173v-60h-173v-178q54 45 132 45q76 0 122.5 -51t46.5 -134v-272h-75v272q0 53 -31 85.5t-81 32.5q-71 0 -114 -45v-345h-75v590h-57z" />
    <glyph glyph-name="Itilde" unicode="&#x128;" horiz-adv-x="232" 
d="M77 0v700h78v-700h-78zM21 763h-43q0 39 23.5 63.5t60.5 24.5q32 0 60 -24t48 -24q18 0 30 12.5t12 31.5h43q0 -40 -23.5 -64t-61.5 -24q-32 0 -60 24t-47 24q-18 0 -30 -12t-12 -32z" />
    <glyph glyph-name="itilde" unicode="&#x129;" 
d="M14 538h-43q0 39 23.5 63.5t60.5 24.5q31 0 60 -24t48 -24q18 0 30 12.5t12 31.5h43q0 -40 -23.5 -64t-61.5 -24q-32 0 -60 24t-47 24q-18 0 -30 -12t-12 -32zM72 0v450h75v-450h-75z" />
    <glyph glyph-name="Imacron" unicode="&#x12a;" horiz-adv-x="232" 
d="M77 0v700h78v-700h-78zM-6 767v48h245v-48h-245z" />
    <glyph glyph-name="imacron" unicode="&#x12b;" 
d="M-13 542v48h245v-48h-245zM72 0v450h75v-450h-75z" />
    <glyph glyph-name="Ibreve" unicode="&#x12c;" horiz-adv-x="232" 
d="M77 0v700h78v-700h-78zM116 807q62 0 102 42l39 -39q-57 -59 -141 -59q-83 0 -141 60l39 39q41 -43 102 -43z" />
    <glyph glyph-name="ibreve" unicode="&#x12d;" 
d="M110 582q62 0 102 42l39 -39q-57 -59 -141 -59q-83 0 -141 60l39 39q41 -43 102 -43zM72 0v450h75v-450h-75z" />
    <glyph glyph-name="Iogonek" unicode="&#x12e;" horiz-adv-x="232" 
d="M77 0v700h78v-700h-78zM106 -39q0 -27 15 -42t40 -15t40 15l28 -27q-25 -27 -68 -27q-42 0 -68 26.5t-26 69.5q0 22 10 39h39q-10 -17 -10 -39z" />
    <glyph glyph-name="iogonek" unicode="&#x12f;" 
d="M72 0v450h75v-450h-75zM60 585q0 21 14.5 35.5t35.5 14.5t35.5 -14.5t14.5 -35.5t-14.5 -35.5t-35.5 -14.5t-35.5 14.5t-14.5 35.5zM101 -39q0 -27 15.5 -42t39.5 -15q25 0 40 15l28 -27q-26 -27 -68 -27t-68 26.5t-26 69.5q0 22 10 39h39q-10 -17 -10 -39z" />
    <glyph glyph-name="Idotaccent" unicode="&#x130;" horiz-adv-x="232" 
d="M77 0v700h78v-700h-78zM66 810q0 21 14.5 35.5t35.5 14.5t35.5 -14.5t14.5 -35.5t-14.5 -35.5t-35.5 -14.5t-35.5 14.5t-14.5 35.5z" />
    <glyph glyph-name="dotlessi" unicode="&#x131;" 
d="M72 0v450h75v-450h-75z" />
    <glyph glyph-name="IJ" unicode="&#x132;" horiz-adv-x="512" 
d="M80 250v450h77v-450h-77zM357 190v510h78v-510q0 -88 -55 -143t-142 -55q-89 0 -143 56l50 50q34 -36 90 -36q54 0 88 35.5t34 92.5z" />
    <glyph glyph-name="ij" unicode="&#x133;" horiz-adv-x="440" 
d="M72 0v450h75v-450h-75zM60 585q0 21 14.5 35.5t35.5 14.5t35.5 -14.5t14.5 -35.5t-14.5 -35.5t-35.5 -14.5t-35.5 14.5t-14.5 35.5zM280 585q0 21 14.5 35.5t35.5 14.5t35.5 -14.5t14.5 -35.5t-14.5 -35.5t-35.5 -14.5t-35.5 14.5t-14.5 35.5zM227 -250v50q65 0 65 63
v587h75v-589q0 -54 -28.5 -85t-76.5 -31q-23 0 -35 5z" />
    <glyph glyph-name="Jcircumflex" unicode="&#x134;" horiz-adv-x="462" 
d="M307 190v510h78v-510q0 -88 -55 -143t-142 -55q-89 0 -143 56l50 50q34 -36 90 -36q54 0 88 35.5t34 92.5zM346 901l126 -126l-39 -39l-87 87l-87 -87l-39 39z" />
    <glyph glyph-name="jcircumflex" unicode="&#x135;" 
d="M7 -250v50q65 0 65 63v587h75v-589q0 -54 -28.5 -85t-76.5 -31q-23 0 -35 5zM110 676l126 -126l-39 -39l-87 87l-87 -87l-39 39z" />
    <glyph glyph-name="Kcommaaccent" unicode="&#x136;" horiz-adv-x="607" 
d="M77 0v700h78v-700h-78zM472 0l-308 359l288 341h97l-287 -341l310 -359h-100zM280 -219l-23 22q36 38 41 65q-15 2 -25.5 14t-10.5 28q0 18 12.5 30t30.5 12t30 -12t12 -37q0 -57 -67 -122z" />
    <glyph glyph-name="kcommaaccent" unicode="&#x137;" horiz-adv-x="459" 
d="M147 0h-75v750h75v-503l178 203h90l-188 -211l209 -239h-89l-200 231v-231zM210 -219l-23 22q36 38 41 65q-15 2 -25.5 14t-10.5 28q0 18 12.5 30t30.5 12t30 -12t12 -37q0 -57 -67 -122z" />
    <glyph glyph-name="Lacute" unicode="&#x139;" horiz-adv-x="475" 
d="M157 700v-635h273v-65h-350v700h77zM155 775l126 126l39 -39l-126 -126z" />
    <glyph glyph-name="lacute" unicode="&#x13a;" horiz-adv-x="247" 
d="M215 50v-50q-12 -5 -37 -5q-49 0 -77.5 31t-28.5 85v639h75v-637q0 -63 68 -63zM41 810l126 126l39 -39l-126 -126z" />
    <glyph glyph-name="Lcommaaccent" unicode="&#x13b;" horiz-adv-x="475" 
d="M157 700v-635h273v-65h-350v700h77zM230 -219l-23 22q36 38 41 65q-15 2 -25.5 14t-10.5 28q0 18 12.5 30t30.5 12t30 -12t12 -37q0 -57 -67 -122z" />
    <glyph glyph-name="lcommaaccent" unicode="&#x13c;" horiz-adv-x="247" 
d="M215 50v-50q-12 -5 -37 -5q-49 0 -77.5 31t-28.5 85v639h75v-637q0 -63 68 -63zM111 -219l-23 22q36 38 41 65q-15 2 -25.5 14t-10.5 28q0 18 12.5 30t30.5 12t30 -12t12 -37q0 -57 -67 -122z" />
    <glyph glyph-name="Lcaron" unicode="&#x13d;" horiz-adv-x="475" 
d="M157 700v-635h273v-65h-350v700h77zM119 736l-126 126l39 39l87 -87l87 87l39 -39z" />
    <glyph glyph-name="lcaron" unicode="&#x13e;" horiz-adv-x="372" 
d="M215 50v-50q-12 -5 -37 -5q-49 0 -77.5 31t-28.5 85v639h75v-637q0 -63 68 -63zM273 558l-26 27q39 41 47 73q-18 3 -30 16.5t-12 32.5q0 21 14.5 35.5t35.5 14.5t35.5 -14t14.5 -44q0 -62 -79 -141z" />
    <glyph glyph-name="Ldot" unicode="&#x13f;" horiz-adv-x="475" 
d="M157 700v-635h273v-65h-350v700h77zM305 325q0 21 14.5 35.5t35.5 14.5t35.5 -14.5t14.5 -35.5t-14.5 -35.5t-35.5 -14.5t-35.5 14.5t-14.5 35.5z" />
    <glyph glyph-name="ldot" unicode="&#x140;" horiz-adv-x="378" 
d="M215 50v-50q-12 -5 -37 -5q-49 0 -77.5 31t-28.5 85v639h75v-637q0 -63 68 -63zM250 325q0 21 14.5 35.5t35.5 14.5t35.5 -14.5t14.5 -35.5t-14.5 -35.5t-35.5 -14.5t-35.5 14.5t-14.5 35.5z" />
    <glyph glyph-name="Lslash" unicode="&#x141;" horiz-adv-x="504" 
d="M15 233l94 94v373h78v-312l89 89l39 -39l-128 -128v-245h272v-65h-350v249l-55 -55z" />
    <glyph glyph-name="lslash" unicode="&#x142;" horiz-adv-x="292" 
d="M242 50v-50q-12 -5 -37 -5q-48 0 -76.5 31t-28.5 85v171l-54 -53l-39 39l93 92v390h75v-332l61 61l39 -39l-100 -100v-227q0 -63 67 -63z" />
    <glyph glyph-name="Nacute" unicode="&#x143;" horiz-adv-x="722" 
d="M80 700h52l433 -553v553h77v-700h-52l-433 553v-553h-77v700zM298 775l126 126l39 -39l-126 -126z" />
    <glyph glyph-name="nacute" unicode="&#x144;" horiz-adv-x="520" 
d="M72 450h75v-38q54 45 132 45q76 0 122.5 -51t46.5 -134v-272h-75v272q0 53 -31 85.5t-81 32.5q-71 0 -114 -45v-345h-75v450zM197 550l126 126l39 -39l-126 -126z" />
    <glyph glyph-name="Ncommaaccent" unicode="&#x145;" horiz-adv-x="722" 
d="M80 700h52l433 -553v553h77v-700h-52l-433 553v-553h-77v700zM338 -219l-23 22q36 38 41 65q-15 2 -25.5 14t-10.5 28q0 18 12.5 30t30.5 12t30 -12t12 -37q0 -57 -67 -122z" />
    <glyph glyph-name="ncommaaccent" unicode="&#x146;" horiz-adv-x="520" 
d="M72 450h75v-38q54 45 132 45q76 0 122.5 -51t46.5 -134v-272h-75v272q0 53 -31 85.5t-81 32.5q-71 0 -114 -45v-345h-75v450zM235 -219l-23 22q36 38 41 65q-15 2 -25.5 14t-10.5 28q0 18 12.5 30t30.5 12t30 -12t12 -37q0 -57 -67 -122z" />
    <glyph glyph-name="Ncaron" unicode="&#x147;" horiz-adv-x="722" 
d="M80 700h52l433 -553v553h77v-700h-52l-433 553v-553h-77v700zM361 736l-126 126l39 39l87 -87l87 87l39 -39z" />
    <glyph glyph-name="ncaron" unicode="&#x148;" horiz-adv-x="520" 
d="M72 450h75v-38q54 45 132 45q76 0 122.5 -51t46.5 -134v-272h-75v272q0 53 -31 85.5t-81 32.5q-71 0 -114 -45v-345h-75v450zM260 511l-126 126l39 39l87 -87l87 87l39 -39z" />
    <glyph glyph-name="Eng" unicode="&#x14a;" horiz-adv-x="722" 
d="M510 -250v50q25 0 40 13.5t15 39.5v175l-408 525v-553h-77v700h52l433 -553v553h77v-849q0 -49 -27 -77.5t-72 -28.5q-21 0 -33 5z" />
    <glyph glyph-name="eng" unicode="&#x14b;" horiz-adv-x="520" 
d="M308 -250v50q65 0 65 63v409q0 53 -31.5 85.5t-84.5 32.5q-67 0 -110 -45v-345h-75v450h75v-38q54 45 129 45q79 0 125.5 -51t46.5 -134v-411q0 -54 -28.5 -85t-77.5 -31q-22 0 -34 5z" />
    <glyph glyph-name="Omacron" unicode="&#x14c;" horiz-adv-x="806" 
d="M54 350q0 159 96.5 258t252.5 99t252.5 -99t96.5 -258q0 -160 -96.5 -259t-252.5 -99t-252.5 99t-96.5 259zM134 350q0 -128 75 -208t194 -80q120 0 194.5 80t74.5 208t-74.5 207.5t-194.5 79.5q-119 0 -194 -80t-75 -207zM281 767v48h245v-48h-245z" />
    <glyph glyph-name="omacron" unicode="&#x14d;" horiz-adv-x="549" 
d="M44 225q0 104 63.5 168t166.5 64t167 -64.5t64 -167.5q0 -104 -64 -168.5t-167 -64.5t-166.5 64.5t-63.5 168.5zM121 225q0 -74 42.5 -119.5t110.5 -45.5t110.5 46t42.5 119t-42.5 119t-110.5 46t-110.5 -45.5t-42.5 -119.5zM152 542v48h245v-48h-245z" />
    <glyph glyph-name="Obreve" unicode="&#x14e;" horiz-adv-x="806" 
d="M54 350q0 159 96.5 258t252.5 99t252.5 -99t96.5 -258q0 -160 -96.5 -259t-252.5 -99t-252.5 99t-96.5 259zM134 350q0 -128 75 -208t194 -80q120 0 194.5 80t74.5 208t-74.5 207.5t-194.5 79.5q-119 0 -194 -80t-75 -207zM403 807q62 0 102 42l39 -39q-57 -59 -141 -59
q-83 0 -141 60l39 39q41 -43 102 -43z" />
    <glyph glyph-name="obreve" unicode="&#x14f;" horiz-adv-x="549" 
d="M44 225q0 104 63.5 168t166.5 64t167 -64.5t64 -167.5q0 -104 -64 -168.5t-167 -64.5t-166.5 64.5t-63.5 168.5zM121 225q0 -74 42.5 -119.5t110.5 -45.5t110.5 46t42.5 119t-42.5 119t-110.5 46t-110.5 -45.5t-42.5 -119.5zM274 582q62 0 102 42l39 -39
q-57 -59 -141 -59q-83 0 -141 60l39 39q41 -43 102 -43z" />
    <glyph glyph-name="Ohungarumlaut" unicode="&#x150;" horiz-adv-x="806" 
d="M54 350q0 159 96.5 258t252.5 99t252.5 -99t96.5 -258q0 -160 -96.5 -259t-252.5 -99t-252.5 99t-96.5 259zM134 350q0 -128 75 -208t194 -80q120 0 194.5 80t74.5 208t-74.5 207.5t-194.5 79.5q-119 0 -194 -80t-75 -207zM266 775l126 126l39 -39l-126 -126zM416 775
l126 126l39 -39l-126 -126z" />
    <glyph glyph-name="ohungarumlaut" unicode="&#x151;" horiz-adv-x="549" 
d="M44 225q0 104 63.5 168t166.5 64t167 -64.5t64 -167.5q0 -104 -64 -168.5t-167 -64.5t-166.5 64.5t-63.5 168.5zM121 225q0 -74 42.5 -119.5t110.5 -45.5t110.5 46t42.5 119t-42.5 119t-110.5 46t-110.5 -45.5t-42.5 -119.5zM137 550l126 126l39 -39l-126 -126zM287 550
l126 126l39 -39l-126 -126z" />
    <glyph glyph-name="OE" unicode="&#x152;" horiz-adv-x="886" 
d="M561 635v-250h237v-65h-237v-255h275v-65h-349q-42 -8 -80 -8q-157 0 -254.5 99t-97.5 259q0 159 97.5 258t254.5 99q35 0 79 -7h345v-65h-270zM407 62q41 0 77 12v552q-38 11 -77 11q-121 0 -196.5 -80t-75.5 -207q0 -128 75.5 -208t196.5 -80z" />
    <glyph glyph-name="oe" unicode="&#x153;" horiz-adv-x="830" 
d="M788 204h-337q5 -66 46.5 -105t109.5 -39q74 0 117 46l45 -47q-64 -67 -167 -67q-101 0 -164 65q-63 -65 -164 -65q-103 0 -166.5 64.5t-63.5 168.5t63.5 168t166.5 64q98 0 161 -63q58 63 151 63q98 0 150 -66.5t52 -186.5zM274 60q78 0 121 58q-23 48 -23 109
q0 59 21 106q-44 57 -119 57q-68 0 -110.5 -45.5t-42.5 -119.5t42.5 -119.5t110.5 -45.5zM587 391q-56 0 -92.5 -35.5t-43.5 -96.5h262q-7 62 -39.5 97t-86.5 35z" />
    <glyph glyph-name="Racute" unicode="&#x154;" horiz-adv-x="544" 
d="M421 0l-166 307h-95v-307h-80v700h197q92 0 148.5 -53.5t56.5 -143.5q0 -74 -40 -124.5t-108 -65.5l176 -313h-89zM402 503q0 58 -34.5 93.5t-90.5 35.5h-117v-257h117q56 0 90.5 35t34.5 93zM204 775l126 126l39 -39l-126 -126z" />
    <glyph glyph-name="racute" unicode="&#x155;" horiz-adv-x="335" 
d="M269 456q11 0 31 -2v-66q-16 3 -35 3q-74 0 -118 -62v-329h-75v450h75v-55q53 61 122 61zM125 550l126 126l39 -39l-126 -126z" />
    <glyph glyph-name="Rcommaaccent" unicode="&#x156;" horiz-adv-x="544" 
d="M421 0l-166 307h-95v-307h-80v700h197q92 0 148.5 -53.5t56.5 -143.5q0 -74 -40 -124.5t-108 -65.5l176 -313h-89zM402 503q0 58 -34.5 93.5t-90.5 35.5h-117v-257h117q56 0 90.5 35t34.5 93zM249 -219l-23 22q36 38 41 65q-15 2 -25.5 14t-10.5 28q0 18 12.5 30t30.5 12
t30 -12t12 -37q0 -57 -67 -122z" />
    <glyph glyph-name="rcommaaccent" unicode="&#x157;" horiz-adv-x="335" 
d="M269 456q11 0 31 -2v-66q-16 3 -35 3q-74 0 -118 -62v-329h-75v450h75v-55q53 61 122 61zM85 -219l-23 22q36 38 41 65q-15 2 -25.5 14t-10.5 28q0 18 12.5 30t30.5 12t30 -12t12 -37q0 -57 -67 -122z" />
    <glyph glyph-name="Rcaron" unicode="&#x158;" horiz-adv-x="544" 
d="M421 0l-166 307h-95v-307h-80v700h197q92 0 148.5 -53.5t56.5 -143.5q0 -74 -40 -124.5t-108 -65.5l176 -313h-89zM402 503q0 58 -34.5 93.5t-90.5 35.5h-117v-257h117q56 0 90.5 35t34.5 93zM267 736l-126 126l39 39l87 -87l87 87l39 -39z" />
    <glyph glyph-name="rcaron" unicode="&#x159;" horiz-adv-x="335" 
d="M269 456q11 0 31 -2v-66q-16 3 -35 3q-74 0 -118 -62v-329h-75v450h75v-55q53 61 122 61zM187 511l-126 126l39 39l87 -87l87 87l39 -39z" />
    <glyph glyph-name="Sacute" unicode="&#x15a;" horiz-adv-x="541" 
d="M461 624l-49 -49q-25 27 -66 44.5t-82 17.5q-61 0 -91.5 -36t-30.5 -81q0 -33 18.5 -57.5t48.5 -40t66 -29.5t72.5 -30t66.5 -36.5t48.5 -54.5t18.5 -79q0 -83 -56.5 -142t-159.5 -59q-132 0 -219 93l48 49q30 -34 74.5 -53t89.5 -19q70 0 106.5 40.5t36.5 88.5
q0 36 -25 62.5t-63 41t-81.5 33t-81.5 38.5t-63 59t-25 93q0 79 50 134t145 55q124 0 204 -83zM195 775l126 126l39 -39l-126 -126z" />
    <glyph glyph-name="sacute" unicode="&#x15b;" horiz-adv-x="382" 
d="M325 403l-44 -44q-14 15 -39.5 25t-48.5 10q-33 0 -50 -19.5t-17 -43.5q0 -19 14.5 -34t28.5 -21.5t50 -21.5q28 -12 44.5 -20.5t36 -23.5t28.5 -35.5t9 -46.5q0 -55 -39.5 -95.5t-110.5 -40.5q-92 0 -148 61l44 44q36 -42 99 -42q40 0 60 21.5t20 48.5q0 25 -19.5 39
t-69.5 35q-29 11 -46.5 20.5t-37 24.5t-29 36t-9.5 49q0 53 35 90.5t101 37.5q86 0 138 -54zM122 550l126 126l39 -39l-126 -126z" />
    <glyph glyph-name="Scircumflex" unicode="&#x15c;" horiz-adv-x="541" 
d="M461 624l-49 -49q-25 27 -66 44.5t-82 17.5q-61 0 -91.5 -36t-30.5 -81q0 -33 18.5 -57.5t48.5 -40t66 -29.5t72.5 -30t66.5 -36.5t48.5 -54.5t18.5 -79q0 -83 -56.5 -142t-159.5 -59q-132 0 -219 93l48 49q30 -34 74.5 -53t89.5 -19q70 0 106.5 40.5t36.5 88.5
q0 36 -25 62.5t-63 41t-81.5 33t-81.5 38.5t-63 59t-25 93q0 79 50 134t145 55q124 0 204 -83zM258 901l126 -126l-39 -39l-87 87l-87 -87l-39 39z" />
    <glyph glyph-name="scircumflex" unicode="&#x15d;" horiz-adv-x="382" 
d="M325 403l-44 -44q-14 15 -39.5 25t-48.5 10q-33 0 -50 -19.5t-17 -43.5q0 -19 14.5 -34t28.5 -21.5t50 -21.5q28 -12 44.5 -20.5t36 -23.5t28.5 -35.5t9 -46.5q0 -55 -39.5 -95.5t-110.5 -40.5q-92 0 -148 61l44 44q36 -42 99 -42q40 0 60 21.5t20 48.5q0 25 -19.5 39
t-69.5 35q-29 11 -46.5 20.5t-37 24.5t-29 36t-9.5 49q0 53 35 90.5t101 37.5q86 0 138 -54zM184 676l126 -126l-39 -39l-87 87l-87 -87l-39 39z" />
    <glyph glyph-name="Scedilla" unicode="&#x15e;" horiz-adv-x="541" 
d="M461 624l-49 -49q-25 27 -66 44.5t-82 17.5q-61 0 -91.5 -36t-30.5 -81q0 -33 18.5 -57.5t48.5 -40t66 -29.5t72.5 -30t66.5 -36.5t48.5 -54.5t18.5 -79q0 -79 -52 -137t-147 -63v-52q66 -12 66 -77q0 -35 -23 -57t-60 -22t-61 24l26 26q14 -14 35 -14t34 12t13 33
q0 46 -65 46v81q-121 6 -201 92l48 49q30 -34 74.5 -53t89.5 -19q70 0 106.5 40.5t36.5 88.5q0 36 -25 62.5t-63 41t-81.5 33t-81.5 38.5t-63 59t-25 93q0 79 50 134t145 55q124 0 204 -83z" />
    <glyph glyph-name="scedilla" unicode="&#x15f;" horiz-adv-x="382" 
d="M325 403l-44 -44q-14 15 -39.5 25t-48.5 10q-33 0 -50 -19.5t-17 -43.5q0 -19 14.5 -34t28.5 -21.5t50 -21.5q28 -12 44.5 -20.5t36 -23.5t28.5 -35.5t9 -46.5q0 -52 -35.5 -91.5t-99.5 -43.5v-52q66 -12 66 -77q0 -35 -23 -57t-60 -22t-61 24l26 26q14 -14 35 -14t34 12
t13 33q0 46 -65 46v81q-80 8 -128 60l44 44q36 -42 99 -42q40 0 60 21.5t20 48.5q0 25 -19.5 39t-69.5 35q-29 11 -46.5 20.5t-37 24.5t-29 36t-9.5 49q0 53 35 90.5t101 37.5q86 0 138 -54z" />
    <glyph glyph-name="Scaron" unicode="&#x160;" horiz-adv-x="541" 
d="M461 624l-49 -49q-25 27 -66 44.5t-82 17.5q-61 0 -91.5 -36t-30.5 -81q0 -33 18.5 -57.5t48.5 -40t66 -29.5t72.5 -30t66.5 -36.5t48.5 -54.5t18.5 -79q0 -83 -56.5 -142t-159.5 -59q-132 0 -219 93l48 49q30 -34 74.5 -53t89.5 -19q70 0 106.5 40.5t36.5 88.5
q0 36 -25 62.5t-63 41t-81.5 33t-81.5 38.5t-63 59t-25 93q0 79 50 134t145 55q124 0 204 -83zM258 736l-126 126l39 39l87 -87l87 87l39 -39z" />
    <glyph glyph-name="scaron" unicode="&#x161;" horiz-adv-x="382" 
d="M325 403l-44 -44q-14 15 -39.5 25t-48.5 10q-33 0 -50 -19.5t-17 -43.5q0 -19 14.5 -34t28.5 -21.5t50 -21.5q28 -12 44.5 -20.5t36 -23.5t28.5 -35.5t9 -46.5q0 -55 -39.5 -95.5t-110.5 -40.5q-92 0 -148 61l44 44q36 -42 99 -42q40 0 60 21.5t20 48.5q0 25 -19.5 39
t-69.5 35q-29 11 -46.5 20.5t-37 24.5t-29 36t-9.5 49q0 53 35 90.5t101 37.5q86 0 138 -54zM184 511l-126 126l39 39l87 -87l87 87l39 -39z" />
    <glyph glyph-name="Tcommaaccent" unicode="&#x162;" horiz-adv-x="567" 
d="M322 635v-635h-77v635h-200v65h477v-65h-200zM261 -219l-23 22q36 38 41 65q-15 2 -25.5 14t-10.5 28q0 18 12.5 30t30.5 12t30 -12t12 -37q0 -57 -67 -122z" />
    <glyph glyph-name="tcommaaccent" unicode="&#x163;" horiz-adv-x="317" 
d="M27 390v60h58v100h77v-100h120v-60h-120v-250q0 -37 22 -60t58 -23q24 0 40 10v-65q-23 -10 -53 -10q-66 0 -105 40.5t-39 107.5v250h-58zM150 -219l-23 22q36 38 41 65q-15 2 -25.5 14t-10.5 28q0 18 12.5 30t30.5 12t30 -12t12 -37q0 -57 -67 -122z" />
    <glyph glyph-name="Tcaron" unicode="&#x164;" horiz-adv-x="567" 
d="M322 635v-635h-77v635h-200v65h477v-65h-200zM283 736l-126 126l39 39l87 -87l87 87l39 -39z" />
    <glyph glyph-name="tcaron" unicode="&#x165;" horiz-adv-x="357" 
d="M27 390v60h58v100h77v-100h120v-60h-120v-250q0 -37 22 -60t58 -23q24 0 40 10v-65q-23 -10 -53 -10q-66 0 -105 40.5t-39 107.5v250h-58zM266 533l-26 27q39 41 47 73q-18 3 -30 16.5t-12 32.5q0 21 14.5 35.5t35.5 14.5t35.5 -14t14.5 -44q0 -62 -79 -141z" />
    <glyph glyph-name="Tbar" unicode="&#x166;" horiz-adv-x="567" 
d="M100 340v60h145v235h-200v65h477v-65h-200v-235h145v-60h-145v-340h-77v340h-145z" />
    <glyph glyph-name="tbar" unicode="&#x167;" horiz-adv-x="317" 
d="M27 242v58h58v90h-58v60h58v100h77v-100h120v-60h-120v-90h120v-58h-120v-102q0 -37 22 -60t58 -23q24 0 40 10v-65q-23 -10 -53 -10q-66 0 -105 40.5t-39 107.5v102h-58z" />
    <glyph glyph-name="Utilde" unicode="&#x168;" horiz-adv-x="682" 
d="M524 255v445h78v-445q0 -118 -72.5 -190.5t-189.5 -72.5t-188.5 72.5t-71.5 190.5v445h77v-445q0 -86 51 -139.5t132 -53.5q82 0 133 53.5t51 139.5zM245 763h-43q0 39 23.5 63.5t60.5 24.5q32 0 60 -24t48 -24q18 0 30 12.5t12 31.5h43q0 -40 -23.5 -64t-61.5 -24
q-32 0 -60 24t-47 24q-18 0 -30 -12t-12 -32z" />
    <glyph glyph-name="utilde" unicode="&#x169;" horiz-adv-x="530" 
d="M458 450v-265q0 -86 -53.5 -139.5t-139.5 -53.5t-139.5 53.5t-53.5 139.5v265h78v-265q0 -56 32.5 -90.5t84.5 -34.5t84.5 35t32.5 90v265h74zM169 538h-43q0 39 23.5 63.5t60.5 24.5q32 0 60 -24t48 -24q18 0 30 12.5t12 31.5h43q0 -40 -23.5 -64t-61.5 -24
q-32 0 -60 24t-47 24q-18 0 -30 -12t-12 -32z" />
    <glyph glyph-name="Umacron" unicode="&#x16a;" horiz-adv-x="682" 
d="M524 255v445h78v-445q0 -118 -72.5 -190.5t-189.5 -72.5t-188.5 72.5t-71.5 190.5v445h77v-445q0 -86 51 -139.5t132 -53.5q82 0 133 53.5t51 139.5zM218 767v48h245v-48h-245z" />
    <glyph glyph-name="umacron" unicode="&#x16b;" horiz-adv-x="530" 
d="M458 450v-265q0 -86 -53.5 -139.5t-139.5 -53.5t-139.5 53.5t-53.5 139.5v265h78v-265q0 -56 32.5 -90.5t84.5 -34.5t84.5 35t32.5 90v265h74zM142 542v48h245v-48h-245z" />
    <glyph glyph-name="Ubreve" unicode="&#x16c;" horiz-adv-x="682" 
d="M524 255v445h78v-445q0 -118 -72.5 -190.5t-189.5 -72.5t-188.5 72.5t-71.5 190.5v445h77v-445q0 -86 51 -139.5t132 -53.5q82 0 133 53.5t51 139.5zM341 807q62 0 102 42l39 -39q-57 -59 -141 -59q-83 0 -141 60l39 39q41 -43 102 -43z" />
    <glyph glyph-name="ubreve" unicode="&#x16d;" horiz-adv-x="530" 
d="M458 450v-265q0 -86 -53.5 -139.5t-139.5 -53.5t-139.5 53.5t-53.5 139.5v265h78v-265q0 -56 32.5 -90.5t84.5 -34.5t84.5 35t32.5 90v265h74zM265 582q62 0 102 42l39 -39q-57 -59 -141 -59q-83 0 -141 60l39 39q41 -43 102 -43z" />
    <glyph glyph-name="Uring" unicode="&#x16e;" horiz-adv-x="682" 
d="M524 255v445h78v-445q0 -118 -72.5 -190.5t-189.5 -72.5t-188.5 72.5t-71.5 190.5v445h77v-445q0 -86 51 -139.5t132 -53.5q82 0 133 53.5t51 139.5zM253 820q0 40 24.5 65t63.5 25q40 0 64 -24.5t24 -65.5t-24 -65.5t-64 -24.5q-39 0 -63.5 25t-24.5 65zM289 819
q0 -24 14.5 -38.5t37.5 -14.5t37.5 14.5t14.5 38.5t-14.5 39t-37.5 15t-37.5 -14.5t-14.5 -39.5z" />
    <glyph glyph-name="uring" unicode="&#x16f;" horiz-adv-x="530" 
d="M458 450v-265q0 -86 -53.5 -139.5t-139.5 -53.5t-139.5 53.5t-53.5 139.5v265h78v-265q0 -56 32.5 -90.5t84.5 -34.5t84.5 35t32.5 90v265h74zM177 595q0 40 24.5 65t63.5 25q40 0 64 -24.5t24 -65.5t-24 -65.5t-64 -24.5q-39 0 -63.5 25t-24.5 65zM213 594
q0 -24 14.5 -38.5t37.5 -14.5t37.5 14.5t14.5 38.5t-14.5 39t-37.5 15t-37.5 -14.5t-14.5 -39.5z" />
    <glyph glyph-name="Uhungarumlaut" unicode="&#x170;" horiz-adv-x="682" 
d="M524 255v445h78v-445q0 -118 -72.5 -190.5t-189.5 -72.5t-188.5 72.5t-71.5 190.5v445h77v-445q0 -86 51 -139.5t132 -53.5q82 0 133 53.5t51 139.5zM203 775l126 126l39 -39l-126 -126zM353 775l126 126l39 -39l-126 -126z" />
    <glyph glyph-name="uhungarumlaut" unicode="&#x171;" horiz-adv-x="530" 
d="M458 450v-265q0 -86 -53.5 -139.5t-139.5 -53.5t-139.5 53.5t-53.5 139.5v265h78v-265q0 -56 32.5 -90.5t84.5 -34.5t84.5 35t32.5 90v265h74zM127 550l126 126l39 -39l-126 -126zM277 550l126 126l39 -39l-126 -126z" />
    <glyph glyph-name="Uogonek" unicode="&#x172;" horiz-adv-x="682" 
d="M397 -39q0 -27 15.5 -42t39.5 -15q25 0 40 15l28 -27q-26 -27 -68 -27t-68 26.5t-26 69.5q0 17 6 32q-4 0 -12 -0.5t-12 -0.5q-117 0 -188.5 72.5t-71.5 190.5v445h77v-445q0 -86 51 -139.5t132 -53.5q82 0 133 53.5t51 139.5v445h78v-445q0 -100 -53 -168t-143 -88
q-9 -18 -9 -38z" />
    <glyph glyph-name="uogonek" unicode="&#x173;" horiz-adv-x="530" 
d="M311 -39q0 -27 15.5 -42t39.5 -15q25 0 40 15l28 -27q-26 -27 -68 -27t-68 26.5t-26 69.5q0 17 6 32q-3 0 -7 -0.5t-6 -0.5q-86 0 -139.5 53.5t-53.5 139.5v265h78v-265q0 -56 32.5 -90.5t84.5 -34.5t84.5 35t32.5 90v265h74v-265q0 -71 -37.5 -121t-100.5 -65
q-9 -15 -9 -38z" />
    <glyph glyph-name="Wcircumflex" unicode="&#x174;" horiz-adv-x="1094" 
d="M1064 700l-251 -700h-79l-188 567l-186 -567h-79l-251 700h90l200 -581l186 581h81l187 -581l200 581h90zM546 901l126 -126l-39 -39l-87 87l-87 -87l-39 39z" />
    <glyph glyph-name="wcircumflex" unicode="&#x175;" horiz-adv-x="745" 
d="M729 450l-167 -450h-78l-112 345l-111 -345h-79l-167 450h86l120 -359l113 359h76l113 -359l120 359h86zM372 676l126 -126l-39 -39l-87 87l-87 -87l-39 39z" />
    <glyph glyph-name="Ycircumflex" unicode="&#x176;" horiz-adv-x="677" 
d="M299 0v301l-267 399h90l216 -322l216 322h90l-267 -400v-300h-78zM338 901l126 -126l-39 -39l-87 87l-87 -87l-39 39z" />
    <glyph glyph-name="ycircumflex" unicode="&#x177;" horiz-adv-x="493" 
d="M477 450l-308 -700h-83l125 250l-196 450h84l147 -360l148 360h83zM247 676l126 -126l-39 -39l-87 87l-87 -87l-39 39z" />
    <glyph glyph-name="Ydieresis" unicode="&#x178;" horiz-adv-x="677" 
d="M299 0v301l-267 399h90l216 -322l216 322h90l-267 -400v-300h-78zM197 797q0 20 13.5 34t33.5 14t34 -14t14 -34t-14 -33.5t-34 -13.5t-33.5 14t-13.5 33zM384 797q0 20 14 34t34 14t34 -14t14 -34t-14 -33.5t-34 -13.5t-34 13.5t-14 33.5z" />
    <glyph glyph-name="Zacute" unicode="&#x179;" horiz-adv-x="635" 
d="M61 635v65h517v-28l-411 -607h413v-65h-525v28l410 607h-404zM255 775l126 126l39 -39l-126 -126z" />
    <glyph glyph-name="zacute" unicode="&#x17a;" horiz-adv-x="465" 
d="M51 390v60h367v-28l-262 -362h262v-60h-371v28l262 362h-258zM170 550l126 126l39 -39l-126 -126z" />
    <glyph glyph-name="Zdotaccent" unicode="&#x17b;" horiz-adv-x="635" 
d="M61 635v65h517v-28l-411 -607h413v-65h-525v28l410 607h-404zM267 810q0 21 14.5 35.5t35.5 14.5t35.5 -14.5t14.5 -35.5t-14.5 -35.5t-35.5 -14.5t-35.5 14.5t-14.5 35.5z" />
    <glyph glyph-name="zdotaccent" unicode="&#x17c;" horiz-adv-x="465" 
d="M51 390v60h367v-28l-262 -362h262v-60h-371v28l262 362h-258zM182 585q0 21 14.5 35.5t35.5 14.5t35.5 -14.5t14.5 -35.5t-14.5 -35.5t-35.5 -14.5t-35.5 14.5t-14.5 35.5z" />
    <glyph glyph-name="Zcaron" unicode="&#x17d;" horiz-adv-x="635" 
d="M61 635v65h517v-28l-411 -607h413v-65h-525v28l410 607h-404zM317 736l-126 126l39 39l87 -87l87 87l39 -39z" />
    <glyph glyph-name="zcaron" unicode="&#x17e;" horiz-adv-x="465" 
d="M51 390v60h367v-28l-262 -362h262v-60h-371v28l262 362h-258zM232 511l-126 126l39 39l87 -87l87 87l39 -39z" />
    <glyph glyph-name="longs" unicode="&#x17f;" horiz-adv-x="302" 
d="M72 0v605q0 69 41 110.5t110 41.5q31 0 54 -10v-64q-18 10 -41 10q-39 0 -62.5 -24.5t-23.5 -63.5v-605h-78z" />
    <glyph glyph-name="uni018F" unicode="&#x18f;" horiz-adv-x="747" 
d="M693 350q0 -160 -88.5 -259t-231.5 -99q-142 0 -230.5 99t-88.5 259v30h557q-10 115 -84 186t-187 71q-126 0 -200 -80l-50 49q96 101 253 101q156 0 253 -99t97 -258zM373 62q99 0 164 69.5t73 183.5h-473q8 -114 72.5 -183.5t163.5 -69.5z" />
    <glyph glyph-name="florin" unicode="&#x192;" horiz-adv-x="325" 
d="M40 -250v50q25 0 40 13.5t15 39.5v537h-63v60h63v155q0 69 40.5 110.5t109.5 41.5q31 0 55 -10v-64q-20 10 -42 10q-39 0 -62.5 -24.5t-23.5 -63.5v-155h128v-60h-128v-539q0 -49 -27 -77.5t-72 -28.5q-21 0 -33 5z" />
    <glyph glyph-name="uni01DD" unicode="&#x1dd;" horiz-adv-x="508" 
d="M45 245h341q-5 66 -47.5 105.5t-110.5 39.5q-75 0 -119 -47l-45 47q64 67 169 67q104 0 168 -64.5t64 -170.5q0 -102 -59.5 -166t-155.5 -64q-97 0 -151 68t-54 185zM248 58q56 0 93.5 36t44.5 97h-266q7 -62 40 -97.5t88 -35.5z" />
    <glyph glyph-name="Aringacute" unicode="&#x1fa;" horiz-adv-x="731" 
d="M278 767q0 40 24.5 65t63.5 25q7 0 10 -1l118 118l39 -39l-103 -103q24 -26 24 -65q0 -58 -46 -81l292 -686h-89l-83 200h-326l-82 -200h-90l293 686q-45 22 -45 81zM366 601l-136 -331h270zM314 766q0 -24 14.5 -38.5t37.5 -14.5t37.5 14.5t14.5 38.5t-14.5 39t-37.5 15
t-37.5 -14.5t-14.5 -39.5z" />
    <glyph glyph-name="aringacute" unicode="&#x1fb;" horiz-adv-x="453" 
d="M418 49v-50q-12 -5 -32 -5q-64 0 -83 51q-55 -53 -129 -53q-63 0 -97 37.5t-34 92.5q0 68 50.5 104t134.5 36q19 0 36 -2t24 -4l8 -1v60q0 33 -23 56.5t-71 23.5q-67 0 -103 -36l-39 39q59 59 148 59q79 0 121 -40.5t42 -101.5v-227q0 -39 47 -39zM126 570q0 40 24.5 65
t63.5 25q11 0 16 -1l114 114l39 -39l-102 -102q21 -26 21 -62q0 -41 -24 -65.5t-64 -24.5q-39 0 -63.5 25t-24.5 65zM196 55q59 0 100 42v105q-23 7 -62 7q-116 0 -116 -79q0 -31 19 -53t59 -22zM162 569q0 -24 14.5 -38.5t37.5 -14.5t37.5 14.5t14.5 38.5t-14.5 39
t-37.5 15t-37.5 -14.5t-14.5 -39.5z" />
    <glyph glyph-name="AEacute" unicode="&#x1fc;" horiz-adv-x="782" 
d="M457 635v-250h238v-65h-238v-255h275v-65h-352v200h-171l-87 -200h-90l311 700h384v-65h-270zM237 270h143v331zM353 775l126 126l39 -39l-126 -126z" />
    <glyph glyph-name="aeacute" unicode="&#x1fd;" horiz-adv-x="719" 
d="M296 260v53q0 32 -23 57t-67 25q-27 0 -56 -10.5t-44 -26.5l-42 42q57 57 148 57q79 0 119 -51q56 51 141 51q99 0 152 -66.5t53 -186.5h-306v-92q43 -52 122 -52q76 0 119 46l46 -47q-65 -67 -170 -67q-112 0 -173 69q-56 -69 -141 -69q-63 0 -96 37t-33 87
q0 68 61.5 107t155.5 39q18 0 34 -2zM371 313v-54h230q-6 62 -39.5 97t-88.5 35q-67 0 -105 -49q3 -27 3 -29zM296 102v106q-16 2 -30 2q-64 0 -104.5 -23.5t-40.5 -63.5q0 -26 18 -47t58 -21q58 0 99 47zM307 550l126 126l39 -39l-126 -126z" />
    <glyph glyph-name="Oslashacute" unicode="&#x1fe;" horiz-adv-x="806" 
d="M56 -8l89 104q-91 99 -91 254q0 159 96.5 258t252.5 99q122 0 211 -64l55 64h81l-90 -105q92 -98 92 -252q0 -160 -96.5 -259t-252.5 -99q-124 0 -212 63l-54 -63h-81zM134 350q0 -116 62 -194l369 430q-69 51 -162 51q-119 0 -194 -80t-75 -207zM672 350q0 114 -63 193
l-368 -430q68 -51 162 -51q120 0 194.5 80t74.5 208zM340 775l126 126l39 -39l-126 -126z" />
    <glyph glyph-name="oslashacute" unicode="&#x1ff;" horiz-adv-x="549" 
d="M51 -8l53 68q-60 63 -60 165q0 104 63.5 168t166.5 64q64 0 119 -29l27 34h77l-55 -70q63 -65 63 -167q0 -104 -64 -168.5t-167 -64.5q-70 0 -122 30l-23 -30h-78zM432 225q0 64 -34 111l-204 -261q35 -20 80 -20q70 0 114 47t44 123zM116 225q0 -66 32 -109l204 260
q-35 19 -78 19q-70 0 -114 -47t-44 -123zM212 550l126 126l39 -39l-126 -126z" />
    <glyph glyph-name="Scommaaccent" unicode="&#x218;" horiz-adv-x="541" 
d="M461 624l-49 -49q-25 27 -66 44.5t-82 17.5q-61 0 -91.5 -36t-30.5 -81q0 -33 18.5 -57.5t48.5 -40t66 -29.5t72.5 -30t66.5 -36.5t48.5 -54.5t18.5 -79q0 -83 -56.5 -142t-159.5 -59q-132 0 -219 93l48 49q30 -34 74.5 -53t89.5 -19q70 0 106.5 40.5t36.5 88.5
q0 36 -25 62.5t-63 41t-81.5 33t-81.5 38.5t-63 59t-25 93q0 79 50 134t145 55q124 0 204 -83zM243 -219l-23 22q36 38 41 65q-15 2 -25.5 14t-10.5 28q0 18 12.5 30t30.5 12t30 -12t12 -37q0 -57 -67 -122z" />
    <glyph glyph-name="scommaaccent" unicode="&#x219;" horiz-adv-x="382" 
d="M325 403l-44 -44q-14 15 -39.5 25t-48.5 10q-33 0 -50 -19.5t-17 -43.5q0 -19 14.5 -34t28.5 -21.5t50 -21.5q28 -12 44.5 -20.5t36 -23.5t28.5 -35.5t9 -46.5q0 -55 -39.5 -95.5t-110.5 -40.5q-92 0 -148 61l44 44q36 -42 99 -42q40 0 60 21.5t20 48.5q0 25 -19.5 39
t-69.5 35q-29 11 -46.5 20.5t-37 24.5t-29 36t-9.5 49q0 53 35 90.5t101 37.5q86 0 138 -54zM162 -219l-23 22q36 38 41 65q-15 2 -25.5 14t-10.5 28q0 18 12.5 30t30.5 12t30 -12t12 -37q0 -57 -67 -122z" />
    <glyph glyph-name="uni021A" unicode="&#x21a;" horiz-adv-x="567" 
d="M322 635v-635h-77v635h-200v65h477v-65h-200zM261 -219l-23 22q36 38 41 65q-15 2 -25.5 14t-10.5 28q0 18 12.5 30t30.5 12t30 -12t12 -37q0 -57 -67 -122z" />
    <glyph glyph-name="uni021B" unicode="&#x21b;" horiz-adv-x="317" 
d="M27 390v60h58v100h77v-100h120v-60h-120v-250q0 -37 22 -60t58 -23q24 0 40 10v-65q-23 -10 -53 -10q-66 0 -105 40.5t-39 107.5v250h-58zM150 -219l-23 22q36 38 41 65q-15 2 -25.5 14t-10.5 28q0 18 12.5 30t30.5 12t30 -12t12 -37q0 -57 -67 -122z" />
    <glyph glyph-name="dotlessj" unicode="&#x237;" 
d="M7 -250v50q65 0 65 63v587h75v-589q0 -54 -28.5 -85t-76.5 -31q-23 0 -35 5z" />
    <glyph glyph-name="circumflex" unicode="&#x2c6;" horiz-adv-x="352" 
d="M176 676l126 -126l-39 -39l-87 87l-87 -87l-39 39z" />
    <glyph glyph-name="caron" unicode="&#x2c7;" horiz-adv-x="352" 
d="M176 511l-126 126l39 39l87 -87l87 87l39 -39z" />
    <glyph glyph-name="breve" unicode="&#x2d8;" horiz-adv-x="354" 
d="M177 582q62 0 102 42l39 -39q-57 -59 -141 -59q-83 0 -141 60l39 39q41 -43 102 -43z" />
    <glyph glyph-name="dotaccent" unicode="&#x2d9;" 
d="M60 585q0 21 14.5 35.5t35.5 14.5t35.5 -14.5t14.5 -35.5t-14.5 -35.5t-35.5 -14.5t-35.5 14.5t-14.5 35.5z" />
    <glyph glyph-name="ring" unicode="&#x2da;" horiz-adv-x="275" 
d="M50 595q0 40 24.5 65t63.5 25q40 0 64 -24.5t24 -65.5t-24 -65.5t-64 -24.5q-39 0 -63.5 25t-24.5 65zM86 594q0 -24 14.5 -38.5t37.5 -14.5t37.5 14.5t14.5 38.5t-14.5 39t-37.5 15t-37.5 -14.5t-14.5 -39.5z" />
    <glyph glyph-name="ogonek" unicode="&#x2db;" horiz-adv-x="256" 
d="M86 -39q0 -27 15 -42t40 -15t40 15l28 -27q-25 -27 -68 -27q-42 0 -68 26.5t-26 69.5q0 22 10 39h39q-10 -17 -10 -39z" />
    <glyph glyph-name="tilde" unicode="&#x2dc;" horiz-adv-x="337" 
d="M73 538h-43q0 39 23.5 63.5t60.5 24.5q32 0 60 -24t48 -24q18 0 30 12.5t12 31.5h43q0 -40 -23.5 -64t-61.5 -24q-32 0 -60 24t-47 24q-18 0 -30 -12t-12 -32z" />
    <glyph glyph-name="hungarumlaut" unicode="&#x2dd;" horiz-adv-x="415" 
d="M50 550l126 126l39 -39l-126 -126zM200 550l126 126l39 -39l-126 -126z" />
    <glyph glyph-name="uni0400" unicode="&#x400;" horiz-adv-x="507" 
d="M157 635v-250h260v-65h-260v-255h298v-65h-375v700h370v-65h-293zM203 901l126 -126l-39 -39l-126 126z" />
    <glyph glyph-name="afii10023" unicode="&#x401;" horiz-adv-x="507" 
d="M157 635v-250h260v-65h-260v-255h298v-65h-375v700h370v-65h-293zM124 797q0 20 13.5 34t33.5 14t34 -14t14 -34t-14 -33.5t-34 -13.5q-19 0 -33 14t-14 33zM311 797q0 20 14 34t34 14t34 -14t14 -34t-14 -33.5t-34 -13.5t-34 13.5t-14 33.5z" />
    <glyph glyph-name="afii10051" unicode="&#x402;" horiz-adv-x="703" 
d="M493 0v50q25 0 40 13.5t15 39.5v142q0 52 -31 84.5t-81 32.5q-72 0 -114 -44v-318h-77v635h-200v65h477v-65h-200v-251q56 46 133 46t123.5 -51t46.5 -134v-144q0 -49 -26.5 -77.5t-71.5 -28.5q-22 0 -34 5z" />
    <glyph glyph-name="afii10052" unicode="&#x403;" horiz-adv-x="476" 
d="M190 775l126 126l39 -39l-126 -126zM80 0v700h350v-65h-273v-635h-77z" />
    <glyph glyph-name="afii10053" unicode="&#x404;" horiz-adv-x="701" 
d="M407 637q-112 0 -186 -69t-85 -183h408v-65h-408q9 -116 83 -187t188 -71q125 0 200 80l50 -49q-96 -101 -254 -101q-156 0 -252.5 99t-96.5 259q0 159 96.5 258t252.5 99q158 0 254 -101l-50 -50q-76 81 -200 81z" />
    <glyph glyph-name="afii10054" unicode="&#x405;" horiz-adv-x="541" 
d="M461 624l-49 -49q-25 27 -66 44.5t-82 17.5q-61 0 -91.5 -36t-30.5 -81q0 -33 18.5 -57.5t48.5 -40t66 -29.5t72.5 -30t66.5 -36.5t48.5 -54.5t18.5 -79q0 -83 -56.5 -142t-159.5 -59q-132 0 -219 93l48 49q30 -34 74.5 -53t89.5 -19q70 0 106.5 40.5t36.5 88.5
q0 36 -25 62.5t-63 41t-81.5 33t-81.5 38.5t-63 59t-25 93q0 79 50 134t145 55q124 0 204 -83z" />
    <glyph glyph-name="afii10055" unicode="&#x406;" horiz-adv-x="232" 
d="M77 0v700h78v-700h-78z" />
    <glyph glyph-name="afii10056" unicode="&#x407;" horiz-adv-x="232" 
d="M77 0v700h78v-700h-78zM-10 797q0 20 13.5 34t33.5 14t34 -14t14 -34t-14 -33.5t-34 -13.5q-19 0 -33 14t-14 33zM147 797q0 20 14 34t34 14t34 -14t14 -34t-14 -33.5t-34 -13.5t-34 13.5t-14 33.5z" />
    <glyph glyph-name="afii10057" unicode="&#x408;" horiz-adv-x="462" 
d="M307 190v510h78v-510q0 -88 -55 -143t-142 -55q-89 0 -143 56l50 50q34 -36 90 -36q54 0 88 35.5t34 92.5z" />
    <glyph glyph-name="afii10058" unicode="&#x409;" horiz-adv-x="952" 
d="M492 0v635h-252v-421q0 -95 -41 -157t-108 -62q-31 0 -49 5v50q57 0 87.5 41t30.5 119v490h412v-308h120q92 0 148.5 -53.5t56.5 -142.5t-56.5 -142.5t-148.5 -53.5h-200zM817 196q0 58 -34.5 93.5t-90.5 35.5h-120v-258h120q56 0 90.5 35.5t34.5 93.5z" />
    <glyph glyph-name="afii10059" unicode="&#x40a;" horiz-adv-x="947" 
d="M157 700v-308h330v308h80v-308h120q92 0 148.5 -53.5t56.5 -142.5t-56.5 -142.5t-148.5 -53.5h-200v325h-330v-325h-77v700h77zM812 196q0 58 -34.5 93.5t-90.5 35.5h-120v-258h120q56 0 90.5 35.5t34.5 93.5z" />
    <glyph glyph-name="afii10060" unicode="&#x40b;" horiz-adv-x="703" 
d="M322 635v-251q56 46 133 46t123.5 -51t46.5 -134v-245h-77v245q0 52 -31 84.5t-81 32.5q-72 0 -114 -44v-318h-77v635h-200v65h477v-65h-200z" />
    <glyph glyph-name="afii10061" unicode="&#x40c;" horiz-adv-x="607" 
d="M77 0v700h78v-700h-78zM472 0l-308 359l288 341h97l-287 -341l310 -359h-100zM240 775l126 126l39 -39l-126 -126z" />
    <glyph glyph-name="uni040D" unicode="&#x40d;" horiz-adv-x="715" 
d="M294 901l126 -126l-39 -39l-126 126zM582 700h53v-700h-78v553l-425 -553h-52v700h77v-553z" />
    <glyph glyph-name="afii10062" unicode="&#x40e;" horiz-adv-x="619" 
d="M309 807q62 0 102 42l39 -39q-57 -59 -141 -59q-83 0 -141 60l39 39q41 -43 102 -43zM589 700l-352 -700h-84l120 220l-243 480h83l197 -390l195 390h84z" />
    <glyph glyph-name="afii10145" unicode="&#x40f;" horiz-adv-x="705" 
d="M316 0h-236v700h77v-635h390v635h78v-700h-236v-170h-73v170z" />
    <glyph glyph-name="afii10017" unicode="&#x410;" horiz-adv-x="731" 
d="M611 0l-83 200h-326l-82 -200h-90l299 700h73l298 -700h-89zM366 601l-136 -331h270z" />
    <glyph glyph-name="afii10018" unicode="&#x411;" horiz-adv-x="547" 
d="M80 0v700h357v-65h-277v-243h127q92 0 148.5 -53.5t56.5 -142.5t-56.5 -142.5t-148.5 -53.5h-207zM412 196q0 58 -34.5 93.5t-90.5 35.5h-127v-258h127q56 0 90.5 35.5t34.5 93.5z" />
    <glyph glyph-name="afii10019" unicode="&#x412;" horiz-adv-x="555" 
d="M80 0v700h192q84 0 136 -49.5t52 -131.5q0 -105 -81 -150q55 -19 87 -65.5t32 -110.5q0 -88 -55 -140.5t-145 -52.5h-218zM420 198q0 58 -34.5 93.5t-90.5 35.5h-135v-260h135q56 0 90.5 36t34.5 95zM382 513q0 54 -31.5 86.5t-83.5 32.5h-107v-237h107q52 0 83.5 32.5
t31.5 85.5z" />
    <glyph glyph-name="afii10020" unicode="&#x413;" horiz-adv-x="476" 
d="M80 0v700h350v-65h-273v-635h-77z" />
    <glyph glyph-name="afii10021" unicode="&#x414;" horiz-adv-x="690" 
d="M582 0h-475v-170h-72v232q53 0 89 55.5t36 139.5v443h422v-635h73v-235h-73v170zM240 257q0 -53 -17 -111t-44 -81h323v570h-262v-378z" />
    <glyph glyph-name="afii10022" unicode="&#x415;" horiz-adv-x="507" 
d="M157 635v-250h260v-65h-260v-255h298v-65h-375v700h370v-65h-293z" />
    <glyph glyph-name="afii10024" unicode="&#x416;" horiz-adv-x="916" 
d="M419 0v700h77v-700h-77zM789 0l-283 359l267 341h90l-267 -341l285 -359h-92zM409 359l-283 -359h-92l285 359l-267 341h90z" />
    <glyph glyph-name="afii10025" unicode="&#x417;" horiz-adv-x="555" 
d="M184 327v68h83q54 0 87 32.5t33 89.5q0 56 -32.5 89t-92.5 33q-88 0 -159 -71l-48 47q92 92 212 92q95 0 146.5 -51t51.5 -133q0 -109 -86 -154q55 -19 87 -65.5t32 -112.5q0 -91 -61 -145t-166 -54q-136 0 -226 95l49 49q70 -75 172 -75q74 0 114 37t40 99
q0 59 -34.5 94.5t-90.5 35.5h-111z" />
    <glyph glyph-name="afii10026" unicode="&#x418;" horiz-adv-x="715" 
d="M582 700h53v-700h-78v553l-425 -553h-52v700h77v-553z" />
    <glyph glyph-name="afii10027" unicode="&#x419;" horiz-adv-x="715" 
d="M357 807q62 0 102 42l39 -39q-57 -59 -141 -59q-83 0 -141 60l39 39q41 -43 102 -43zM582 700h53v-700h-78v553l-425 -553h-52v700h77v-553z" />
    <glyph glyph-name="afii10028" unicode="&#x41a;" horiz-adv-x="607" 
d="M77 0v700h78v-700h-78zM472 0l-308 359l288 341h97l-287 -341l310 -359h-100z" />
    <glyph glyph-name="afii10029" unicode="&#x41b;" horiz-adv-x="667" 
d="M42 0v50q57 0 87.5 42t30.5 118v490h427v-700h-80v635h-267v-421q0 -97 -41 -158t-106 -61q-33 0 -51 5z" />
    <glyph glyph-name="afii10030" unicode="&#x41c;" horiz-adv-x="818" 
d="M660 0v540l-234 -380h-34l-235 380v-540h-77v700h59l270 -431l270 431h59v-700h-78z" />
    <glyph glyph-name="afii10031" unicode="&#x41d;" horiz-adv-x="700" 
d="M157 700v-315h385v315h78v-700h-78v320h-385v-320h-77v700h77z" />
    <glyph glyph-name="afii10032" unicode="&#x41e;" horiz-adv-x="806" 
d="M54 350q0 159 96.5 258t252.5 99t252.5 -99t96.5 -258q0 -160 -96.5 -259t-252.5 -99t-252.5 99t-96.5 259zM134 350q0 -128 75 -208t194 -80q120 0 194.5 80t74.5 208t-74.5 207.5t-194.5 79.5q-119 0 -194 -80t-75 -207z" />
    <glyph glyph-name="afii10033" unicode="&#x41f;" horiz-adv-x="670" 
d="M80 700h510v-700h-78v635h-355v-635h-77v700z" />
    <glyph glyph-name="afii10034" unicode="&#x420;" horiz-adv-x="529" 
d="M80 0v700h190q92 0 148 -53.5t56 -143.5q0 -89 -56 -142.5t-148 -53.5h-110v-307h-80zM394 503q0 58 -34 93.5t-90 35.5h-110v-257h110q56 0 90 35t34 93z" />
    <glyph glyph-name="afii10035" unicode="&#x421;" horiz-adv-x="709" 
d="M135 350q0 -128 76.5 -208t199.5 -80q126 0 203 80l50 -49q-98 -101 -257 -101q-157 0 -254.5 99t-97.5 259q0 159 97.5 258t254.5 99q159 0 257 -101l-50 -50q-78 81 -203 81q-123 0 -199.5 -79.5t-76.5 -207.5z" />
    <glyph glyph-name="afii10036" unicode="&#x422;" horiz-adv-x="567" 
d="M322 635v-635h-77v635h-200v65h477v-65h-200z" />
    <glyph glyph-name="afii10037" unicode="&#x423;" horiz-adv-x="619" 
d="M589 700l-352 -700h-84l120 220l-243 480h83l197 -390l195 390h84z" />
    <glyph glyph-name="afii10038" unicode="&#x424;" horiz-adv-x="780" 
d="M351 0v67q-132 0 -214 78.5t-82 204.5q0 125 82 203.5t214 78.5v68h78v-68q132 0 214 -78t82 -204t-81.5 -204.5t-214.5 -78.5v-67h-78zM429 562v-425q97 0 156.5 59t59.5 154t-59.5 153.5t-156.5 58.5zM351 137v425q-96 0 -156 -59t-60 -153q0 -95 60 -154t156 -59z" />
    <glyph glyph-name="afii10039" unicode="&#x425;" horiz-adv-x="731" 
d="M572 0l-221 301l-219 -301h-99l262 354l-255 346h100l211 -292l213 292h100l-256 -346l263 -354h-99z" />
    <glyph glyph-name="afii10040" unicode="&#x426;" horiz-adv-x="735" 
d="M622 0h-542v700h77v-635h390v635h78v-635h70v-235h-73v170z" />
    <glyph glyph-name="afii10041" unicode="&#x427;" horiz-adv-x="588" 
d="M508 0h-75v314q-62 -19 -149 -19q-99 0 -151.5 55t-52.5 158v192h75v-189q0 -154 143 -154q85 0 135 20v323h75v-700z" />
    <glyph glyph-name="afii10042" unicode="&#x428;" horiz-adv-x="1002" 
d="M922 0h-842v700h77v-635h305v635h78v-635h305v635h77v-700z" />
    <glyph glyph-name="afii10043" unicode="&#x429;" horiz-adv-x="1032" 
d="M920 0h-840v700h77v-635h305v635h78v-635h305v635h77v-635h70v-235h-72v170z" />
    <glyph glyph-name="afii10044" unicode="&#x42a;" horiz-adv-x="659" 
d="M45 635v65h235v-308h120q92 0 148 -53.5t56 -142.5t-56 -142.5t-148 -53.5h-200v635h-155zM524 196q0 58 -34 93.5t-90 35.5h-120v-258h120q56 0 90 35.5t34 93.5z" />
    <glyph glyph-name="afii10045" unicode="&#x42b;" horiz-adv-x="742" 
d="M80 0v700h80v-308h120q92 0 148 -53.5t56 -142.5t-56 -142.5t-148 -53.5h-200zM404 196q0 58 -34 93.5t-90 35.5h-120v-258h120q56 0 90 35.5t34 93.5zM584 0v700h78v-700h-78z" />
    <glyph glyph-name="afii10046" unicode="&#x42c;" horiz-adv-x="539" 
d="M80 0v700h80v-308h120q92 0 148 -53.5t56 -142.5t-56 -142.5t-148 -53.5h-200zM404 196q0 58 -34 93.5t-90 35.5h-120v-258h120q56 0 90 35.5t34 93.5z" />
    <glyph glyph-name="afii10047" unicode="&#x42d;" horiz-adv-x="701" 
d="M94 556l-50 50q96 101 253 101q156 0 253 -99t97 -258q0 -160 -97 -259t-253 -99q-157 0 -253 101l50 49q75 -80 200 -80q114 0 188 71t82 187h-346v65h346q-10 113 -84 182.5t-186 69.5q-125 0 -200 -81z" />
    <glyph glyph-name="afii10048" unicode="&#x42e;" horiz-adv-x="1028" 
d="M156 700v-315h182q11 145 97 233.5t220 88.5q143 0 231 -99t88 -258q0 -160 -88 -259t-231 -99q-135 0 -221.5 90t-95.5 238h-182v-320h-77v700h77zM417 350q0 -128 66 -208t172 -80q107 0 173 80t66 208t-66 207.5t-173 79.5q-106 0 -172 -79.5t-66 -207.5z" />
    <glyph glyph-name="afii10049" unicode="&#x42f;" horiz-adv-x="554" 
d="M474 700v-700h-80v307h-105l-161 -307h-88l172 311q-72 13 -114.5 64t-42.5 128q0 90 56 143.5t148 53.5h215zM135 503q0 -58 34 -93t90 -35h135v257h-135q-56 0 -90 -35.5t-34 -93.5z" />
    <glyph glyph-name="afii10065" unicode="&#x430;" horiz-adv-x="453" 
d="M418 49v-50q-12 -5 -32 -5q-64 0 -83 51q-55 -53 -129 -53q-63 0 -97 37.5t-34 92.5q0 68 50.5 104t134.5 36q19 0 36 -2t24 -4l8 -1v60q0 33 -23 56.5t-71 23.5q-67 0 -103 -36l-39 39q59 59 148 59q79 0 121 -40.5t42 -101.5v-227q0 -39 47 -39zM196 55q59 0 100 42
v105q-23 7 -62 7q-116 0 -116 -79q0 -31 19 -53t59 -22z" />
    <glyph glyph-name="afii10066" unicode="&#x431;" horiz-adv-x="562" 
d="M450 755l17 -69l-176 -50q-51 -15 -84 -37.5t-51 -58.5t-25.5 -76.5t-10.5 -104.5h6q25 47 70 72.5t101 25.5q94 0 157 -65.5t63 -170.5q0 -103 -62.5 -166t-173.5 -63q-123 0 -174.5 84.5t-51.5 258.5q0 173 50 256t173 117zM141 224q0 -74 37.5 -119t106.5 -45
q70 0 112.5 45.5t42.5 119.5t-42.5 119.5t-111.5 45.5q-68 0 -106.5 -45t-38.5 -121z" />
    <glyph glyph-name="afii10067" unicode="&#x432;" horiz-adv-x="449" 
d="M72 0v450h180q59 0 93 -32t34 -83q0 -65 -54 -97q80 -28 80 -114q0 -56 -36.5 -90t-100.5 -34h-196zM256 207h-109v-150h109q33 0 53.5 21t20.5 54t-20.5 54t-53.5 21zM147 260h94q29 0 47 18.5t18 47.5t-18 47.5t-47 18.5h-94v-132z" />
    <glyph glyph-name="afii10068" unicode="&#x433;" horiz-adv-x="360" 
d="M147 390v-390h-75v450h255v-60h-180z" />
    <glyph glyph-name="afii10069" unicode="&#x434;" horiz-adv-x="542" 
d="M504 60v-200h-70v140h-332v-140h-70v200q39 0 66.5 33t27.5 86v271h315v-390h63zM199 390v-205q0 -81 -46 -125h213v330h-167z" />
    <glyph glyph-name="afii10070" unicode="&#x435;" horiz-adv-x="508" 
d="M465 204h-341q5 -66 47.5 -105t110.5 -39q75 0 119 46l45 -47q-65 -67 -169 -67t-168 64.5t-64 170.5q0 103 59.5 166.5t157.5 63.5q99 0 151 -67.5t52 -185.5zM262 391q-56 0 -93.5 -35.5t-44.5 -96.5h266q-7 62 -40 97t-88 35z" />
    <glyph glyph-name="afii10072" unicode="&#x436;" horiz-adv-x="651" 
d="M542 0l-179 233v-233h-75v234l-180 -234h-86l184 237l-167 213h86l163 -211v211h75v-209l162 209h87l-168 -213l184 -237h-86z" />
    <glyph glyph-name="afii10073" unicode="&#x437;" horiz-adv-x="404" 
d="M185 457q69 0 109 -33.5t40 -86.5q0 -68 -59 -102q80 -27 80 -114q0 -59 -43 -94t-123 -35q-53 0 -88.5 16.5t-69.5 50.5l42 43q44 -47 111 -47q46 0 71 21t25 56q0 33 -21 52.5t-54 19.5h-81v54h63q33 0 53 19t20 47q0 29 -21 50t-61 21q-58 0 -97 -43l-43 42
q60 63 147 63z" />
    <glyph glyph-name="afii10074" unicode="&#x438;" horiz-adv-x="532" 
d="M147 450v-329l253 329h60v-450h-75v329l-253 -329h-60v450h75z" />
    <glyph glyph-name="afii10075" unicode="&#x439;" horiz-adv-x="532" 
d="M266 582q62 0 102 42l39 -39q-57 -59 -141 -59q-83 0 -141 60l39 39q41 -43 102 -43zM147 450v-329l253 329h60v-450h-75v329l-253 -329h-60v450h75z" />
    <glyph glyph-name="afii10076" unicode="&#x43a;" horiz-adv-x="459" 
d="M147 0h-75v450h75v-208l183 208h90l-190 -213l206 -237h-89l-200 231v-231z" />
    <glyph glyph-name="afii10077" unicode="&#x43b;" horiz-adv-x="497" 
d="M32 0v50q83 0 83 105v295h310v-450h-75v390h-163v-238q0 -78 -30 -117.5t-84 -39.5q-26 0 -41 5z" />
    <glyph glyph-name="afii10078" unicode="&#x43c;" horiz-adv-x="599" 
d="M72 0v450h72l155 -269l156 269h71v-450h-70v331l-135 -241h-43l-136 241v-331h-70z" />
    <glyph glyph-name="afii10079" unicode="&#x43d;" horiz-adv-x="527" 
d="M147 450v-193h233v193h75v-450h-75v197h-233v-197h-75v450h75z" />
    <glyph glyph-name="afii10080" unicode="&#x43e;" horiz-adv-x="549" 
d="M44 225q0 104 63.5 168t166.5 64t167 -64.5t64 -167.5q0 -104 -64 -168.5t-167 -64.5t-166.5 64.5t-63.5 168.5zM121 225q0 -74 42.5 -119.5t110.5 -45.5t110.5 46t42.5 119t-42.5 119t-110.5 46t-110.5 -45.5t-42.5 -119.5z" />
    <glyph glyph-name="afii10081" unicode="&#x43f;" horiz-adv-x="517" 
d="M370 0v390h-223v-390h-75v450h373v-450h-75z" />
    <glyph glyph-name="afii10082" unicode="&#x440;" horiz-adv-x="541" 
d="M72 450h75v-38q54 45 133 45q97 0 156.5 -64t59.5 -168t-63 -168.5t-165 -64.5q-69 0 -121 32v-274h-75v700zM418 225q0 73 -43.5 119t-113.5 46q-71 0 -114 -45v-243q42 -42 114 -42q70 0 113.5 46t43.5 119z" />
    <glyph glyph-name="afii10083" unicode="&#x441;" horiz-adv-x="477" 
d="M122 225q0 -73 43.5 -119t113.5 -46q73 0 116 46l47 -47q-65 -67 -167 -67q-103 0 -166.5 64.5t-63.5 168.5t63.5 168t166.5 64q102 0 167 -68l-47 -46q-44 47 -116 47q-70 0 -113.5 -46t-43.5 -119z" />
    <glyph glyph-name="afii10084" unicode="&#x442;" horiz-adv-x="414" 
d="M245 390v-390h-75v390h-140v60h355v-60h-140z" />
    <glyph glyph-name="afii10085" unicode="&#x443;" horiz-adv-x="493" 
d="M477 450l-308 -700h-83l125 250l-196 450h84l147 -360l148 360h83z" />
    <glyph glyph-name="afii10086" unicode="&#x444;" horiz-adv-x="680" 
d="M402 -5q-17 0 -25 1v-246h-75v246q-8 -1 -25 -1q-104 0 -168 63t-64 167q0 103 64 166.5t168 63.5q9 0 25 -2v297h75v-297q16 2 25 2q104 0 168.5 -63.5t64.5 -166.5q0 -104 -64 -167t-169 -63zM402 390q-9 0 -25 -2v-327q8 -1 25 -1q69 0 112 46t43 119t-43 119t-112 46
zM122 225q0 -73 43 -119t112 -46q17 0 25 1v327q-16 2 -25 2q-69 0 -112 -46t-43 -119z" />
    <glyph glyph-name="afii10087" unicode="&#x445;" horiz-adv-x="498" 
d="M372 0l-133 181l-132 -181h-87l170 229l-163 221h88l124 -172l125 172h87l-163 -221l171 -229h-87z" />
    <glyph glyph-name="afii10088" unicode="&#x446;" horiz-adv-x="535" 
d="M72 0v450h75v-390h220v390h75v-390h63v-200h-70v140h-363z" />
    <glyph glyph-name="afii10089" unicode="&#x447;" horiz-adv-x="465" 
d="M393 0h-75v187q-47 -17 -105 -17q-74 0 -113.5 39t-39.5 109v132h75v-129q0 -41 23.5 -65t71.5 -24q53 0 88 20v198h75v-450z" />
    <glyph glyph-name="afii10090" unicode="&#x448;" horiz-adv-x="710" 
d="M562 60v390h75v-450h-565v450h75v-390h170v390h75v-390h170z" />
    <glyph glyph-name="afii10091" unicode="&#x449;" horiz-adv-x="730" 
d="M72 0v450h75v-390h170v390h75v-390h170v390h75v-390h63v-200h-70v140h-558z" />
    <glyph glyph-name="afii10092" unicode="&#x44a;" horiz-adv-x="508" 
d="M321 0h-166v390h-120v60h195v-188h91q67 0 105.5 -36.5t38.5 -94.5t-38.5 -94.5t-105.5 -36.5zM318 205h-88v-148h88q32 0 52 21t20 53t-20 53t-52 21z" />
    <glyph glyph-name="afii10093" unicode="&#x44b;" horiz-adv-x="603" 
d="M72 0v450h75v-188h91q68 0 106.5 -36.5t38.5 -94.5t-38.5 -94.5t-106.5 -36.5h-166zM236 205h-89v-148h89q31 0 51.5 21t20.5 53t-20.5 53t-51.5 21zM455 0v450h75v-450h-75z" />
    <glyph glyph-name="afii10094" unicode="&#x44c;" horiz-adv-x="425" 
d="M72 0v450h75v-188h91q68 0 106.5 -36.5t38.5 -94.5t-38.5 -94.5t-106.5 -36.5h-166zM236 205h-89v-148h89q31 0 51.5 21t20.5 53t-20.5 53t-51.5 21z" />
    <glyph glyph-name="afii10095" unicode="&#x44d;" horiz-adv-x="475" 
d="M150 199v57h202q-9 61 -52 97.5t-105 36.5q-74 0 -116 -47l-46 47q62 67 166 67q103 0 167 -64t64 -168t-64 -168.5t-167 -64.5t-166 68l46 47q42 -47 116 -47q63 0 106.5 38t51.5 101h-203z" />
    <glyph glyph-name="afii10096" unicode="&#x44e;" horiz-adv-x="739" 
d="M146 450v-193h109q10 90 70 145t150 55q98 0 159 -64t61 -168t-61 -168.5t-159 -64.5q-92 0 -152 56t-68 149h-109v-197h-75v450h75zM332 225q0 -73 40 -119t103 -46q64 0 103.5 45.5t39.5 119.5t-39.5 119.5t-103.5 45.5q-63 0 -103 -46t-40 -119z" />
    <glyph glyph-name="afii10097" unicode="&#x44f;" horiz-adv-x="468" 
d="M395 450v-450h-75v184h-80l-109 -184h-79l116 188q-51 10 -78.5 44.5t-27.5 84.5q0 60 39 96.5t108 36.5h186zM212 242h108v150h-108q-33 0 -54 -21t-21 -54t21 -54t54 -21z" />
    <glyph glyph-name="uni0450" unicode="&#x450;" horiz-adv-x="508" 
d="M465 204h-341q5 -66 47.5 -105t110.5 -39q75 0 119 46l45 -47q-65 -67 -169 -67t-168 64.5t-64 170.5q0 103 59.5 166.5t157.5 63.5q99 0 151 -67.5t52 -185.5zM262 391q-56 0 -93.5 -35.5t-44.5 -96.5h266q-7 62 -40 97t-88 35zM197 676l126 -126l-39 -39l-126 126z" />
    <glyph glyph-name="afii10071" unicode="&#x451;" horiz-adv-x="508" 
d="M465 204h-341q5 -66 47.5 -105t110.5 -39q75 0 119 46l45 -47q-65 -67 -169 -67t-168 64.5t-64 170.5q0 103 59.5 166.5t157.5 63.5q99 0 151 -67.5t52 -185.5zM262 391q-56 0 -93.5 -35.5t-44.5 -96.5h266q-7 62 -40 97t-88 35zM119 562q0 20 13.5 34t33.5 14t34 -14
t14 -34t-14 -33.5t-34 -13.5t-33.5 13.5t-13.5 33.5zM306 562q0 20 14 34t34 14t34 -14t14 -34t-14 -33.5t-34 -13.5t-34 13.5t-14 33.5z" />
    <glyph glyph-name="afii10099" unicode="&#x452;" horiz-adv-x="538" 
d="M333 -250v50q25 0 40 13.5t15 39.5v419q0 53 -31 85.5t-81 32.5q-71 0 -114 -45v-345h-75v590h-57v60h57v100h75v-100h173v-60h-173v-178q54 45 132 45q76 0 122.5 -51t46.5 -134v-421q0 -49 -26 -77.5t-71 -28.5q-21 0 -33 5z" />
    <glyph glyph-name="afii10100" unicode="&#x453;" horiz-adv-x="360" 
d="M136 550l126 126l39 -39l-126 -126zM147 390v-390h-75v450h255v-60h-180z" />
    <glyph glyph-name="afii10101" unicode="&#x454;" horiz-adv-x="472" 
d="M276 390q-61 0 -103 -36.5t-52 -97.5h229v-57h-230q8 -63 50.5 -101t105.5 -38q73 0 114 46l47 -47q-64 -67 -165 -67q-102 0 -165 64.5t-63 168.5t63 168t165 64t165 -68l-47 -46q-42 47 -114 47z" />
    <glyph glyph-name="afii10102" unicode="&#x455;" horiz-adv-x="382" 
d="M325 403l-44 -44q-14 15 -39.5 25t-48.5 10q-33 0 -50 -19.5t-17 -43.5q0 -19 14.5 -34t28.5 -21.5t50 -21.5q28 -12 44.5 -20.5t36 -23.5t28.5 -35.5t9 -46.5q0 -55 -39.5 -95.5t-110.5 -40.5q-92 0 -148 61l44 44q36 -42 99 -42q40 0 60 21.5t20 48.5q0 25 -19.5 39
t-69.5 35q-29 11 -46.5 20.5t-37 24.5t-29 36t-9.5 49q0 53 35 90.5t101 37.5q86 0 138 -54z" />
    <glyph glyph-name="afii10103" unicode="&#x456;" 
d="M72 0v450h75v-450h-75zM60 585q0 21 14.5 35.5t35.5 14.5t35.5 -14.5t14.5 -35.5t-14.5 -35.5t-35.5 -14.5t-35.5 14.5t-14.5 35.5z" />
    <glyph glyph-name="afii10104" unicode="&#x457;" 
d="M72 0v450h75v-450h-75zM-14 560q0 20 14 33.5t33 13.5q20 0 34 -13.5t14 -33.5t-14 -34t-34 -14t-33.5 14t-13.5 34zM138 560q0 20 14 34t34 14t34 -14t14 -34t-14 -34t-34 -14t-34 14t-14 34z" />
    <glyph glyph-name="afii10105" unicode="&#x458;" 
d="M60 585q0 21 14.5 35.5t35.5 14.5t35.5 -14.5t14.5 -35.5t-14.5 -35.5t-35.5 -14.5t-35.5 14.5t-14.5 35.5zM7 -250v50q65 0 65 63v587h75v-589q0 -54 -28.5 -85t-76.5 -31q-23 0 -35 5z" />
    <glyph glyph-name="afii10106" unicode="&#x459;" horiz-adv-x="698" 
d="M350 0v390h-158v-243q0 -152 -117 -152q-27 0 -40 5v50q41 0 61.5 22t20.5 78v300h308v-188h91q67 0 105.5 -36.5t38.5 -94.5t-38.5 -94.5t-105.5 -36.5h-166zM513 205h-88v-148h88q32 0 52 21t20 53t-20 53t-52 21z" />
    <glyph glyph-name="afii10107" unicode="&#x45a;" horiz-adv-x="728" 
d="M147 450v-191h228v191h75v-191h97q66 0 103.5 -35.5t37.5 -94.5q0 -58 -37.5 -93.5t-103.5 -35.5h-172v199h-228v-199h-75v450h75zM545 199h-95v-142h95q30 0 49 20t19 51q0 32 -19 51.5t-49 19.5z" />
    <glyph glyph-name="afii10108" unicode="&#x45b;" horiz-adv-x="538" 
d="M30 590v60h57v100h75v-100h173v-60h-173v-178q54 45 132 45q76 0 122.5 -51t46.5 -134v-272h-75v272q0 53 -31 85.5t-81 32.5q-71 0 -114 -45v-345h-75v590h-57z" />
    <glyph glyph-name="afii10109" unicode="&#x45c;" horiz-adv-x="459" 
d="M147 0h-75v450h75v-208l183 208h90l-190 -213l206 -237h-89l-200 231v-231zM170 550l126 126l39 -39l-126 -126z" />
    <glyph glyph-name="uni045D" unicode="&#x45d;" horiz-adv-x="532" 
d="M202 676l126 -126l-39 -39l-126 126zM147 450v-329l253 329h60v-450h-75v329l-253 -329h-60v450h75z" />
    <glyph glyph-name="afii10110" unicode="&#x45e;" horiz-adv-x="493" 
d="M477 450l-308 -700h-83l125 250l-196 450h84l147 -360l148 360h83zM247 582q62 0 102 42l39 -39q-57 -59 -141 -59q-83 0 -141 60l39 39q41 -43 102 -43z" />
    <glyph glyph-name="afii10193" unicode="&#x45f;" horiz-adv-x="517" 
d="M223 -140v140h-151v450h75v-390h222v390h75v-450h-151v-140h-70z" />
    <glyph glyph-name="afii10050" unicode="&#x490;" horiz-adv-x="473" 
d="M157 635v-635h-77v700h275v125h60v-190h-258z" />
    <glyph glyph-name="afii10098" unicode="&#x491;" horiz-adv-x="365" 
d="M147 390v-390h-75v450h185v100h60v-160h-170z" />
    <glyph glyph-name="uni04D8" unicode="&#x4d8;" horiz-adv-x="747" 
d="M693 350q0 -160 -88.5 -259t-231.5 -99q-142 0 -230.5 99t-88.5 259v30h557q-10 115 -84 186t-187 71q-126 0 -200 -80l-50 49q96 101 253 101q156 0 253 -99t97 -258zM373 62q99 0 164 69.5t73 183.5h-473q8 -114 72.5 -183.5t163.5 -69.5z" />
    <glyph glyph-name="afii10846" unicode="&#x4d9;" horiz-adv-x="503" 
d="M42 245h341q-5 66 -47.5 105.5t-110.5 39.5q-75 0 -119 -47l-45 47q64 67 169 67q104 0 168 -64.5t64 -170.5q0 -102 -59.5 -166t-155.5 -64q-97 0 -151 68t-54 185zM245 58q56 0 93.5 36t44.5 97h-266q7 -62 40 -97.5t88 -35.5z" />
    <glyph glyph-name="Wgrave" unicode="&#x1e80;" horiz-adv-x="1094" 
d="M1064 700l-251 -700h-79l-188 567l-186 -567h-79l-251 700h90l200 -581l186 581h81l187 -581l200 581h90zM484 901l126 -126l-39 -39l-126 126z" />
    <glyph glyph-name="wgrave" unicode="&#x1e81;" horiz-adv-x="745" 
d="M729 450l-167 -450h-78l-112 345l-111 -345h-79l-167 450h86l120 -359l113 359h76l113 -359l120 359h86zM310 676l126 -126l-39 -39l-126 126z" />
    <glyph glyph-name="Wacute" unicode="&#x1e82;" horiz-adv-x="1094" 
d="M1064 700l-251 -700h-79l-188 567l-186 -567h-79l-251 700h90l200 -581l186 581h81l187 -581l200 581h90zM483 775l126 126l39 -39l-126 -126z" />
    <glyph glyph-name="wacute" unicode="&#x1e83;" horiz-adv-x="745" 
d="M729 450l-167 -450h-78l-112 345l-111 -345h-79l-167 450h86l120 -359l113 359h76l113 -359l120 359h86zM310 550l126 126l39 -39l-126 -126z" />
    <glyph glyph-name="Wdieresis" unicode="&#x1e84;" horiz-adv-x="1094" 
d="M1064 700l-251 -700h-79l-188 567l-186 -567h-79l-251 700h90l200 -581l186 581h81l187 -581l200 581h90zM405 797q0 20 13.5 34t33.5 14t34 -14t14 -34t-14 -33.5t-34 -13.5t-33.5 14t-13.5 33zM592 797q0 20 14 34t34 14t34 -14t14 -34t-14 -33.5t-34 -13.5t-34 13.5
t-14 33.5z" />
    <glyph glyph-name="wdieresis" unicode="&#x1e85;" horiz-adv-x="745" 
d="M729 450l-167 -450h-78l-112 345l-111 -345h-79l-167 450h86l120 -359l113 359h76l113 -359l120 359h86zM232 572q0 20 13.5 34t33.5 14t34 -14t14 -34t-14 -33.5t-34 -13.5q-19 0 -33 13.5t-14 33.5zM419 572q0 20 14 34t34 14t34 -14t14 -34t-14 -33.5t-34 -13.5
t-34 13.5t-14 33.5z" />
    <glyph glyph-name="Ygrave" unicode="&#x1ef2;" horiz-adv-x="677" 
d="M299 0v301l-267 399h90l216 -322l216 322h90l-267 -400v-300h-78zM275 901l126 -126l-39 -39l-126 126z" />
    <glyph glyph-name="ygrave" unicode="&#x1ef3;" horiz-adv-x="493" 
d="M477 450l-308 -700h-83l125 250l-196 450h84l147 -360l148 360h83zM184 676l126 -126l-39 -39l-126 126z" />
    <glyph glyph-name="figuredash" unicode="&#x2012;" horiz-adv-x="500" 
d="M60 320v60h380v-60h-380z" />
    <glyph glyph-name="endash" unicode="&#x2013;" horiz-adv-x="500" 
d="M60 235v60h380v-60h-380z" />
    <glyph glyph-name="emdash" unicode="&#x2014;" horiz-adv-x="700" 
d="M60 235v60h580v-60h-580z" />
    <glyph glyph-name="quoteleft" unicode="&#x2018;" 
d="M139 707l26 -26q-39 -41 -47 -74q18 -3 30 -16.5t12 -32.5q0 -21 -14.5 -35.5t-35.5 -14.5q-20 0 -35 14.5t-15 43.5q0 64 79 141z" />
    <glyph glyph-name="quoteright" unicode="&#x2019;" 
d="M81 508l-26 27q39 41 47 73q-18 3 -30 16.5t-12 32.5q0 21 14.5 35.5t35.5 14.5t35.5 -14t14.5 -44q0 -62 -79 -141z" />
    <glyph glyph-name="quotesinglbase" unicode="&#x201a;" 
d="M81 -107l-26 27q39 41 47 73q-18 3 -30 16.5t-12 32.5q0 21 14.5 35.5t35.5 14.5t35.5 -14t14.5 -44q0 -62 -79 -141z" />
    <glyph glyph-name="quotedblleft" unicode="&#x201c;" horiz-adv-x="355" 
d="M274 732l26 -26q-39 -41 -47 -74q18 -3 30 -16.5t12 -32.5q0 -21 -14.5 -35.5t-35.5 -14.5q-20 0 -35 14.5t-15 43.5q0 64 79 141zM139 732l26 -26q-39 -41 -47 -74q18 -3 30 -16.5t12 -32.5q0 -21 -14.5 -35.5t-35.5 -14.5q-20 0 -35 14.5t-15 43.5q0 64 79 141z" />
    <glyph glyph-name="quotedblright" unicode="&#x201d;" horiz-adv-x="355" 
d="M81 533l-26 27q39 41 47 73q-18 3 -30 16.5t-12 32.5q0 21 14.5 35.5t35.5 14.5t35.5 -14t14.5 -44q0 -62 -79 -141zM216 533l-26 27q39 41 47 73q-18 3 -30 16.5t-12 32.5q0 21 14.5 35.5t35.5 14.5t35.5 -14t14.5 -44q0 -62 -79 -141z" />
    <glyph glyph-name="quotedblbase" unicode="&#x201e;" horiz-adv-x="355" 
d="M81 -107l-26 27q39 41 47 73q-18 3 -30 16.5t-12 32.5q0 21 14.5 35.5t35.5 14.5t35.5 -14t14.5 -44q0 -62 -79 -141zM216 -107l-26 27q39 41 47 73q-18 3 -30 16.5t-12 32.5q0 21 14.5 35.5t35.5 14.5t35.5 -14t14.5 -44q0 -62 -79 -141z" />
    <glyph glyph-name="dagger" unicode="&#x2020;" horiz-adv-x="500" 
d="M60 390v60h152v300h75v-300h153v-60h-153v-640h-75v640h-152z" />
    <glyph glyph-name="daggerdbl" unicode="&#x2021;" horiz-adv-x="500" 
d="M60 65v60h152v265h-152v60h152v300h75v-300h153v-60h-153v-265h153v-60h-153v-315h-75v315h-152z" />
    <glyph glyph-name="bullet" unicode="&#x2022;" horiz-adv-x="259" 
d="M57 275q0 30 21 51t51 21q31 0 51.5 -21t20.5 -51q0 -31 -20.5 -51.5t-51.5 -20.5q-30 0 -51 20.5t-21 51.5z" />
    <glyph glyph-name="ellipsis" unicode="&#x2026;" horiz-adv-x="660" 
d="M60 42q0 21 14.5 35.5t35.5 14.5t35.5 -14.5t14.5 -35.5t-14.5 -35.5t-35.5 -14.5t-35.5 14.5t-14.5 35.5zM280 42q0 21 14.5 35.5t35.5 14.5t35.5 -14.5t14.5 -35.5t-14.5 -35.5t-35.5 -14.5t-35.5 14.5t-14.5 35.5zM500 42q0 21 14.5 35.5t35.5 14.5t35.5 -14.5
t14.5 -35.5t-14.5 -35.5t-35.5 -14.5t-35.5 14.5t-14.5 35.5z" />
    <glyph glyph-name="perthousand" unicode="&#x2030;" horiz-adv-x="1250" 
d="M206 0l369 700h76l-368 -700h-77zM40 537q0 76 47 123t123 47t123 -47t47 -123t-47 -123t-123 -47t-123 47t-47 123zM107 537q0 -50 28.5 -81t74.5 -31q45 0 73.5 31.5t28.5 80.5q0 50 -28.5 81.5t-73.5 31.5q-46 0 -74.5 -31.5t-28.5 -81.5zM477 162q0 76 47 123t123 47
t123 -47t47 -123t-47 -123t-123 -47t-123 47t-47 123zM545 162q0 -49 28.5 -80.5t73.5 -31.5q46 0 74.5 31t28.5 81t-28.5 81.5t-74.5 31.5q-45 0 -73.5 -31.5t-28.5 -81.5zM870 162q0 76 47 123t123 47t123 -47t47 -123t-47 -123t-123 -47t-123 47t-47 123zM937 162
q0 -50 28.5 -81t74.5 -31q45 0 73.5 31.5t28.5 80.5q0 50 -28.5 81.5t-73.5 31.5q-46 0 -74.5 -31.5t-28.5 -81.5z" />
    <glyph glyph-name="guilsinglleft" unicode="&#x2039;" horiz-adv-x="300" 
d="M206 79l-171 171l171 171l39 -39l-132 -132l132 -132z" />
    <glyph glyph-name="guilsinglright" unicode="&#x203a;" horiz-adv-x="300" 
d="M260 250l-171 -171l-39 39l132 132l-132 132l39 39z" />
    <glyph glyph-name="fraction" unicode="&#x2044;" horiz-adv-x="550" 
d="M52 0l369 700h76l-368 -700h-77z" />
    <glyph glyph-name="Euro" unicode="&#x20ac;" horiz-adv-x="756" 
d="M45 395v45h66q26 122 118.5 194.5t225.5 72.5q158 0 256 -101l-50 -50q-76 81 -203 81q-99 0 -169.5 -53t-95.5 -144h267v-45h-275q-3 -23 -3 -45q0 -24 3 -45h275v-45h-267q25 -91 95.5 -144.5t169.5 -53.5q126 0 203 80l50 -49q-98 -101 -256 -101q-133 0 -225.5 72.5
t-118.5 195.5h-66v45h59q-2 28 -2 45q0 15 2 45h-59z" />
    <glyph glyph-name="uni20B4" unicode="&#x20b4;" horiz-adv-x="437" 
d="M47 390v45h208l13 13q22 22 32.5 41.5t10.5 48.5q0 44 -30.5 72.5t-77.5 28.5q-67 0 -106 -47l-48 48q58 67 154 67q82 0 133 -46.5t51 -120.5q0 -57 -38 -105h41v-45h-83l-78 -78h161v-45h-206l-15 -15q-22 -22 -32.5 -41.5t-10.5 -48.5q0 -45 30.5 -73.5t77.5 -28.5
q66 0 106 48l48 -49q-59 -67 -154 -67q-82 0 -133 46.5t-51 120.5q0 58 40 108h-43v45h85l78 78h-163z" />
    <glyph glyph-name="uni20BD" unicode="&#x20bd;" horiz-adv-x="554" 
d="M30 315v60h75v325h190q92 0 148 -53.5t56 -143.5q0 -89 -56 -142.5t-148 -53.5h-110v-92h210v-60h-210v-155h-80v155h-75v60h75v100h-75zM419 503q0 58 -34 93.5t-90 35.5h-110v-257h110q56 0 90 35t34 93z" />
    <glyph glyph-name="afii61352" unicode="&#x2116;" horiz-adv-x="995" 
d="M75 700h52l433 -553v553h77v-700h-52l-433 553v-553h-77v700zM709 576q0 57 35.5 92.5t92.5 35.5q58 0 93.5 -35.5t35.5 -92.5q0 -58 -35.5 -93.5t-93.5 -35.5q-57 0 -92.5 35.5t-35.5 93.5zM758 576q0 -39 22 -62.5t57 -23.5q36 0 58 23.5t22 62.5q0 38 -22 61.5
t-58 23.5q-35 0 -57 -23.5t-22 -61.5z" />
    <glyph glyph-name="trademark" unicode="&#x2122;" horiz-adv-x="684" 
d="M167 661v-311h-47v311h-97v39h241v-39h-97zM598 350v255l-111 -178h-18l-111 178v-255h-47v350h35l132 -206l131 206h36v-350h-47z" />
    <glyph glyph-name="arrowleft" unicode="&#x2190;" horiz-adv-x="993" 
d="M405 -4l-354 354l354 354l49 -50l-270 -269h733v-70h-733l270 -269z" />
    <glyph glyph-name="arrowup" unicode="&#x2191;" horiz-adv-x="809" 
d="M370 -162v733l-270 -270l-49 49l354 354l353 -354l-49 -49l-269 270v-733h-70z" />
    <glyph glyph-name="arrowright" unicode="&#x2192;" horiz-adv-x="993" 
d="M76 315v70h732l-269 269l49 50l354 -354l-354 -354l-50 50l270 269h-732z" />
    <glyph glyph-name="arrowdown" unicode="&#x2193;" horiz-adv-x="809" 
d="M405 -166l-354 354l49 49l270 -270v733h70v-733l269 270l49 -49z" />
    <glyph glyph-name="uni2196" unicode="&#x2196;" horiz-adv-x="764" 
d="M76 132v500h500v-70h-381l518 -518l-49 -49l-518 518v-381h-70z" />
    <glyph glyph-name="uni2197" unicode="&#x2197;" horiz-adv-x="764" 
d="M188 562v70h500v-500h-70v381l-518 -518l-49 49l518 518h-381z" />
    <glyph glyph-name="uni2198" unicode="&#x2198;" horiz-adv-x="764" 
d="M188 0v70h381l-518 518l49 49l518 -518v381h70v-500h-500z" />
    <glyph glyph-name="uni2199" unicode="&#x2199;" horiz-adv-x="764" 
d="M76 0v500h70v-381l518 518l49 -49l-518 -518h381v-70h-500z" />
    <glyph glyph-name="minus" unicode="&#x2212;" horiz-adv-x="435" 
d="M60 272v60h315v-60h-315z" />
    <glyph glyph-name="commaaccent" unicode="&#xf6c3;" 
d="M85 -219l-23 22q36 38 41 65q-15 2 -25.5 14t-10.5 28q0 18 12.5 30t30.5 12t30 -12t12 -37q0 -57 -67 -122z" />
    <glyph glyph-name="T_h" horiz-adv-x="1009" 
d="M322 635v-635h-77v635h-200v65h509v50h75v-337q55 44 131 44q77 0 123 -51t46 -134v-272h-75v272q0 53 -31 85.5t-80 32.5q-71 0 -114 -45v-345h-75v635h-232z" />
    <glyph glyph-name="T_h.caron" horiz-adv-x="1009" 
d="M322 635v-635h-77v635h-200v65h509v50h75v-337q55 44 131 44q77 0 123 -51t46 -134v-272h-75v272q0 53 -31 85.5t-80 32.5q-71 0 -114 -45v-345h-75v635h-232zM283 736l-126 126l39 39l87 -87l87 87l39 -39z" />
    <glyph glyph-name="T_h.commaaccent" horiz-adv-x="1009" 
d="M322 635v-635h-77v635h-200v65h509v50h75v-337q55 44 131 44q77 0 123 -51t46 -134v-272h-75v272q0 53 -31 85.5t-80 32.5q-71 0 -114 -45v-345h-75v635h-232zM261 -219l-23 22q36 38 41 65q-15 2 -25.5 14t-10.5 28q0 18 12.5 30t30.5 12t30 -12t12 -37q0 -57 -67 -122z
" />
    <glyph glyph-name="A.smcp" horiz-adv-x="564" 
d="M456 0l-57 134h-235l-57 -134h-78l221 504h63l221 -504h-78zM282 417l-94 -223h187z" />
    <glyph glyph-name="Aacute.smcp" horiz-adv-x="564" 
d="M456 0l-57 134h-235l-57 -134h-78l221 504h63l221 -504h-78zM282 417l-94 -223h187zM213 556l126 126l39 -39l-126 -126z" />
    <glyph glyph-name="Abreve.smcp" horiz-adv-x="564" 
d="M456 0l-57 134h-235l-57 -134h-78l221 504h63l221 -504h-78zM282 417l-94 -223h187zM281 588q62 0 102 42l39 -39q-57 -59 -141 -59q-83 0 -141 60l39 39q41 -43 102 -43z" />
    <glyph glyph-name="Acircumflex.smcp" horiz-adv-x="564" 
d="M456 0l-57 134h-235l-57 -134h-78l221 504h63l221 -504h-78zM282 417l-94 -223h187zM281 682l126 -126l-39 -39l-87 87l-87 -87l-39 39z" />
    <glyph glyph-name="Agrave.smcp" horiz-adv-x="564" 
d="M456 0l-57 134h-235l-57 -134h-78l221 504h63l221 -504h-78zM282 417l-94 -223h187zM224 682l126 -126l-39 -39l-126 126z" />
    <glyph glyph-name="Adieresis.smcp" horiz-adv-x="564" 
d="M456 0l-57 134h-235l-57 -134h-78l221 504h63l221 -504h-78zM282 417l-94 -223h187zM140 578q0 20 13.5 34t33.5 14t34 -14t14 -34t-14 -33.5t-34 -13.5q-19 0 -33 13.5t-14 33.5zM327 578q0 20 14 34t34 14t34 -14t14 -34t-14 -33.5t-34 -13.5t-34 13.5t-14 33.5z" />
    <glyph glyph-name="Amacron.smcp" horiz-adv-x="564" 
d="M456 0l-57 134h-235l-57 -134h-78l221 504h63l221 -504h-78zM282 417l-94 -223h187zM159 547v48h245v-48h-245z" />
    <glyph glyph-name="Aogonek.smcp" horiz-adv-x="564" 
d="M485 -39q0 -27 15.5 -42t39.5 -15q25 0 40 15l28 -27q-26 -27 -68 -27t-68 26.5t-26 69.5q0 22 10 39l-57 134h-235l-57 -134h-78l221 504h63l221 -504h-39q-10 -17 -10 -39zM282 417l-94 -223h187z" />
    <glyph glyph-name="Aring.smcp" horiz-adv-x="564" 
d="M456 0l-57 134h-235l-57 -134h-78l221 504h63l221 -504h-78zM282 417l-94 -223h187zM194 601q0 40 24.5 65t63.5 25q40 0 64 -24.5t24 -65.5t-24 -65.5t-64 -24.5q-39 0 -63.5 25t-24.5 65zM230 600q0 -24 14.5 -38.5t37.5 -14.5t37.5 14.5t14.5 38.5t-14.5 39t-37.5 15
t-37.5 -14.5t-14.5 -39.5z" />
    <glyph glyph-name="Atilde.smcp" horiz-adv-x="564" 
d="M456 0l-57 134h-235l-57 -134h-78l221 504h63l221 -504h-78zM282 417l-94 -223h187zM185 543h-43q0 39 23.5 63.5t60.5 24.5q32 0 60.5 -24t47.5 -24q18 0 30 12.5t12 31.5h43q0 -40 -23.5 -64t-61.5 -24q-32 0 -60 24t-47 24q-18 0 -30 -12t-12 -32z" />
    <glyph glyph-name="AE.smcp" horiz-adv-x="601" 
d="M360 448v-167h169v-56h-169v-169h196v-56h-264v134h-123l-60 -134h-78l229 504h293v-56h-193zM193 194h99v224z" />
    <glyph glyph-name="AEacute.smcp" horiz-adv-x="601" 
d="M360 448v-167h169v-56h-169v-169h196v-56h-264v134h-123l-60 -134h-78l229 504h293v-56h-193zM193 194h99v224zM251 556l126 126l39 -39l-126 -126z" />
    <glyph glyph-name="B.smcp" horiz-adv-x="433" 
d="M64 0v504h148q64 0 103 -36t39 -96q0 -70 -57 -106q39 -14 62 -47.5t23 -78.5q0 -63 -42 -101.5t-110 -38.5h-166zM314 145q0 39 -23.5 62.5t-62.5 23.5h-94v-173h94q39 0 62.5 23.5t23.5 63.5zM286 367q0 36 -21.5 57.5t-56.5 21.5h-74v-157h74q35 0 56.5 21.5
t21.5 56.5z" />
    <glyph glyph-name="C.smcp" horiz-adv-x="543" 
d="M118 252q0 -88 54.5 -143t141.5 -55q91 0 144 55l44 -43q-75 -72 -191 -72q-117 0 -189.5 71.5t-72.5 186.5t72.5 186.5t189.5 71.5q116 0 191 -73l-44 -43q-53 55 -144 55q-87 0 -141.5 -54.5t-54.5 -142.5z" />
    <glyph glyph-name="Cacute.smcp" horiz-adv-x="543" 
d="M118 252q0 -88 54.5 -143t141.5 -55q91 0 144 55l44 -43q-75 -72 -191 -72q-117 0 -189.5 71.5t-72.5 186.5t72.5 186.5t189.5 71.5q116 0 191 -73l-44 -43q-53 55 -144 55q-87 0 -141.5 -54.5t-54.5 -142.5zM227 559l126 126l39 -39l-126 -126z" />
    <glyph glyph-name="Ccaron.smcp" horiz-adv-x="543" 
d="M118 252q0 -88 54.5 -143t141.5 -55q91 0 144 55l44 -43q-75 -72 -191 -72q-117 0 -189.5 71.5t-72.5 186.5t72.5 186.5t189.5 71.5q116 0 191 -73l-44 -43q-53 55 -144 55q-87 0 -141.5 -54.5t-54.5 -142.5zM294 517l-126 126l39 39l87 -87l87 87l39 -39z" />
    <glyph glyph-name="Ccedilla.smcp" horiz-adv-x="543" 
d="M118 252q0 -88 54.5 -143t141.5 -55q91 0 144 55l44 -43q-71 -68 -178 -72v-39q66 -12 66 -77q0 -35 -23 -57t-60 -22t-61 24l26 26q14 -14 35 -14t34 12t13 33q0 46 -65 46v69q-108 7 -174 77t-66 180q0 115 72.5 186.5t189.5 71.5q116 0 191 -73l-44 -43
q-53 55 -144 55q-87 0 -141.5 -54.5t-54.5 -142.5z" />
    <glyph glyph-name="Ccircumflex.smcp" horiz-adv-x="543" 
d="M118 252q0 -88 54.5 -143t141.5 -55q91 0 144 55l44 -43q-75 -72 -191 -72q-117 0 -189.5 71.5t-72.5 186.5t72.5 186.5t189.5 71.5q116 0 191 -73l-44 -43q-53 55 -144 55q-87 0 -141.5 -54.5t-54.5 -142.5zM295 682l126 -126l-39 -39l-87 87l-87 -87l-39 39z" />
    <glyph glyph-name="Cdotaccent.smcp" horiz-adv-x="543" 
d="M118 252q0 -88 54.5 -143t141.5 -55q91 0 144 55l44 -43q-75 -72 -191 -72q-117 0 -189.5 71.5t-72.5 186.5t72.5 186.5t189.5 71.5q116 0 191 -73l-44 -43q-53 55 -144 55q-87 0 -141.5 -54.5t-54.5 -142.5zM246 590q0 21 14.5 35.5t35.5 14.5t35.5 -14.5t14.5 -35.5
t-14.5 -35.5t-35.5 -14.5t-35.5 14.5t-14.5 35.5z" />
    <glyph glyph-name="D.smcp" horiz-adv-x="541" 
d="M64 0v504h166q118 0 190 -69t72 -183q0 -115 -72 -183.5t-190 -68.5h-166zM422 252q0 87 -53 140.5t-139 53.5h-96v-388h96q86 0 139 53.5t53 140.5z" />
    <glyph glyph-name="Dcaron.smcp" horiz-adv-x="541" 
d="M64 0v504h166q118 0 190 -69t72 -183q0 -115 -72 -183.5t-190 -68.5h-166zM422 252q0 87 -53 140.5t-139 53.5h-96v-388h96q86 0 139 53.5t53 140.5zM262 517l-126 126l39 39l87 -87l87 87l39 -39z" />
    <glyph glyph-name="Dcroat.smcp" horiz-adv-x="550" 
d="M44 226v51h38v227h156q118 0 190.5 -69t72.5 -183q0 -115 -72.5 -183.5t-190.5 -68.5h-156v226h-38zM431 252q0 87 -53.5 140.5t-139.5 53.5h-86v-169h113v-51h-113v-168h86q86 0 139.5 53.5t53.5 140.5z" />
    <glyph glyph-name="Eth.smcp" horiz-adv-x="550" 
d="M44 226v51h38v227h156q118 0 190.5 -69t72.5 -183q0 -115 -72.5 -183.5t-190.5 -68.5h-156v226h-38zM431 252q0 87 -53.5 140.5t-139.5 53.5h-86v-169h113v-51h-113v-168h86q86 0 139.5 53.5t53.5 140.5z" />
    <glyph glyph-name="Thorn.smcp" horiz-adv-x="414" 
d="M64 0v504h70v-102h75q70 0 113 -39t43 -105q0 -65 -43 -104.5t-113 -39.5h-75v-114h-70zM295 258q0 39 -24 62.5t-62 23.5h-75v-172h75q38 0 62 24t24 62z" />
    <glyph glyph-name="E.smcp" horiz-adv-x="391" 
d="M131 448v-167h186v-56h-186v-169h213v-56h-280v504h277v-56h-210z" />
    <glyph glyph-name="Eacute.smcp" horiz-adv-x="391" 
d="M131 448v-167h186v-56h-186v-169h213v-56h-280v504h277v-56h-210zM135 556l126 126l39 -39l-126 -126z" />
    <glyph glyph-name="Ebreve.smcp" horiz-adv-x="391" 
d="M131 448v-167h186v-56h-186v-169h213v-56h-280v504h277v-56h-210zM203 588q62 0 102 42l39 -39q-57 -59 -141 -59q-83 0 -141 60l39 39q41 -43 102 -43z" />
    <glyph glyph-name="Ecaron.smcp" horiz-adv-x="391" 
d="M131 448v-167h186v-56h-186v-169h213v-56h-280v504h277v-56h-210zM203 517l-126 126l39 39l87 -87l87 87l39 -39z" />
    <glyph glyph-name="Ecircumflex.smcp" horiz-adv-x="391" 
d="M131 448v-167h186v-56h-186v-169h213v-56h-280v504h277v-56h-210zM203 682l126 -126l-39 -39l-87 87l-87 -87l-39 39z" />
    <glyph glyph-name="Edieresis.smcp" horiz-adv-x="391" 
d="M131 448v-167h186v-56h-186v-169h213v-56h-280v504h277v-56h-210zM61 578q0 20 13.5 34t33.5 14t34 -14t14 -34t-14 -33.5t-34 -13.5t-33.5 13.5t-13.5 33.5zM248 578q0 20 14 34t34 14t34 -14t14 -34t-14 -33.5t-34 -13.5t-34 13.5t-14 33.5z" />
    <glyph glyph-name="Edotaccent.smcp" horiz-adv-x="391" 
d="M131 448v-167h186v-56h-186v-169h213v-56h-280v504h277v-56h-210zM153 590q0 21 14.5 35.5t35.5 14.5t35.5 -14.5t14.5 -35.5t-14.5 -35.5t-35.5 -14.5t-35.5 14.5t-14.5 35.5z" />
    <glyph glyph-name="Egrave.smcp" horiz-adv-x="391" 
d="M131 448v-167h186v-56h-186v-169h213v-56h-280v504h277v-56h-210zM145 682l126 -126l-39 -39l-126 126z" />
    <glyph glyph-name="Emacron.smcp" horiz-adv-x="391" 
d="M131 448v-167h186v-56h-186v-169h213v-56h-280v504h277v-56h-210zM81 547v48h245v-48h-245z" />
    <glyph glyph-name="Eogonek.smcp" horiz-adv-x="391" 
d="M250 -39q0 -27 15 -42t40 -15t40 15l28 -27q-25 -27 -68 -27q-42 0 -68 26.5t-26 69.5q0 22 10 39h-157v504h277v-56h-210v-167h186v-56h-186v-169h213v-56h-84q-10 -17 -10 -39z" />
    <glyph glyph-name="F.smcp" horiz-adv-x="373" 
d="M131 448v-167h175v-56h-175v-225h-67v504h267v-56h-200z" />
    <glyph glyph-name="G.smcp" horiz-adv-x="566" 
d="M311 214v56h191v-204q-74 -72 -191 -72t-189.5 71.5t-72.5 186.5t72.5 186.5t189.5 71.5q116 0 191 -73l-44 -43q-53 55 -144 55q-87 0 -141.5 -54.5t-54.5 -142.5t54.5 -143t141.5 -55q70 0 120 36v124h-123z" />
    <glyph glyph-name="Gbreve.smcp" horiz-adv-x="566" 
d="M311 214v56h191v-204q-74 -72 -191 -72t-189.5 71.5t-72.5 186.5t72.5 186.5t189.5 71.5q116 0 191 -73l-44 -43q-53 55 -144 55q-87 0 -141.5 -54.5t-54.5 -142.5t54.5 -143t141.5 -55q70 0 120 36v124h-123zM309 588q62 0 102 42l39 -39q-57 -59 -141 -59
q-83 0 -141 60l39 39q41 -43 102 -43z" />
    <glyph glyph-name="Gcircumflex.smcp" horiz-adv-x="566" 
d="M311 214v56h191v-204q-74 -72 -191 -72t-189.5 71.5t-72.5 186.5t72.5 186.5t189.5 71.5q116 0 191 -73l-44 -43q-53 55 -144 55q-87 0 -141.5 -54.5t-54.5 -142.5t54.5 -143t141.5 -55q70 0 120 36v124h-123zM310 682l126 -126l-39 -39l-87 87l-87 -87l-39 39z" />
    <glyph glyph-name="Gcommaaccent.smcp" horiz-adv-x="566" 
d="M311 214v56h191v-204q-74 -72 -191 -72t-189.5 71.5t-72.5 186.5t72.5 186.5t189.5 71.5q116 0 191 -73l-44 -43q-53 55 -144 55q-87 0 -141.5 -54.5t-54.5 -142.5t54.5 -143t141.5 -55q70 0 120 36v124h-123zM279 -195l-23 22q36 38 41 65q-15 2 -25.5 14t-10.5 28
q0 18 12.5 30t30.5 12t30 -12t12 -37q0 -57 -67 -122z" />
    <glyph glyph-name="Gdotaccent.smcp" horiz-adv-x="566" 
d="M311 214v56h191v-204q-74 -72 -191 -72t-189.5 71.5t-72.5 186.5t72.5 186.5t189.5 71.5q116 0 191 -73l-44 -43q-53 55 -144 55q-87 0 -141.5 -54.5t-54.5 -142.5t54.5 -143t141.5 -55q70 0 120 36v124h-123zM260 590q0 21 14.5 35.5t35.5 14.5t35.5 -14.5t14.5 -35.5
t-14.5 -35.5t-35.5 -14.5t-35.5 14.5t-14.5 35.5z" />
    <glyph glyph-name="H.smcp" horiz-adv-x="535" 
d="M131 504v-223h273v223h67v-504h-67v225h-273v-225h-67v504h67z" />
    <glyph glyph-name="Hbar.smcp" horiz-adv-x="545" 
d="M84 0v365h-43v51h43v88h67v-88h238v88h67v-88h48v-51h-48v-365h-67v225h-238v-225h-67zM151 281h238v84h-238v-84z" />
    <glyph glyph-name="Hcircumflex.smcp" horiz-adv-x="535" 
d="M131 504v-223h273v223h67v-504h-67v225h-273v-225h-67v504h67zM268 682l126 -126l-39 -39l-87 87l-87 -87l-39 39z" />
    <glyph glyph-name="I.smcp" horiz-adv-x="194" 
d="M63 0v504h67v-504h-67z" />
    <glyph glyph-name="Iacute.smcp" horiz-adv-x="194" 
d="M63 0v504h67v-504h-67zM30 556l126 126l39 -39l-126 -126z" />
    <glyph glyph-name="Ibreve.smcp" horiz-adv-x="194" 
d="M63 0v504h67v-504h-67zM97 588q62 0 102 42l39 -39q-57 -59 -141 -59q-83 0 -141 60l39 39q41 -43 102 -43z" />
    <glyph glyph-name="Icircumflex.smcp" horiz-adv-x="194" 
d="M63 0v504h67v-504h-67zM98 682l126 -126l-39 -39l-87 87l-87 -87l-39 39z" />
    <glyph glyph-name="Idieresis.smcp" horiz-adv-x="195" 
d="M63 0v504h68v-504h-68zM-2 575q0 16 11.5 27t27.5 11t27.5 -11t11.5 -27q0 -17 -11 -28t-28 -11t-28 11t-11 28zM118 575q0 16 11.5 27.5t27.5 11.5t28 -11.5t12 -27.5t-11.5 -27.5t-28.5 -11.5t-28 11t-11 28z" />
    <glyph glyph-name="Idotaccent.smcp" horiz-adv-x="194" 
d="M63 0v504h67v-504h-67zM47 590q0 21 14.5 35.5t35.5 14.5t35.5 -14.5t14.5 -35.5t-14.5 -35.5t-35.5 -14.5t-35.5 14.5t-14.5 35.5z" />
    <glyph glyph-name="Igrave.smcp" horiz-adv-x="194" 
d="M63 0v504h67v-504h-67zM40 682l126 -126l-39 -39l-126 126z" />
    <glyph glyph-name="Imacron.smcp" horiz-adv-x="194" 
d="M63 0v504h67v-504h-67zM-25 547v48h245v-48h-245z" />
    <glyph glyph-name="Iogonek.smcp" horiz-adv-x="194" 
d="M63 0v504h67v-504h-67zM92 -39q0 -27 15 -42t40 -15t40 15l28 -27q-26 -27 -68 -27t-68 26.5t-26 69.5q0 22 10 39h39q-10 -17 -10 -39z" />
    <glyph glyph-name="Itilde.smcp" horiz-adv-x="194" 
d="M63 0v504h67v-504h-67zM2 543h-43q0 39 23.5 63.5t60.5 24.5q31 0 60 -24t48 -24q18 0 30 12.5t12 31.5h43q0 -40 -23.5 -64t-61.5 -24q-32 0 -60 24t-47 24q-18 0 -30 -12t-12 -32z" />
    <glyph glyph-name="IJ.smcp" horiz-adv-x="396" 
d="M64 180v324h67v-324h-67zM266 139v365h67v-365q0 -64 -41.5 -104.5t-107.5 -40.5q-67 0 -108 41l44 43q22 -24 62 -24q37 0 60.5 24t23.5 61z" />
    <glyph glyph-name="J.smcp" horiz-adv-x="361" 
d="M231 139v365h67v-365q0 -64 -41.5 -104.5t-107.5 -40.5q-67 0 -108 41l44 43q22 -24 62 -24q37 0 60.5 24t23.5 61z" />
    <glyph glyph-name="Jcircumflex.smcp" horiz-adv-x="361" 
d="M231 139v365h67v-365q0 -64 -41.5 -104.5t-107.5 -40.5q-67 0 -108 41l44 43q22 -24 62 -24q37 0 60.5 24t23.5 61zM264 682l126 -126l-39 -39l-87 87l-87 -87l-39 39z" />
    <glyph glyph-name="K.smcp" horiz-adv-x="475" 
d="M63 0v504h67v-504h-67zM355 0l-221 259l206 245h85l-207 -245l224 -259h-87z" />
    <glyph glyph-name="Kcommaaccent.smcp" horiz-adv-x="475" 
d="M63 0v504h67v-504h-67zM355 0l-221 259l206 245h85l-207 -245l224 -259h-87zM214 -195l-23 22q36 38 41 65q-15 2 -25.5 14t-10.5 28q0 18 12.5 30t30.5 12t30 -12t12 -37q0 -57 -67 -122z" />
    <glyph glyph-name="L.smcp" horiz-adv-x="370" 
d="M131 504v-448h198v-56h-265v504h67z" />
    <glyph glyph-name="Lacute.smcp" horiz-adv-x="370" 
d="M131 504v-448h198v-56h-265v504h67zM102 556l126 126l39 -39l-126 -126z" />
    <glyph glyph-name="Lcaron.smcp" horiz-adv-x="370" 
d="M131 504v-448h198v-56h-265v504h67zM99 517l-126 126l39 39l87 -87l87 87l39 -39z" />
    <glyph glyph-name="Lcommaaccent.smcp" horiz-adv-x="370" 
d="M131 504v-448h198v-56h-265v504h67zM172 -195l-23 22q36 38 41 65q-15 2 -25.5 14t-10.5 28q0 18 12.5 30t30.5 12t30 -12t12 -37q0 -57 -67 -122z" />
    <glyph glyph-name="Ldot.smcp" horiz-adv-x="370" 
d="M131 504v-448h198v-56h-265v504h67zM223 238q0 21 14.5 35.5t35.5 14.5t35.5 -14.5t14.5 -35.5t-14.5 -35.5t-35.5 -14.5t-35.5 14.5t-14.5 35.5z" />
    <glyph glyph-name="Lslash.smcp" horiz-adv-x="397" 
d="M19 163l73 71v270h67v-217l63 61l33 -34l-96 -93v-165h197v-56h-264v168l-39 -38z" />
    <glyph glyph-name="M.smcp" horiz-adv-x="621" 
d="M489 0v366l-165 -255h-27l-166 255v-366h-67v504h51l195 -296l196 296h51v-504h-68z" />
    <glyph glyph-name="N.smcp" horiz-adv-x="552" 
d="M64 504h45l312 -376v376h67v-504h-45l-312 375v-375h-67v504z" />
    <glyph glyph-name="Nacute.smcp" horiz-adv-x="552" 
d="M64 504h45l312 -376v376h67v-504h-45l-312 375v-375h-67v504zM208 556l126 126l39 -39l-126 -126z" />
    <glyph glyph-name="Ncaron.smcp" horiz-adv-x="552" 
d="M64 504h45l312 -376v376h67v-504h-45l-312 375v-375h-67v504zM276 517l-126 126l39 39l87 -87l87 87l39 -39z" />
    <glyph glyph-name="Ncommaaccent.smcp" horiz-adv-x="552" 
d="M64 504h45l312 -376v376h67v-504h-45l-312 375v-375h-67v504zM253 -195l-23 22q36 38 41 65q-15 2 -25.5 14t-10.5 28q0 18 12.5 30t30.5 12t30 -12t12 -37q0 -57 -67 -122z" />
    <glyph glyph-name="Ntilde.smcp" horiz-adv-x="552" 
d="M64 504h45l312 -376v376h67v-504h-45l-312 375v-375h-67v504zM180 543h-43q0 39 23.5 63.5t60.5 24.5q31 0 60 -24t48 -24q18 0 30 12.5t12 31.5h43q0 -40 -23.5 -64t-61.5 -24q-32 0 -60 24t-47 24q-18 0 -30 -12t-12 -32z" />
    <glyph glyph-name="Eng.smcp" horiz-adv-x="552" 
d="M382 -180v43q39 0 39 36v127l-290 349v-375h-67v504h45l312 -376v376h67v-607q0 -37 -21.5 -59t-57.5 -22q-19 0 -27 4z" />
    <glyph glyph-name="O.smcp" horiz-adv-x="615" 
d="M48 252q0 115 72 186.5t188 71.5q115 0 187 -71.5t72 -186.5t-71.5 -186.5t-187.5 -71.5t-188 71.5t-72 186.5zM117 252q0 -88 53 -143t138 -55t137 55t52 143t-52 142.5t-137 54.5t-138 -54.5t-53 -142.5z" />
    <glyph glyph-name="Oacute.smcp" horiz-adv-x="615" 
d="M48 252q0 115 72 186.5t188 71.5q115 0 187 -71.5t72 -186.5t-71.5 -186.5t-187.5 -71.5t-188 71.5t-72 186.5zM117 252q0 -88 53 -143t138 -55t137 55t52 143t-52 142.5t-137 54.5t-138 -54.5t-53 -142.5zM239 556l126 126l39 -39l-126 -126z" />
    <glyph glyph-name="Obreve.smcp" horiz-adv-x="615" 
d="M48 252q0 115 72 186.5t188 71.5q115 0 187 -71.5t72 -186.5t-71.5 -186.5t-187.5 -71.5t-188 71.5t-72 186.5zM117 252q0 -88 53 -143t138 -55t137 55t52 143t-52 142.5t-137 54.5t-138 -54.5t-53 -142.5zM308 588q62 0 102 42l39 -39q-57 -59 -141 -59q-83 0 -141 60
l39 39q41 -43 102 -43z" />
    <glyph glyph-name="Ocircumflex.smcp" horiz-adv-x="615" 
d="M48 252q0 115 72 186.5t188 71.5q115 0 187 -71.5t72 -186.5t-71.5 -186.5t-187.5 -71.5t-188 71.5t-72 186.5zM117 252q0 -88 53 -143t138 -55t137 55t52 143t-52 142.5t-137 54.5t-138 -54.5t-53 -142.5zM308 682l126 -126l-39 -39l-87 87l-87 -87l-39 39z" />
    <glyph glyph-name="Odieresis.smcp" horiz-adv-x="615" 
d="M48 252q0 115 72 186.5t188 71.5q115 0 187 -71.5t72 -186.5t-71.5 -186.5t-187.5 -71.5t-188 71.5t-72 186.5zM117 252q0 -88 53 -143t138 -55t137 55t52 143t-52 142.5t-137 54.5t-138 -54.5t-53 -142.5zM166 578q0 20 13.5 34t33.5 14t34 -14t14 -34t-14 -33.5
t-34 -13.5q-19 0 -33 13.5t-14 33.5zM353 578q0 20 14 34t34 14t34 -14t14 -34t-14 -33.5t-34 -13.5t-34 13.5t-14 33.5z" />
    <glyph glyph-name="Ograve.smcp" horiz-adv-x="615" 
d="M48 252q0 115 72 186.5t188 71.5q115 0 187 -71.5t72 -186.5t-71.5 -186.5t-187.5 -71.5t-188 71.5t-72 186.5zM117 252q0 -88 53 -143t138 -55t137 55t52 143t-52 142.5t-137 54.5t-138 -54.5t-53 -142.5zM249 682l126 -126l-39 -39l-126 126z" />
    <glyph glyph-name="Ohungarumlaut.smcp" horiz-adv-x="615" 
d="M48 252q0 115 72 186.5t188 71.5q115 0 187 -71.5t72 -186.5t-71.5 -186.5t-187.5 -71.5t-188 71.5t-72 186.5zM117 252q0 -88 53 -143t138 -55t137 55t52 143t-52 142.5t-137 54.5t-138 -54.5t-53 -142.5zM165 556l126 126l39 -39l-126 -126zM315 556l126 126l39 -39
l-126 -126z" />
    <glyph glyph-name="Omacron.smcp" horiz-adv-x="615" 
d="M48 252q0 115 72 186.5t188 71.5q115 0 187 -71.5t72 -186.5t-71.5 -186.5t-187.5 -71.5t-188 71.5t-72 186.5zM117 252q0 -88 53 -143t138 -55t137 55t52 143t-52 142.5t-137 54.5t-138 -54.5t-53 -142.5zM185 547v48h245v-48h-245z" />
    <glyph glyph-name="Oslash.smcp" horiz-adv-x="616" 
d="M48 -6l66 76q-66 71 -66 182q0 115 72 186.5t188 71.5q87 0 153 -44l38 44h69l-68 -77q67 -70 67 -181q0 -115 -71.5 -186.5t-187.5 -71.5q-90 0 -154 43l-37 -43h-69zM117 252q0 -78 42 -131l259 296q-48 32 -110 32q-85 0 -138 -54.5t-53 -142.5zM497 252q0 76 -41 130
l-259 -296q50 -32 111 -32q85 0 137 55t52 143z" />
    <glyph glyph-name="Oslashacute.smcp" horiz-adv-x="616" 
d="M48 -6l66 76q-66 71 -66 182q0 115 72 186.5t188 71.5q87 0 153 -44l38 44h69l-68 -77q67 -70 67 -181q0 -115 -71.5 -186.5t-187.5 -71.5q-90 0 -154 43l-37 -43h-69zM117 252q0 -78 42 -131l259 296q-48 32 -110 32q-85 0 -138 -54.5t-53 -142.5zM497 252q0 76 -41 130
l-259 -296q50 -32 111 -32q85 0 137 55t52 143zM239 556l126 126l39 -39l-126 -126z" />
    <glyph glyph-name="Otilde.smcp" horiz-adv-x="615" 
d="M48 252q0 115 72 186.5t188 71.5q115 0 187 -71.5t72 -186.5t-71.5 -186.5t-187.5 -71.5t-188 71.5t-72 186.5zM117 252q0 -88 53 -143t138 -55t137 55t52 143t-52 142.5t-137 54.5t-138 -54.5t-53 -142.5zM212 543h-43q0 39 23.5 63.5t60.5 24.5q31 0 60 -24t48 -24
q18 0 30 12.5t12 31.5h43q0 -40 -23.5 -64t-61.5 -24q-32 0 -60 24t-47 24q-18 0 -30 -12t-12 -32z" />
    <glyph glyph-name="OE.smcp" horiz-adv-x="679" 
d="M438 448v-167h169v-56h-169v-169h197v-56h-263q-28 -6 -61 -6q-117 0 -189.5 71.5t-72.5 186.5t72.5 186.5t189.5 71.5q21 0 61 -6h259v-56h-193zM311 54q33 0 59 10v376q-27 9 -59 9q-86 0 -139.5 -54.5t-53.5 -142.5t53.5 -143t139.5 -55z" />
    <glyph glyph-name="P.smcp" horiz-adv-x="414" 
d="M64 0v504h145q70 0 113 -39.5t43 -104.5q0 -66 -43 -105.5t-113 -39.5h-75v-215h-70zM295 360q0 38 -24 62t-62 24h-75v-172h75q38 0 62 23.5t24 62.5z" />
    <glyph glyph-name="Q.smcp" horiz-adv-x="616" 
d="M532 -18l-62 62q-67 -50 -162 -50q-116 0 -188 71.5t-72 186.5t72 186.5t188 71.5q115 0 187 -71.5t72 -186.5q0 -98 -55 -166l63 -61zM117 252q0 -88 53 -143t137 -55q74 0 118 34l-79 78l42 43l74 -73q35 47 35 116q0 88 -52.5 142.5t-137.5 54.5q-84 0 -137 -54.5
t-53 -142.5z" />
    <glyph glyph-name="R.smcp" horiz-adv-x="426" 
d="M316 0l-117 215h-65v-215h-70v504h151q70 0 113 -39.5t43 -104.5q0 -53 -28 -89.5t-77 -49.5l128 -221h-78zM301 360q0 38 -24 62t-62 24h-81v-172h81q38 0 62 23.5t24 62.5z" />
    <glyph glyph-name="Racute.smcp" horiz-adv-x="426" 
d="M316 0l-117 215h-65v-215h-70v504h151q70 0 113 -39.5t43 -104.5q0 -53 -28 -89.5t-77 -49.5l128 -221h-78zM301 360q0 38 -24 62t-62 24h-81v-172h81q38 0 62 23.5t24 62.5zM140 556l126 126l39 -39l-126 -126z" />
    <glyph glyph-name="Rcaron.smcp" horiz-adv-x="426" 
d="M316 0l-117 215h-65v-215h-70v504h151q70 0 113 -39.5t43 -104.5q0 -53 -28 -89.5t-77 -49.5l128 -221h-78zM301 360q0 38 -24 62t-62 24h-81v-172h81q38 0 62 23.5t24 62.5zM208 517l-126 126l39 39l87 -87l87 87l39 -39z" />
    <glyph glyph-name="Rcommaaccent.smcp" horiz-adv-x="426" 
d="M316 0l-117 215h-65v-215h-70v504h151q70 0 113 -39.5t43 -104.5q0 -53 -28 -89.5t-77 -49.5l128 -221h-78zM301 360q0 38 -24 62t-62 24h-81v-172h81q38 0 62 23.5t24 62.5zM190 -195l-23 22q36 38 41 65q-15 2 -25.5 14t-10.5 28q0 18 12.5 30t30.5 12t30 -12t12 -37
q0 -57 -67 -122z" />
    <glyph glyph-name="S.smcp" horiz-adv-x="425" 
d="M358 448l-42 -43q-18 19 -47.5 31.5t-58.5 12.5q-42 0 -63.5 -24t-21.5 -53q0 -30 25.5 -50t61.5 -33t72.5 -28t62 -45t25.5 -75q0 -62 -42.5 -104.5t-119.5 -42.5q-98 0 -167 69l42 42q48 -51 118 -51q49 0 74 26.5t25 59.5q0 29 -25.5 48t-61.5 31.5t-72 27.5t-61.5 46
t-25.5 77q0 60 38 100t109 40q91 0 155 -62z" />
    <glyph glyph-name="Sacute.smcp" horiz-adv-x="425" 
d="M358 448l-42 -43q-18 19 -47.5 31.5t-58.5 12.5q-42 0 -63.5 -24t-21.5 -53q0 -30 25.5 -50t61.5 -33t72.5 -28t62 -45t25.5 -75q0 -62 -42.5 -104.5t-119.5 -42.5q-98 0 -167 69l42 42q48 -51 118 -51q49 0 74 26.5t25 59.5q0 29 -25.5 48t-61.5 31.5t-72 27.5t-61.5 46
t-25.5 77q0 60 38 100t109 40q91 0 155 -62zM135 556l126 126l39 -39l-126 -126z" />
    <glyph glyph-name="Scaron.smcp" horiz-adv-x="425" 
d="M358 448l-42 -43q-18 19 -47.5 31.5t-58.5 12.5q-42 0 -63.5 -24t-21.5 -53q0 -30 25.5 -50t61.5 -33t72.5 -28t62 -45t25.5 -75q0 -62 -42.5 -104.5t-119.5 -42.5q-98 0 -167 69l42 42q48 -51 118 -51q49 0 74 26.5t25 59.5q0 29 -25.5 48t-61.5 31.5t-72 27.5t-61.5 46
t-25.5 77q0 60 38 100t109 40q91 0 155 -62zM204 517l-126 126l39 39l87 -87l87 87l39 -39z" />
    <glyph glyph-name="Scedilla.smcp" horiz-adv-x="425" 
d="M358 448l-42 -43q-18 19 -47.5 31.5t-58.5 12.5q-42 0 -63.5 -24t-21.5 -53q0 -30 25.5 -50t61.5 -33t72.5 -28t62 -45t25.5 -75q0 -59 -39 -100.5t-110 -45.5v-40q66 -12 66 -77q0 -35 -23 -57t-60 -22t-61 24l26 26q14 -14 35 -14t34 12t13 33q0 46 -65 46v69
q-85 8 -145 68l42 42q48 -51 118 -51q49 0 74 26.5t25 59.5q0 29 -25.5 48t-61.5 31.5t-72 27.5t-61.5 46t-25.5 77q0 60 38 100t109 40q91 0 155 -62z" />
    <glyph glyph-name="Scircumflex.smcp" horiz-adv-x="425" 
d="M358 448l-42 -43q-18 19 -47.5 31.5t-58.5 12.5q-42 0 -63.5 -24t-21.5 -53q0 -30 25.5 -50t61.5 -33t72.5 -28t62 -45t25.5 -75q0 -62 -42.5 -104.5t-119.5 -42.5q-98 0 -167 69l42 42q48 -51 118 -51q49 0 74 26.5t25 59.5q0 29 -25.5 48t-61.5 31.5t-72 27.5t-61.5 46
t-25.5 77q0 60 38 100t109 40q91 0 155 -62zM204 682l126 -126l-39 -39l-87 87l-87 -87l-39 39z" />
    <glyph glyph-name="Scommaaccent.smcp" horiz-adv-x="425" 
d="M358 448l-42 -43q-18 19 -47.5 31.5t-58.5 12.5q-42 0 -63.5 -24t-21.5 -53q0 -30 25.5 -50t61.5 -33t72.5 -28t62 -45t25.5 -75q0 -62 -42.5 -104.5t-119.5 -42.5q-98 0 -167 69l42 42q48 -51 118 -51q49 0 74 26.5t25 59.5q0 29 -25.5 48t-61.5 31.5t-72 27.5t-61.5 46
t-25.5 77q0 60 38 100t109 40q91 0 155 -62zM187 -195l-23 22q36 38 41 65q-15 2 -25.5 14t-10.5 28q0 18 12.5 30t30.5 12t30 -12t12 -37q0 -57 -67 -122z" />
    <glyph glyph-name="T.smcp" horiz-adv-x="439" 
d="M253 448v-448h-67v448h-145v56h357v-56h-145z" />
    <glyph glyph-name="Tbar.smcp" horiz-adv-x="439" 
d="M81 240v52h105v156h-145v56h357v-56h-145v-156h105v-52h-105v-240h-67v240h-105z" />
    <glyph glyph-name="Tcaron.smcp" horiz-adv-x="439" 
d="M253 448v-448h-67v448h-145v56h357v-56h-145zM219 517l-126 126l39 39l87 -87l87 87l39 -39z" />
    <glyph glyph-name="Tcommaaccent.smcp" horiz-adv-x="439" 
d="M253 448v-448h-67v448h-145v56h357v-56h-145zM196 -195l-23 22q36 38 41 65q-15 2 -25.5 14t-10.5 28q0 18 12.5 30t30.5 12t30 -12t12 -37q0 -57 -67 -122z" />
    <glyph glyph-name="uni021A.smcp" horiz-adv-x="439" 
d="M253 448v-448h-67v448h-145v56h357v-56h-145zM196 -195l-23 22q36 38 41 65q-15 2 -25.5 14t-10.5 28q0 18 12.5 30t30.5 12t30 -12t12 -37q0 -57 -67 -122z" />
    <glyph glyph-name="U.smcp" horiz-adv-x="520" 
d="M388 185v319h68v-319q0 -85 -54.5 -138t-142.5 -53t-141.5 52.5t-53.5 138.5v319h67v-319q0 -58 36 -94.5t92 -36.5q57 0 93 36.5t36 94.5z" />
    <glyph glyph-name="Uacute.smcp" horiz-adv-x="520" 
d="M388 185v319h68v-319q0 -85 -54.5 -138t-142.5 -53t-141.5 52.5t-53.5 138.5v319h67v-319q0 -58 36 -94.5t92 -36.5q57 0 93 36.5t36 94.5zM192 556l126 126l39 -39l-126 -126z" />
    <glyph glyph-name="Ubreve.smcp" horiz-adv-x="520" 
d="M388 185v319h68v-319q0 -85 -54.5 -138t-142.5 -53t-141.5 52.5t-53.5 138.5v319h67v-319q0 -58 36 -94.5t92 -36.5q57 0 93 36.5t36 94.5zM260 588q62 0 102 42l39 -39q-57 -59 -141 -59q-83 0 -141 60l39 39q41 -43 102 -43z" />
    <glyph glyph-name="Ucircumflex.smcp" horiz-adv-x="520" 
d="M388 185v319h68v-319q0 -85 -54.5 -138t-142.5 -53t-141.5 52.5t-53.5 138.5v319h67v-319q0 -58 36 -94.5t92 -36.5q57 0 93 36.5t36 94.5zM260 682l126 -126l-39 -39l-87 87l-87 -87l-39 39z" />
    <glyph glyph-name="Udieresis.smcp" horiz-adv-x="520" 
d="M388 185v319h68v-319q0 -85 -54.5 -138t-142.5 -53t-141.5 52.5t-53.5 138.5v319h67v-319q0 -58 36 -94.5t92 -36.5q57 0 93 36.5t36 94.5zM118 578q0 20 13.5 34t33.5 14t34 -14t14 -34t-14 -33.5t-34 -13.5q-19 0 -33 13.5t-14 33.5zM305 578q0 20 14 34t34 14t34 -14
t14 -34t-14 -33.5t-34 -13.5t-34 13.5t-14 33.5z" />
    <glyph glyph-name="Ugrave.smcp" horiz-adv-x="520" 
d="M388 185v319h68v-319q0 -85 -54.5 -138t-142.5 -53t-141.5 52.5t-53.5 138.5v319h67v-319q0 -58 36 -94.5t92 -36.5q57 0 93 36.5t36 94.5zM201 682l126 -126l-39 -39l-126 126z" />
    <glyph glyph-name="Uhungarumlaut.smcp" horiz-adv-x="520" 
d="M388 185v319h68v-319q0 -85 -54.5 -138t-142.5 -53t-141.5 52.5t-53.5 138.5v319h67v-319q0 -58 36 -94.5t92 -36.5q57 0 93 36.5t36 94.5zM117 556l126 126l39 -39l-126 -126zM267 556l126 126l39 -39l-126 -126z" />
    <glyph glyph-name="Umacron.smcp" horiz-adv-x="520" 
d="M388 185v319h68v-319q0 -85 -54.5 -138t-142.5 -53t-141.5 52.5t-53.5 138.5v319h67v-319q0 -58 36 -94.5t92 -36.5q57 0 93 36.5t36 94.5zM137 547v48h245v-48h-245z" />
    <glyph glyph-name="Uogonek.smcp" horiz-adv-x="520" 
d="M296 -39q0 -27 15 -42t40 -15t40 15l28 -27q-25 -27 -68 -27q-42 0 -68 26.5t-26 69.5q0 19 7 33h-5q-88 0 -141.5 52.5t-53.5 138.5v319h67v-319q0 -58 36 -94.5t92 -36.5q57 0 93 36.5t36 94.5v319h68v-319q0 -74 -41 -124t-110 -63q-9 -15 -9 -37z" />
    <glyph glyph-name="Uring.smcp" horiz-adv-x="520" 
d="M388 185v319h68v-319q0 -85 -54.5 -138t-142.5 -53t-141.5 52.5t-53.5 138.5v319h67v-319q0 -58 36 -94.5t92 -36.5q57 0 93 36.5t36 94.5zM172 601q0 40 24.5 65t63.5 25q40 0 64 -24.5t24 -65.5t-24 -65.5t-64 -24.5q-39 0 -63.5 25t-24.5 65zM208 600
q0 -24 14.5 -38.5t37.5 -14.5t37.5 14.5t14.5 38.5t-14.5 39t-37.5 15t-37.5 -14.5t-14.5 -39.5z" />
    <glyph glyph-name="Utilde.smcp" horiz-adv-x="520" 
d="M388 185v319h68v-319q0 -85 -54.5 -138t-142.5 -53t-141.5 52.5t-53.5 138.5v319h67v-319q0 -58 36 -94.5t92 -36.5q57 0 93 36.5t36 94.5zM164 543h-43q0 39 23.5 63.5t60.5 24.5q31 0 60 -24t48 -24q18 0 30 12.5t12 31.5h43q0 -40 -23.5 -64t-61.5 -24q-32 0 -60 24
t-47 24q-18 0 -30 -12t-12 -32z" />
    <glyph glyph-name="V.smcp" horiz-adv-x="564" 
d="M534 504l-221 -504h-63l-221 504h80l173 -416l173 416h79z" />
    <glyph glyph-name="W.smcp" horiz-adv-x="822" 
d="M793 504l-184 -504h-67l-131 387l-130 -387h-68l-184 504h79l138 -399l130 399h70l130 -399l139 399h78z" />
    <glyph glyph-name="Wacute.smcp" horiz-adv-x="822" 
d="M793 504l-184 -504h-67l-131 387l-130 -387h-68l-184 504h79l138 -399l130 399h70l130 -399l139 399h78zM342 556l126 126l39 -39l-126 -126z" />
    <glyph glyph-name="Wcircumflex.smcp" horiz-adv-x="822" 
d="M793 504l-184 -504h-67l-131 387l-130 -387h-68l-184 504h79l138 -399l130 399h70l130 -399l139 399h78zM410 682l126 -126l-39 -39l-87 87l-87 -87l-39 39z" />
    <glyph glyph-name="Wdieresis.smcp" horiz-adv-x="822" 
d="M793 504l-184 -504h-67l-131 387l-130 -387h-68l-184 504h79l138 -399l130 399h70l130 -399l139 399h78zM269 578q0 20 13.5 34t33.5 14t34 -14t14 -34t-14 -33.5t-34 -13.5t-33.5 13.5t-13.5 33.5zM456 578q0 20 14 34t34 14t34 -14t14 -34t-14 -33.5t-34 -13.5
t-34 13.5t-14 33.5z" />
    <glyph glyph-name="Wgrave.smcp" horiz-adv-x="822" 
d="M793 504l-184 -504h-67l-131 387l-130 -387h-68l-184 504h79l138 -399l130 399h70l130 -399l139 399h78zM353 682l126 -126l-39 -39l-126 126z" />
    <glyph glyph-name="X.smcp" horiz-adv-x="545" 
d="M427 0l-155 210l-155 -210h-86l191 255l-186 249h87l149 -203l149 203h87l-186 -249l192 -255h-87z" />
    <glyph glyph-name="Y.smcp" horiz-adv-x="524" 
d="M228 0v213l-197 291h78l153 -225l153 225h77l-197 -292v-212h-67z" />
    <glyph glyph-name="Yacute.smcp" horiz-adv-x="524" 
d="M228 0v213l-197 291h78l153 -225l153 225h77l-197 -292v-212h-67zM193 556l126 126l39 -39l-126 -126z" />
    <glyph glyph-name="Ycircumflex.smcp" horiz-adv-x="524" 
d="M228 0v213l-197 291h78l153 -225l153 225h77l-197 -292v-212h-67zM262 682l126 -126l-39 -39l-87 87l-87 -87l-39 39z" />
    <glyph glyph-name="Ydieresis.smcp" horiz-adv-x="524" 
d="M228 0v213l-197 291h78l153 -225l153 225h77l-197 -292v-212h-67zM120 578q0 20 13.5 34t33.5 14t34 -14t14 -34t-14 -33.5t-34 -13.5q-19 0 -33 13.5t-14 33.5zM307 578q0 20 14 34t34 14t34 -14t14 -34t-14 -33.5t-34 -13.5t-34 13.5t-14 33.5z" />
    <glyph glyph-name="Ygrave.smcp" horiz-adv-x="524" 
d="M228 0v213l-197 291h78l153 -225l153 225h77l-197 -292v-212h-67zM203 682l126 -126l-39 -39l-126 126z" />
    <glyph glyph-name="Z.smcp" horiz-adv-x="490" 
d="M53 448v56h387v-21l-293 -427h294v-56h-392v21l292 427h-288z" />
    <glyph glyph-name="Zacute.smcp" horiz-adv-x="490" 
d="M53 448v56h387v-21l-293 -427h294v-56h-392v21l292 427h-288zM177 556l126 126l39 -39l-126 -126z" />
    <glyph glyph-name="Zcaron.smcp" horiz-adv-x="490" 
d="M53 448v56h387v-21l-293 -427h294v-56h-392v21l292 427h-288zM244 517l-126 126l39 39l87 -87l87 87l39 -39z" />
    <glyph glyph-name="Zdotaccent.smcp" horiz-adv-x="490" 
d="M53 448v56h387v-21l-293 -427h294v-56h-392v21l292 427h-288zM195 590q0 21 14.5 35.5t35.5 14.5t35.5 -14.5t14.5 -35.5t-14.5 -35.5t-35.5 -14.5t-35.5 14.5t-14.5 35.5z" />
    <glyph glyph-name="uni018F.smcp" horiz-adv-x="570" 
d="M522 252q0 -115 -66 -186.5t-171 -71.5q-106 0 -171.5 71.5t-65.5 186.5v25h402q-8 77 -60 124.5t-131 47.5q-90 0 -143 -55l-42 43q71 73 188 73q116 0 188 -71.5t72 -186.5zM285 54q67 0 112 46t52 121h-329q7 -75 52 -121t113 -46z" />
    <glyph glyph-name="germandbls.smcp" horiz-adv-x="464" 
d="M131 368v-368h-73v368q0 63 42 102.5t109 39.5t109 -39t42 -101q0 -42 -23.5 -73t-62.5 -44q0 -27 23.5 -44t51 -25.5t51 -31.5t23.5 -61q0 -40 -31 -68.5t-86 -28.5q-71 0 -115 46l43 43q28 -31 67 -31q26 0 39 12t13 28q0 20 -23.5 34t-51 23.5t-51 35t-23.5 65.5v54
q37 0 60 19t23 50q0 32 -22 53.5t-56 21.5t-56 -22.5t-22 -57.5z" />
    <glyph glyph-name="zero.fitted" horiz-adv-x="530" 
d="M37 350q0 159 63 258t165 99t165 -99t63 -258q0 -160 -63 -259t-165 -99t-165 99t-63 259zM114 350q0 -129 42 -209.5t109 -80.5t108.5 80.5t41.5 209.5t-41.5 209.5t-108.5 80.5t-109 -80.5t-42 -209.5z" />
    <glyph glyph-name="one.fitted" horiz-adv-x="530" 
d="M101 0v60h125v573l-133 -21v60l208 32v-644h126v-60h-326z" />
    <glyph glyph-name="two.fitted" horiz-adv-x="530" 
d="M54 66l306 303q40 42 40 117q0 67 -38.5 110t-99.5 43t-99 -42.5t-38 -110.5h-78q0 99 59.5 160t155.5 61t155.5 -61t59.5 -160q0 -101 -67 -168l-256 -253h323v-65h-423v66z" />
    <glyph glyph-name="three.fitted" horiz-adv-x="530" 
d="M217 348v64h46q50 0 81.5 32t31.5 82t-31.5 82t-81.5 32q-49 0 -80.5 -32t-31.5 -82h-77q0 80 52.5 130.5t136.5 50.5q85 0 137.5 -50t52.5 -131q0 -102 -84 -145q53 -21 83.5 -67.5t30.5 -110.5q0 -94 -61 -152.5t-159 -58.5q-97 0 -158 58.5t-61 152.5h77
q0 -64 39.5 -103.5t102.5 -39.5q64 0 103.5 39.5t39.5 103.5t-39.5 104.5t-103.5 40.5h-46z" />
    <glyph glyph-name="four.fitted" horiz-adv-x="530" 
d="M348 0v135h-316v37l312 528h77v-500h62v-65h-60v-135h-75zM126 200h225v386z" />
    <glyph glyph-name="five.fitted" horiz-adv-x="530" 
d="M477 214q0 -99 -59.5 -160.5t-155.5 -61.5t-155.5 58t-59.5 151h75q0 -62 39 -101.5t101 -39.5q61 0 99.5 43t38.5 111q0 74 -43.5 120.5t-112.5 46.5q-72 0 -116 -42l-55 21l44 340h308v-65h-242l-29 -208q39 22 94 22q103 0 166 -65t63 -170z" />
    <glyph glyph-name="six.fitted" horiz-adv-x="530" 
d="M292 707l65 -37q-104 -141 -170 -259q35 19 79 19q98 0 159 -60t61 -158t-61 -159t-161 -61q-99 0 -160 61.5t-61 164.5q0 90 44.5 173.5t187.5 290.5q11 17 17 25zM121 212q0 -67 40 -109.5t104 -42.5t104 42.5t40 109.5q0 68 -40 110.5t-104 42.5t-104 -42.5
t-40 -110.5z" />
    <glyph glyph-name="seven.fitted" horiz-adv-x="530" 
d="M52 635v65h425v-28l-252 -672h-81l237 635h-329z" />
    <glyph glyph-name="eight.fitted" horiz-adv-x="530" 
d="M74 526q0 80 53 130.5t138 50.5t137.5 -50.5t52.5 -130.5q0 -102 -85 -145q54 -21 85 -67.5t31 -110.5q0 -94 -61.5 -152.5t-159.5 -58.5q-99 0 -160 58.5t-61 152.5q0 64 30.5 110.5t83.5 67.5q-84 42 -84 145zM121 203q0 -64 40 -103.5t104 -39.5t103.5 39.5
t39.5 103.5t-39.5 104t-103.5 40t-104 -40t-40 -104zM152 526q0 -50 31.5 -81.5t81.5 -31.5t81.5 31.5t31.5 81.5t-31.5 82t-81.5 32t-81.5 -32t-31.5 -82z" />
    <glyph glyph-name="nine.fitted" horiz-adv-x="530" 
d="M237 -8l-65 37q106 146 170 260q-35 -19 -78 -19q-98 0 -159 60t-61 158t61 158.5t160 60.5t160 -61t61 -164q0 -92 -47 -179t-202 -311zM408 487q0 68 -39.5 110.5t-103.5 42.5t-104 -42.5t-40 -110.5q0 -67 40 -109.5t104 -42.5t103.5 42t39.5 110z" />
    <glyph glyph-name="zero.sup" horiz-adv-x="301" 
d="M33 525q0 80 33 129.5t85 49.5t84.5 -49.5t32.5 -129.5t-32.5 -129.5t-84.5 -49.5q-53 0 -85.5 49.5t-32.5 129.5zM80 525q0 -62 19.5 -100.5t51.5 -38.5q31 0 50.5 38.5t19.5 100.5q0 61 -19.5 99.5t-50.5 38.5q-32 0 -51.5 -38t-19.5 -100z" />
    <glyph glyph-name="one.sup" horiz-adv-x="183" 
d="M26 650v36l100 16v-352h-45v310z" />
    <glyph glyph-name="two.sup" horiz-adv-x="279" 
d="M32 388l150 150q19 19 19 54q0 31 -17.5 51t-44.5 20q-28 0 -45.5 -19.5t-17.5 -51.5h-47q0 50 30.5 81t79.5 31q48 0 78 -31t30 -81q0 -49 -33 -84l-120 -120h153v-38h-215v38z" />
    <glyph glyph-name="three.sup" horiz-adv-x="287" 
d="M120 520v38h23q23 0 37.5 15t14.5 38t-14.5 37.5t-37.5 14.5t-37 -14.5t-14 -37.5h-47q0 41 27.5 67t70.5 26q44 0 71.5 -26t27.5 -67q0 -49 -40 -71q53 -24 53 -87q0 -48 -31 -77.5t-81 -29.5t-81 29.5t-31 77.5h47q0 -30 18 -48.5t47 -18.5t47.5 18.5t18.5 48.5
q0 29 -18.5 48t-47.5 19h-23z" />
    <glyph glyph-name="four.sup" horiz-adv-x="297" 
d="M186 350v65h-158v21l156 264h46v-246h30v-39h-29v-65h-45zM85 454h103v178z" />
    <glyph glyph-name="five.sup" horiz-adv-x="279" 
d="M247 458q0 -50 -30 -81t-78 -31q-49 0 -79.5 29.5t-30.5 76.5h45q0 -29 18 -47.5t47 -18.5q27 0 44.5 20t17.5 52q0 34 -20 55.5t-52 21.5q-35 0 -53 -20l-33 12l21 173h157v-39h-118l-12 -94q16 9 41 9q52 0 83.5 -32.5t31.5 -85.5z" />
    <glyph glyph-name="six.sup" horiz-adv-x="286" 
d="M155 704l39 -22q-54 -71 -84 -124q13 7 33 7q49 0 80 -30t31 -79q0 -50 -30.5 -80t-81.5 -30q-50 0 -80.5 30.5t-30.5 83.5q0 49 27 98.5t97 145.5zM78 456q0 -31 18 -50.5t47 -19.5q28 0 46 19.5t18 50.5q0 32 -18 51.5t-46 19.5q-29 0 -47 -20t-18 -51z" />
    <glyph glyph-name="seven.sup" horiz-adv-x="284" 
d="M33 661v39h217v-15l-122 -335h-48l112 311h-159z" />
    <glyph glyph-name="eight.sup" horiz-adv-x="288" 
d="M45 611q0 41 27.5 67t71.5 26q43 0 70.5 -26t27.5 -67q0 -50 -40 -71q54 -25 54 -87q0 -48 -31 -77.5t-81 -29.5t-81 29.5t-31 77.5q0 63 53 87q-40 21 -40 71zM78 453q0 -30 18.5 -48.5t47.5 -18.5t47 18.5t18 48.5q0 29 -18 47.5t-47 18.5t-47.5 -18.5t-18.5 -47.5z
M92 611q0 -23 14.5 -37.5t37.5 -14.5t37.5 14.5t14.5 37.5t-14.5 37.5t-37.5 14.5t-37.5 -14.5t-14.5 -37.5z" />
    <glyph glyph-name="nine.sup" horiz-adv-x="286" 
d="M130 346l-39 22q53 67 84 123q-16 -7 -33 -7q-50 0 -80.5 30t-30.5 80q0 49 31 79.5t81 30.5t80.5 -30.5t30.5 -83.5q0 -50 -26.5 -99t-97.5 -145zM207 593q0 31 -17.5 50.5t-46.5 19.5t-47 -19.5t-18 -50.5t18 -50.5t47 -19.5t46.5 19.5t17.5 50.5z" />
    <glyph glyph-name="comma.sup" horiz-adv-x="131" 
d="M50 293l-15 15q19 19 25 38q-23 5 -23 28q0 12 8 20t21 8q11 0 19.5 -8t8.5 -24q0 -33 -44 -77z" />
    <glyph glyph-name="period.sup" horiz-adv-x="131" 
d="M37 374q0 12 8 20t20 8t20.5 -8t8.5 -20t-8.5 -20t-20.5 -8t-20 8t-8 20z" />
    <glyph glyph-name="parenleft.sup" horiz-adv-x="167" 
d="M135 729v-34q-22 0 -37 -48t-15 -122q0 -75 15 -123t37 -48v-33q-42 0 -70 57t-28 147t28 147t70 57z" />
    <glyph glyph-name="parenright.sup" horiz-adv-x="167" 
d="M32 695v34q42 0 70 -57t28 -147t-28 -147t-70 -57v34q21 0 36 48t15 122t-15 122t-36 48z" />
    <glyph glyph-name="hyphen.sup" horiz-adv-x="189" 
d="M37 507v36h115v-36h-115z" />
    <glyph glyph-name="zero.sub" horiz-adv-x="301" 
d="M33 125q0 80 33 129.5t85 49.5t84.5 -49.5t32.5 -129.5t-32.5 -129.5t-84.5 -49.5q-53 0 -85.5 49.5t-32.5 129.5zM80 125q0 -62 19.5 -100.5t51.5 -38.5q31 0 50.5 38.5t19.5 100.5q0 61 -19.5 99.5t-50.5 38.5q-32 0 -51.5 -38t-19.5 -100z" />
    <glyph glyph-name="one.sub" horiz-adv-x="183" 
d="M26 250v36l100 16v-352h-45v310z" />
    <glyph glyph-name="two.sub" horiz-adv-x="279" 
d="M32 -12l150 150q19 19 19 54q0 31 -17.5 51t-44.5 20q-28 0 -45.5 -19.5t-17.5 -51.5h-47q0 50 30.5 81t79.5 31q48 0 78 -31t30 -81q0 -49 -33 -84l-120 -120h153v-38h-215v38z" />
    <glyph glyph-name="three.sub" horiz-adv-x="287" 
d="M120 120v38h23q23 0 37.5 15t14.5 38t-14.5 37.5t-37.5 14.5t-37 -14.5t-14 -37.5h-47q0 41 27.5 67t70.5 26q44 0 71.5 -26t27.5 -67q0 -49 -40 -71q53 -24 53 -87q0 -48 -31 -77.5t-81 -29.5t-81 29.5t-31 77.5h47q0 -30 18 -48.5t47 -18.5t47.5 18.5t18.5 48.5
q0 29 -18.5 48t-47.5 19h-23z" />
    <glyph glyph-name="four.sub" horiz-adv-x="297" 
d="M186 -50v65h-158v21l156 264h46v-246h30v-39h-29v-65h-45zM85 54h103v178z" />
    <glyph glyph-name="five.sub" horiz-adv-x="279" 
d="M247 58q0 -50 -30 -81t-78 -31q-49 0 -79.5 29.5t-30.5 76.5h45q0 -29 18 -47.5t47 -18.5q27 0 44.5 20t17.5 52q0 34 -20 55.5t-52 21.5q-35 0 -53 -20l-33 12l21 173h157v-39h-118l-12 -94q16 9 41 9q52 0 83.5 -32.5t31.5 -85.5z" />
    <glyph glyph-name="six.sub" horiz-adv-x="286" 
d="M155 304l39 -22q-54 -71 -84 -124q13 7 33 7q49 0 80 -30t31 -79q0 -50 -30.5 -80t-81.5 -30q-50 0 -80.5 30.5t-30.5 83.5q0 49 27 98.5t97 145.5zM78 56q0 -31 18 -50.5t47 -19.5q28 0 46 19.5t18 50.5q0 32 -18 51.5t-46 19.5q-29 0 -47 -20t-18 -51z" />
    <glyph glyph-name="seven.sub" horiz-adv-x="284" 
d="M33 261v39h217v-15l-122 -335h-48l112 311h-159z" />
    <glyph glyph-name="eight.sub" horiz-adv-x="288" 
d="M45 211q0 41 27.5 67t71.5 26q43 0 70.5 -26t27.5 -67q0 -50 -40 -71q54 -25 54 -87q0 -48 -31 -77.5t-81 -29.5t-81 29.5t-31 77.5q0 63 53 87q-40 21 -40 71zM78 53q0 -30 18.5 -48.5t47.5 -18.5t47 18.5t18 48.5q0 29 -18 47.5t-47 18.5t-47.5 -18.5t-18.5 -47.5z
M92 211q0 -23 14.5 -37.5t37.5 -14.5t37.5 14.5t14.5 37.5t-14.5 37.5t-37.5 14.5t-37.5 -14.5t-14.5 -37.5z" />
    <glyph glyph-name="nine.sub" horiz-adv-x="286" 
d="M130 -54l-39 22q53 67 84 123q-16 -7 -33 -7q-50 0 -80.5 30t-30.5 80q0 49 31 79.5t81 30.5t80.5 -30.5t30.5 -83.5q0 -50 -26.5 -99t-97.5 -145zM207 193q0 31 -17.5 50.5t-46.5 19.5t-47 -19.5t-18 -50.5t18 -50.5t47 -19.5t46.5 19.5t17.5 50.5z" />
    <glyph glyph-name="comma.sub" horiz-adv-x="131" 
d="M50 -107l-15 15q19 19 25 38q-23 5 -23 28q0 12 8 20t21 8q11 0 19.5 -8t8.5 -24q0 -33 -44 -77z" />
    <glyph glyph-name="period.sub" horiz-adv-x="131" 
d="M37 -26q0 12 8 20t20 8t20.5 -8t8.5 -20t-8.5 -20t-20.5 -8t-20 8t-8 20z" />
    <glyph glyph-name="parenleft.sub" horiz-adv-x="167" 
d="M135 329v-34q-22 0 -37 -48t-15 -122q0 -75 15 -123t37 -48v-33q-42 0 -70 57t-28 147t28 147t70 57z" />
    <glyph glyph-name="parenright.sub" horiz-adv-x="167" 
d="M32 295v34q42 0 70 -57t28 -147t-28 -147t-70 -57v34q21 0 36 48t15 122t-15 122t-36 48z" />
    <glyph glyph-name="hyphen.sub" horiz-adv-x="189" 
d="M37 107v36h115v-36h-115z" />
    <glyph glyph-name="zero.smcp" horiz-adv-x="436" 
d="M45 252q0 115 48 186.5t125 71.5t125 -71.5t48 -186.5t-48 -186.5t-125 -71.5t-125 71.5t-48 186.5zM112 252q0 -89 29.5 -144.5t76.5 -55.5t76.5 55.5t29.5 144.5t-29.5 144.5t-76.5 55.5t-76.5 -55.5t-29.5 -144.5z" />
    <glyph glyph-name="one.smcp" horiz-adv-x="260" 
d="M34 432v52l146 23v-507h-65v446z" />
    <glyph glyph-name="two.smcp" horiz-adv-x="404" 
d="M44 55l223 217q27 27 27 77q0 45 -26 73.5t-68 28.5q-41 0 -67.5 -28.5t-26.5 -73.5h-67q0 72 44.5 116.5t116.5 44.5t116.5 -44.5t44.5 -116.5q0 -77 -47 -121l-178 -172h225v-56h-317v55z" />
    <glyph glyph-name="three.smcp" horiz-adv-x="415" 
d="M173 245v55h34q34 0 55.5 21t21.5 55q0 33 -21.5 54.5t-55.5 21.5t-56 -21.5t-22 -54.5h-67q0 60 40 97t105 37q64 0 104.5 -37.5t40.5 -96.5q0 -71 -60 -103q80 -34 80 -125q0 -68 -46 -111t-119 -43q-74 0 -120 43t-46 111h67q0 -43 27.5 -69.5t71.5 -26.5t71 26.5
t27 69.5t-27.5 70t-70.5 27h-34z" />
    <glyph glyph-name="four.smcp" horiz-adv-x="430" 
d="M272 0v94h-234v31l231 379h66v-354h45v-56h-43v-94h-65zM119 150h155v255z" />
    <glyph glyph-name="five.smcp" horiz-adv-x="404" 
d="M361 155q0 -72 -44.5 -116.5t-116.5 -44.5t-116.5 42.5t-44.5 110.5h65q0 -41 27 -68t69 -27t68 29t26 74q0 50 -30 81t-77 31q-51 0 -80 -29l-48 17l31 249h232v-56h-174l-19 -135q24 12 61 12q77 0 124 -47t47 -123z" />
    <glyph glyph-name="six.smcp" horiz-adv-x="412" 
d="M225 510l55 -32q-76 -96 -124 -178q24 11 50 11q73 0 118.5 -43.5t45.5 -114.5t-45.5 -115t-119.5 -44t-119 44t-45 120q0 73 40 145t144 207zM108 153q0 -45 27 -73t71 -28q43 0 70 28t27 73t-27 73.5t-70 28.5t-70.5 -28.5t-27.5 -73.5z" />
    <glyph glyph-name="seven.smcp" horiz-adv-x="410" 
d="M45 448v56h320v-21l-182 -483h-70l168 448h-236z" />
    <glyph glyph-name="eight.smcp" horiz-adv-x="416" 
d="M63 376q0 59 40.5 96.5t104.5 37.5t104.5 -37.5t40.5 -96.5q0 -71 -60 -103q80 -34 80 -125q0 -68 -45.5 -111t-119.5 -43q-73 0 -119 43t-46 111q0 91 79 125q-59 32 -59 103zM110 148q0 -43 27 -69.5t71 -26.5t71 26.5t27 69.5t-27 69.5t-71 26.5t-71 -26.5t-27 -69.5z
M131 376q0 -34 21 -54.5t56 -20.5t56.5 20.5t21.5 54.5q0 33 -22 54.5t-56 21.5t-55.5 -21.5t-21.5 -54.5z" />
    <glyph glyph-name="nine.smcp" horiz-adv-x="412" 
d="M187 -6l-56 32q81 102 124 178q-22 -11 -50 -11q-73 0 -118.5 43t-45.5 115q0 71 45.5 115t119.5 44t119 -44.5t45 -120.5q0 -72 -40 -144t-143 -207zM303 350q0 45 -27 73.5t-70 28.5t-70.5 -28.5t-27.5 -73.5t27 -73t71 -28q43 0 70 28t27 73z" />
    <glyph glyph-name="Euro.smcp" horiz-adv-x="578" 
d="M41 281v38h49q20 88 88.5 139.5t166.5 51.5q118 0 191 -73l-43 -43q-55 55 -144 55q-68 0 -118 -35t-69 -95h188v-38h-195q-2 -20 -2 -29q0 -12 2 -30h195v-37h-188q19 -60 69 -95.5t118 -35.5q89 0 144 55l43 -43q-74 -72 -191 -72q-98 0 -166.5 51.5t-88.5 139.5h-49
v37h43q-1 9 -1 30q0 19 1 29h-43z" />
    <glyph glyph-name="sterling.smcp" horiz-adv-x="408" 
d="M41 226v51h56v94q0 63 41.5 101t106.5 38q66 0 109 -41l-44 -43q-23 23 -62 23q-37 0 -60.5 -21t-23.5 -57v-94h128v-51h-128v-136q15 -4 49.5 -22.5t54.5 -18.5q19 0 30 11t11 29h53q0 -43 -26 -69t-67 -26q-32 0 -74.5 23t-61.5 23t-30 -10.5t-11 -29.5h-53
q0 33 15.5 56.5t42.5 32.5v137h-56z" />
    <glyph glyph-name="yen.smcp" horiz-adv-x="524" 
d="M128 154v38h100v21l-197 291h78l153 -225l153 225h77l-197 -292v-20h100v-38h-100v-54h100v-37h-100v-63h-67v63h-100v37h100v54h-100z" />
    <glyph glyph-name="uni20B4.smcp" horiz-adv-x="346" 
d="M43 279v37h153l9 8q29 27 29 60q0 29 -21 48t-53 19q-46 0 -74 -31l-42 41q44 49 116 49q63 0 101.5 -34.5t38.5 -89.5q0 -39 -23 -70h26v-37h-59l-54 -52h113v-37h-152l-10 -10q-30 -28 -30 -60q0 -30 21 -49t54 -19q47 0 74 32l41 -42q-43 -48 -115 -48
q-63 0 -102 34.5t-39 89.5q0 39 25 72h-27v37h62l53 52h-115z" />
    <glyph glyph-name="numbersign.smcp" horiz-adv-x="473" 
d="M256 0l19 121h-119l-19 -121h-65l19 121h-53v51h61l25 160h-61v51h68l20 121h66l-21 -121h120l19 121h65l-19 -121h54v-51h-62l-25 -160h62v-51h-70l-19 -121h-65zM190 332l-26 -160h119l25 160h-118z" />
    <glyph glyph-name="zero.fitted.smcp" horiz-adv-x="412" 
d="M36 252q0 115 47 186.5t123 71.5t123 -71.5t47 -186.5t-47 -186.5t-123 -71.5t-123 71t-47 187zM103 252q0 -89 28.5 -144.5t74.5 -55.5t74.5 55.5t28.5 144.5t-28.5 144.5t-74.5 55.5t-74.5 -55.5t-28.5 -144.5z" />
    <glyph glyph-name="one.fitted.smcp" horiz-adv-x="412" 
d="M81 0v51h91v395l-98 -14v52l163 23v-456h92v-51h-248z" />
    <glyph glyph-name="two.fitted.smcp" horiz-adv-x="412" 
d="M47 55l224 217q28 27 28 77q0 45 -26.5 73.5t-68.5 28.5t-68.5 -28.5t-26.5 -73.5h-67q0 72 45 116.5t117 44.5q73 0 117.5 -44.5t44.5 -116.5q0 -71 -52 -121l-180 -172h232v-56h-319v55z" />
    <glyph glyph-name="three.fitted.smcp" horiz-adv-x="412" 
d="M171 245v55h34q35 0 56.5 21t21.5 55q0 33 -22 54.5t-56 21.5t-55.5 -21.5t-21.5 -54.5h-67q0 59 40 96.5t104 37.5q65 0 105 -37t40 -97q0 -70 -59 -103q79 -34 79 -125q0 -68 -45.5 -111t-119.5 -43q-73 0 -119 43t-46 111h67q0 -43 27 -69.5t71 -26.5t71 26.5t27 69.5
t-27.5 70t-70.5 27h-34z" />
    <glyph glyph-name="four.fitted.smcp" horiz-adv-x="412" 
d="M262 0v94h-231v31l228 379h66v-354h45v-56h-43v-94h-65zM112 150h152v255z" />
    <glyph glyph-name="five.fitted.smcp" horiz-adv-x="412" 
d="M366 155q0 -72 -44.5 -116.5t-117.5 -44.5q-72 0 -117 42.5t-45 110.5h65q0 -41 27 -68t70 -27q42 0 68.5 29t26.5 74q0 50 -30.5 81t-78.5 31q-51 0 -80 -29l-48 17l32 249h233v-56h-176l-19 -135q24 12 62 12q77 0 124.5 -47t47.5 -123z" />
    <glyph glyph-name="six.fitted.smcp" horiz-adv-x="412" 
d="M224 510l56 -32q-76 -96 -124 -178q22 11 51 11q73 0 119 -43.5t46 -114.5t-46 -115t-121 -44q-74 0 -119.5 44t-45.5 120q0 73 40 145t144 207zM107 153q0 -45 27.5 -73t71.5 -28q43 0 70.5 28t27.5 73t-27.5 73.5t-70.5 28.5q-44 0 -71.5 -28.5t-27.5 -73.5z" />
    <glyph glyph-name="seven.fitted.smcp" horiz-adv-x="412" 
d="M46 448v56h320v-21l-182 -483h-70l168 448h-236z" />
    <glyph glyph-name="eight.fitted.smcp" horiz-adv-x="412" 
d="M61 376q0 59 40.5 96.5t104.5 37.5t104.5 -37.5t40.5 -96.5q0 -70 -59 -103q80 -34 80 -125q0 -68 -46 -111t-120 -43t-120 43t-46 111q0 91 80 125q-59 32 -59 103zM107 148q0 -43 27.5 -69.5t71.5 -26.5t71.5 26.5t27.5 69.5t-27.5 69.5t-71.5 26.5t-71.5 -26.5
t-27.5 -69.5zM128 376q0 -33 22 -54t56 -21q35 0 56.5 20.5t21.5 54.5q0 33 -22 54.5t-56 21.5t-56 -21.5t-22 -54.5z" />
    <glyph glyph-name="nine.fitted.smcp" horiz-adv-x="413" 
d="M187 -6l-56 32q75 93 125 178q-24 -11 -51 -11q-73 0 -118.5 43.5t-45.5 114.5t46 115t119 44q74 0 119.5 -44.5t45.5 -120.5q0 -72 -40 -144.5t-144 -206.5zM304 350q0 45 -27.5 73.5t-70.5 28.5t-70.5 -28.5t-27.5 -73.5t27 -73t71 -28t71 28t27 73z" />
    <glyph glyph-name="exclam.smcp" horiz-adv-x="185" 
d="M51 35q0 17 12 29t29 12t29.5 -12t12.5 -29t-12.5 -29t-29.5 -12t-29 12t-12 29zM60 142v362h65v-362h-65z" />
    <glyph glyph-name="ampersand.smcp" horiz-adv-x="470" 
d="M258 245v55h170v-55h-51v-97q0 -68 -46 -111t-119 -43q-74 0 -120 43t-46 111q0 91 80 125q-59 33 -59 103q0 60 40 97t105 37q64 0 104.5 -37.5t40.5 -96.5h-68q0 33 -21.5 54.5t-55.5 21.5t-56 -21.5t-22 -54.5q0 -34 21.5 -55t56.5 -21h20v-55h-20q-44 0 -71.5 -27
t-27.5 -70t27.5 -69.5t71.5 -26.5t71 26.5t27 69.5v97h-52z" />
    <glyph glyph-name="slash.smcp" horiz-adv-x="430" 
d="M45 -36l275 576h65l-275 -576h-65z" />
    <glyph glyph-name="backslash.smcp" horiz-adv-x="430" 
d="M110 540l275 -576h-65l-275 576h65z" />
    <glyph glyph-name="at.smcp" horiz-adv-x="614" 
d="M472 97l31 -31q-70 -72 -195 -72q-118 0 -190.5 71t-72.5 187q0 115 72.5 186.5t189.5 71.5t189.5 -68.5t72.5 -169.5q0 -75 -38 -110t-87 -35q-48 0 -67 28q-31 -28 -76 -28q-52 0 -84.5 34.5t-32.5 90.5t36 90t94 34q71 0 105 -42v-134q0 -28 35 -28q26 0 44.5 23
t18.5 72q0 87 -57 142.5t-152 55.5t-153.5 -59t-58.5 -154q0 -96 58.5 -155t154.5 -59q104 0 163 59zM235 252q0 -37 21.5 -58.5t57.5 -21.5q34 0 56 20v123q-22 17 -57 17q-36 0 -57 -22t-21 -58z" />
    <glyph glyph-name="parenleft.smcp" horiz-adv-x="239" 
d="M195 546v-49q-32 0 -54.5 -69.5t-22.5 -176.5q0 -106 22.5 -175t54.5 -69v-49q-62 0 -103 82t-41 212t41 212t103 82z" />
    <glyph glyph-name="parenright.smcp" horiz-adv-x="239" 
d="M43 497v49q62 0 103.5 -82.5t41.5 -211.5t-41.5 -211.5t-103.5 -82.5v49q32 0 55 69t23 176q0 106 -23 175.5t-55 69.5z" />
    <glyph glyph-name="bracketleft.smcp" horiz-adv-x="240" 
d="M196 540v-51h-72v-474h72v-51h-137v576h137z" />
    <glyph glyph-name="bracketright.smcp" horiz-adv-x="240" 
d="M43 489v51h137v-576h-137v51h72v474h-72z" />
    <glyph glyph-name="braceleft.smcp" horiz-adv-x="253" 
d="M215 7v-49q-52 0 -87.5 35.5t-35.5 91.5v52q0 39 -16 64t-38 25v49q22 0 38 25t16 64v54q0 56 35.5 92t87.5 36v-49q-23 0 -39 -25t-16 -63v-52q0 -77 -62 -107q28 -13 45 -40.5t17 -64.5v-51q0 -38 16 -62.5t39 -24.5z" />
    <glyph glyph-name="braceright.smcp" horiz-adv-x="253" 
d="M38 -42v49q22 0 38 24.5t16 62.5v51q0 37 17 64.5t46 40.5q-63 31 -63 107v52q0 38 -16 63t-38 25v49q52 0 87 -36t35 -92v-54q0 -39 16 -64t39 -25v-49q-23 0 -39 -25t-16 -64v-52q0 -56 -35 -91.5t-87 -35.5z" />
    <glyph glyph-name="exclamdown.smcp" horiz-adv-x="185" 
d="M51 468q0 18 12 30t29 12t29.5 -12t12.5 -30q0 -16 -12.5 -28t-29.5 -12t-29 11.5t-12 28.5zM60 362h65v-362h-65v362z" />
    <glyph glyph-name="questiondown.smcp" horiz-adv-x="370" 
d="M293 90l42 -42q-62 -54 -145 -54q-70 0 -109.5 38t-39.5 93q0 35 18 60.5t39.5 38.5t39.5 37.5t18 58.5v42h65v-42q0 -36 -11.5 -63t-28.5 -42t-33.5 -28t-28 -28t-11.5 -33q0 -29 21.5 -51.5t61.5 -22.5q61 0 102 38zM230 468q0 -16 -12.5 -28t-29.5 -12t-29 11.5
t-12 28.5q0 18 12 30t29 12t29.5 -12t12.5 -30z" />
    <glyph glyph-name="question.smcp" horiz-adv-x="370" 
d="M77 414l-42 42q62 54 145 54q70 0 109.5 -38.5t39.5 -93.5q0 -35 -18 -60.5t-39.5 -38.5t-39.5 -37t-18 -58v-42h-65v42q0 36 11.5 62.5t28 42t33 28t28 27.5t11.5 33q0 29 -21 52t-62 23q-58 0 -101 -38zM140 35q0 17 12 29t30 12q17 0 29 -12t12 -29t-12 -29t-29 -12
q-18 0 -30 12t-12 29z" />
    <glyph glyph-name="bar.smcp" horiz-adv-x="184" 
d="M59 -36v576h65v-576h-65z" />
    <glyph glyph-name="brokenbar.smcp" horiz-adv-x="184" 
d="M59 -36v252h65v-252h-65zM124 540v-252h-65v252h65z" />
    <glyph glyph-name="percent.smcp" horiz-adv-x="665" 
d="M162 0l275 504h66l-275 -504h-66zM38 384q0 56 35.5 91t93.5 35t93.5 -35t35.5 -91t-35.5 -90.5t-93.5 -34.5t-93.5 34.5t-35.5 90.5zM96 384q0 -34 19.5 -55t51.5 -21t51.5 21t19.5 55t-20 55.5t-51 21.5t-51 -21.5t-20 -55.5zM369 119q0 56 35.5 90.5t93.5 34.5
q57 0 93 -34.5t36 -90.5q0 -55 -36 -90t-93 -35q-58 0 -93.5 34.5t-35.5 90.5zM427 119q0 -34 19.5 -55t51.5 -21t51.5 21t19.5 55t-20 55.5t-51 21.5t-51 -21.5t-20 -55.5z" />
    <glyph glyph-name="perthousand.smcp" horiz-adv-x="959" 
d="M162 0l275 504h66l-275 -504h-66zM38 384q0 56 35.5 91t93.5 35t93.5 -35t35.5 -91t-35.5 -90.5t-93.5 -34.5t-93.5 34.5t-35.5 90.5zM96 384q0 -34 19.5 -55t51.5 -21t51.5 21t19.5 55t-20 55.5t-51 21.5t-51 -21.5t-20 -55.5zM369 119q0 56 35.5 90.5t93.5 34.5
q57 0 93 -34.5t36 -90.5q0 -55 -36 -90t-93 -35q-58 0 -93.5 34.5t-35.5 90.5zM427 119q0 -34 19.5 -55t51.5 -21t51.5 21t19.5 55t-20 55.5t-51 21.5t-51 -21.5t-20 -55.5zM662 119q0 56 36 90.5t93 34.5q58 0 94 -34.5t36 -90.5t-36 -90.5t-94 -34.5q-57 0 -93 35t-36 90z
M720 119q0 -34 19.5 -55t51.5 -21t51.5 21t19.5 55t-20 55.5t-51 21.5t-51 -21.5t-20 -55.5z" />
    <glyph glyph-name="dagger.smcp" horiz-adv-x="390" 
d="M51 338v51h111v151h65v-151h112v-51h-112v-374h-65v374h-111z" />
    <glyph glyph-name="daggerdbl.smcp" horiz-adv-x="390" 
d="M51 122v51h111v165h-111v51h111v151h65v-151h112v-51h-112v-165h112v-51h-112v-158h-65v158h-111z" />
    <glyph glyph-name="section.smcp" horiz-adv-x="334" 
d="M136 318l150 -146l-43 -43l-152 147q-50 48 -50 107q0 56 39 91.5t102 35.5q71 0 115 -49l-41 -41q-28 31 -74 31q-32 0 -52.5 -19t-20.5 -49q0 -39 27 -65zM198 5l-150 146l44 44l152 -148q49 -47 49 -107q0 -56 -39 -91t-102 -35q-72 0 -115 48l41 42q29 -32 74 -32
q33 0 53.5 19.5t20.5 49.5q0 38 -28 64z" />
    <glyph glyph-name="paragraph.smcp" horiz-adv-x="459" 
d="M280 504v-504h-63v225h-20q-68 0 -109.5 38t-41.5 101t41.5 101.5t109.5 38.5h83zM337 0v504h62v-504h-62z" />
    <glyph glyph-name="afii61352.smcp" horiz-adv-x="758" 
d="M61 504h45l312 -376v376h67v-504h-45l-312 375v-375h-67v504zM536 415q0 41 26.5 66.5t68.5 25.5q43 0 70 -25.5t27 -66.5q0 -42 -26.5 -67.5t-70.5 -25.5q-42 0 -68.5 25.5t-26.5 67.5zM577 415q0 -26 15 -42t39 -16q25 0 40 16t15 42q0 25 -15 40.5t-40 15.5
q-24 0 -39 -15.5t-15 -40.5z" />
    <glyph glyph-name="afii10017.smcp" horiz-adv-x="564" 
d="M456 0l-57 134h-235l-57 -134h-78l221 504h63l221 -504h-78zM282 417l-94 -223h187z" />
    <glyph glyph-name="afii10018.smcp" horiz-adv-x="425" 
d="M64 0v504h271v-56h-201v-160h87q70 0 112.5 -39.5t42.5 -104.5q0 -66 -42.5 -105t-112.5 -39h-157zM307 144q0 38 -24 62t-62 24h-87v-172h87q38 0 62 23.5t24 62.5z" />
    <glyph glyph-name="afii10019.smcp" horiz-adv-x="433" 
d="M64 0v504h148q64 0 103 -36t39 -96q0 -70 -57 -106q39 -14 62 -47.5t23 -78.5q0 -63 -42 -101.5t-110 -38.5h-166zM314 145q0 39 -23.5 62.5t-62.5 23.5h-94v-173h94q39 0 62.5 23.5t23.5 63.5zM286 367q0 36 -21.5 57.5t-56.5 21.5h-74v-157h74q35 0 56.5 21.5
t21.5 56.5z" />
    <glyph glyph-name="afii10020.smcp" horiz-adv-x="371" 
d="M64 0v504h265v-56h-198v-448h-67z" />
    <glyph glyph-name="afii10021.smcp" horiz-adv-x="532" 
d="M436 0h-340v-122h-63v175q39 0 65.5 40t26.5 101v310h320v-448h54v-178h-63v122zM194 193q0 -37 -11.5 -78t-30.5 -59h223v392h-181v-255z" />
    <glyph glyph-name="afii10022.smcp" horiz-adv-x="391" 
d="M131 448v-167h186v-56h-186v-169h213v-56h-280v504h277v-56h-210z" />
    <glyph glyph-name="afii10023.smcp" horiz-adv-x="391" 
d="M131 448v-167h186v-56h-186v-169h213v-56h-280v504h277v-56h-210zM61 578q0 20 13.5 34t33.5 14t34 -14t14 -34t-14 -33.5t-34 -13.5t-33.5 13.5t-13.5 33.5zM248 578q0 20 14 34t34 14t34 -14t14 -34t-14 -33.5t-34 -13.5t-34 13.5t-14 33.5z" />
    <glyph glyph-name="afii10024.smcp" horiz-adv-x="706" 
d="M319 0v504h67v-504h-67zM594 0l-205 259l193 245h78l-193 -245l206 -259h-79zM316 259l-205 -259h-79l206 259l-193 245h78z" />
    <glyph glyph-name="afii10025.smcp" horiz-adv-x="433" 
d="M147 231v58h61q38 0 60.5 21.5t22.5 59.5q0 37 -23 59t-65 22q-63 0 -113 -50l-41 41q70 68 159 68q72 0 111 -37.5t39 -97.5q0 -75 -61 -109q40 -15 62.5 -48t22.5 -79q0 -67 -45.5 -106t-124.5 -39q-102 0 -171 69l43 42q52 -52 123 -52q52 0 80 25t28 67
q0 39 -24 62.5t-63 23.5h-81z" />
    <glyph glyph-name="afii10026.smcp" horiz-adv-x="545" 
d="M436 504h45v-504h-67v375l-305 -375h-45v504h67v-376z" />
    <glyph glyph-name="afii10027.smcp" horiz-adv-x="545" 
d="M273 588q62 0 102 42l39 -39q-57 -59 -141 -59q-83 0 -141 60l39 39q41 -43 102 -43zM436 504h45v-504h-67v375l-305 -375h-45v504h67v-376z" />
    <glyph glyph-name="afii10028.smcp" horiz-adv-x="475" 
d="M63 0v504h67v-504h-67zM355 0l-221 259l206 245h85l-207 -245l224 -259h-87z" />
    <glyph glyph-name="afii10029.smcp" horiz-adv-x="513" 
d="M40 0v43q40 0 63 30.5t23 83.5v347h323v-504h-70v448h-184v-288q0 -70 -32 -117t-83 -47q-29 0 -40 4z" />
    <glyph glyph-name="afii10030.smcp" horiz-adv-x="621" 
d="M489 0v366l-165 -255h-27l-166 255v-366h-67v504h51l195 -296l196 296h51v-504h-68z" />
    <glyph glyph-name="afii10031.smcp" horiz-adv-x="535" 
d="M131 504v-223h273v223h67v-504h-67v225h-273v-225h-67v504h67z" />
    <glyph glyph-name="afii10032.smcp" horiz-adv-x="615" 
d="M48 252q0 115 72 186.5t188 71.5q115 0 187 -71.5t72 -186.5t-71.5 -186.5t-187.5 -71.5t-188 71.5t-72 186.5zM117 252q0 -88 53 -143t138 -55t137 55t52 143t-52 142.5t-137 54.5t-138 -54.5t-53 -142.5z" />
    <glyph glyph-name="afii10033.smcp" horiz-adv-x="511" 
d="M64 504h383v-504h-67v448h-249v-448h-67v504z" />
    <glyph glyph-name="afii10034.smcp" horiz-adv-x="414" 
d="M64 0v504h145q70 0 113 -39.5t43 -104.5q0 -66 -43 -105.5t-113 -39.5h-75v-215h-70zM295 360q0 38 -24 62t-62 24h-75v-172h75q38 0 62 23.5t24 62.5z" />
    <glyph glyph-name="afii10035.smcp" horiz-adv-x="543" 
d="M118 252q0 -88 54.5 -143t141.5 -55q91 0 144 55l44 -43q-75 -72 -191 -72q-117 0 -189.5 71.5t-72.5 186.5t72.5 186.5t189.5 71.5q116 0 191 -73l-44 -43q-53 55 -144 55q-87 0 -141.5 -54.5t-54.5 -142.5z" />
    <glyph glyph-name="afii10036.smcp" horiz-adv-x="439" 
d="M253 448v-448h-67v448h-145v56h357v-56h-145z" />
    <glyph glyph-name="afii10037.smcp" horiz-adv-x="477" 
d="M448 504l-258 -504h-72l89 158l-179 346h73l138 -268l137 268h72z" />
    <glyph glyph-name="afii10038.smcp" horiz-adv-x="605" 
d="M269 0v48q-98 0 -159 56.5t-61 147.5t61 147.5t159 56.5v48h67v-48q99 0 159.5 -56.5t60.5 -147.5t-60.5 -147.5t-159.5 -56.5v-48h-67zM336 395v-287q67 0 109 40t42 104t-42 103.5t-109 39.5zM269 108v287q-67 0 -109 -39.5t-42 -103.5t42 -104t109 -40z" />
    <glyph glyph-name="afii10039.smcp" horiz-adv-x="545" 
d="M427 0l-155 210l-155 -210h-86l191 255l-186 249h87l149 -203l149 203h87l-186 -249l192 -255h-87z" />
    <glyph glyph-name="afii10040.smcp" horiz-adv-x="563" 
d="M463 0h-399v504h67v-448h275v448h68v-448h52v-178h-63v122z" />
    <glyph glyph-name="afii10041.smcp" horiz-adv-x="453" 
d="M389 0h-65v221q-49 -13 -108 -13q-74 0 -113 40.5t-39 115.5v140h65v-138q0 -105 100 -105q60 0 95 13v230h65v-504z" />
    <glyph glyph-name="afii10042.smcp" horiz-adv-x="754" 
d="M690 0h-626v504h67v-448h213v448h67v-448h212v448h67v-504z" />
    <glyph glyph-name="afii10043.smcp" horiz-adv-x="779" 
d="M679 0h-615v504h67v-448h213v448h67v-448h212v448h67v-448h52v-178h-63v122z" />
    <glyph glyph-name="afii10044.smcp" horiz-adv-x="512" 
d="M41 448v56h183v-216h84q69 0 112 -39.5t43 -104.5q0 -66 -43 -105t-112 -39h-153v448h-114zM393 144q0 38 -23.5 62t-61.5 24h-84v-172h84q38 0 61.5 23.5t23.5 62.5z" />
    <glyph glyph-name="afii10045.smcp" horiz-adv-x="574" 
d="M64 0v504h70v-216h83q69 0 112 -39.5t43 -104.5q0 -66 -43 -105t-112 -39h-153zM303 144q0 38 -24 62t-62 24h-83v-172h83q38 0 62 23.5t24 62.5zM442 0v504h67v-504h-67z" />
    <glyph glyph-name="afii10046.smcp" horiz-adv-x="421" 
d="M64 0v504h70v-216h83q69 0 112 -39.5t43 -104.5q0 -66 -43 -105t-112 -39h-153zM303 144q0 38 -24 62t-62 24h-83v-172h83q38 0 62 23.5t24 62.5z" />
    <glyph glyph-name="afii10047.smcp" horiz-adv-x="537" 
d="M84 394l-43 43q71 73 188 73q116 0 188 -71.5t72 -186.5t-72 -186.5t-188 -71.5t-188 72l43 43q53 -55 142 -55q79 0 131 47t60 124h-247v56h247q-8 76 -60.5 122t-130.5 46q-90 0 -142 -55z" />
    <glyph glyph-name="afii10048.smcp" horiz-adv-x="781" 
d="M131 504v-223h127q9 103 73.5 166t162.5 63q107 0 173 -71.5t66 -186.5q0 -116 -66 -187t-173 -71q-99 0 -163.5 63t-72.5 168h-127v-225h-67v504h67zM326 252q0 -88 47 -143t121 -55q76 0 122.5 55t46.5 143t-46.5 142.5t-122.5 54.5q-74 0 -121 -54.5t-47 -142.5z" />
    <glyph glyph-name="afii10049.smcp" horiz-adv-x="432" 
d="M367 504v-504h-69v215h-72l-113 -215h-77l124 219q-51 12 -81 49.5t-30 91.5q0 65 43 104.5t113 39.5h162zM119 360q0 -39 23.5 -62.5t62.5 -23.5h93v172h-93q-39 0 -62.5 -24t-23.5 -62z" />
    <glyph glyph-name="afii10050.smcp" horiz-adv-x="369" 
d="M131 448v-448h-67v504h201v90h52v-146h-186z" />
    <glyph glyph-name="afii10051.smcp" horiz-adv-x="537" 
d="M369 0v43q39 0 39 36v96q0 34 -21 55.5t-55 21.5q-51 0 -79 -30v-222h-67v448h-145v56h357v-56h-145v-169q42 32 96 32q57 0 91.5 -37.5t34.5 -98.5v-98q0 -37 -21 -59t-57 -22q-20 0 -28 4z" />
    <glyph glyph-name="afii10052.smcp" horiz-adv-x="371" 
d="M128 556l126 126l39 -39l-126 -126zM64 0v504h265v-56h-198v-448h-67z" />
    <glyph glyph-name="afii10053.smcp" horiz-adv-x="537" 
d="M311 449q-79 0 -131 -46t-60 -122h291v-56h-291q8 -77 60 -124t131 -47q89 0 142 55l43 -43q-72 -72 -188 -72t-188 71.5t-72 186.5t72 186.5t188 71.5q117 0 188 -73l-43 -43q-53 55 -142 55z" />
    <glyph glyph-name="afii10054.smcp" horiz-adv-x="425" 
d="M358 448l-42 -43q-18 19 -47.5 31.5t-58.5 12.5q-42 0 -63.5 -24t-21.5 -53q0 -30 25.5 -50t61.5 -33t72.5 -28t62 -45t25.5 -75q0 -62 -42.5 -104.5t-119.5 -42.5q-98 0 -167 69l42 42q48 -51 118 -51q49 0 74 26.5t25 59.5q0 29 -25.5 48t-61.5 31.5t-72 27.5t-61.5 46
t-25.5 77q0 60 38 100t109 40q91 0 155 -62z" />
    <glyph glyph-name="afii10055.smcp" horiz-adv-x="194" 
d="M63 0v504h67v-504h-67z" />
    <glyph glyph-name="afii10056.smcp" horiz-adv-x="195" 
d="M63 0v504h68v-504h-68zM-2 575q0 16 11.5 27t27.5 11t27.5 -11t11.5 -27q0 -17 -11 -28t-28 -11t-28 11t-11 28zM118 575q0 16 11.5 27.5t27.5 11.5t28 -11.5t12 -27.5t-11.5 -27.5t-28.5 -11.5t-28 11t-11 28z" />
    <glyph glyph-name="afii10057.smcp" horiz-adv-x="361" 
d="M231 139v365h67v-365q0 -64 -41.5 -104.5t-107.5 -40.5q-67 0 -108 41l44 43q22 -24 62 -24q37 0 60.5 24t23.5 61z" />
    <glyph glyph-name="afii10058.smcp" horiz-adv-x="726" 
d="M369 0v448h-174v-288q0 -70 -31.5 -117t-84.5 -47q-28 0 -39 4v43q40 0 63 30.5t23 83.5v347h312v-216h83q70 0 113 -39.5t43 -104.5q0 -66 -43 -105t-113 -39h-152zM607 144q0 38 -23.5 62t-62.5 24h-83v-172h83q39 0 62.5 23.5t23.5 62.5z" />
    <glyph glyph-name="afii10059.smcp" horiz-adv-x="722" 
d="M131 504v-216h234v216h70v-216h83q70 0 112.5 -39.5t42.5 -104.5q0 -66 -42.5 -105t-112.5 -39h-153v230h-234v-230h-67v504h67zM604 144q0 38 -24 62t-62 24h-83v-172h83q38 0 62 23.5t24 62.5z" />
    <glyph glyph-name="afii10060.smcp" horiz-adv-x="537" 
d="M253 448v-169q42 32 96 32q57 0 91.5 -37.5t34.5 -98.5v-175h-67v175q0 34 -21 55.5t-55 21.5q-51 0 -79 -30v-222h-67v448h-145v56h357v-56h-145z" />
    <glyph glyph-name="afii10061.smcp" horiz-adv-x="475" 
d="M63 0v504h67v-504h-67zM355 0l-221 259l206 245h85l-207 -245l224 -259h-87zM169 556l126 126l39 -39l-126 -126z" />
    <glyph glyph-name="afii10062.smcp" horiz-adv-x="477" 
d="M238 588q62 0 102 42l39 -39q-57 -59 -141 -59q-83 0 -141 60l39 39q41 -43 102 -43zM448 504l-258 -504h-72l89 158l-179 346h73l138 -268l137 268h72z" />
    <glyph glyph-name="afii10145.smcp" horiz-adv-x="538" 
d="M238 0h-174v504h67v-448h275v448h68v-504h-174v-122h-62v122z" />
    <glyph glyph-name="uni0400.smcp" horiz-adv-x="391" 
d="M131 448v-167h186v-56h-186v-169h213v-56h-280v504h277v-56h-210zM145 682l126 -126l-39 -39l-126 126z" />
    <glyph glyph-name="uni040D.smcp" horiz-adv-x="545" 
d="M214 682l126 -126l-39 -39l-126 126zM436 504h45v-504h-67v375l-305 -375h-45v504h67v-376z" />
    <glyph glyph-name="uni04D8.smcp" horiz-adv-x="570" 
d="M522 252q0 -115 -66 -186.5t-171 -71.5q-106 0 -171.5 71.5t-65.5 186.5v25h402q-8 77 -60 124.5t-131 47.5q-90 0 -143 -55l-42 43q71 73 188 73q116 0 188 -71.5t72 -186.5zM285 54q67 0 112 46t52 121h-329q7 -75 52 -121t113 -46z" />
    <glyph glyph-name="afii10069.alt" horiz-adv-x="566" 
d="M532 60v-200h-70v140h-358v-140h-70v200h47l167 390h71l165 -390h48zM283 364l-121 -304h241z" />
    <glyph glyph-name="afii10077.alt" horiz-adv-x="493" 
d="M15 0l196 450h70l196 -450h-83l-148 360l-147 -360h-84z" />
    <glyph glyph-name="afii10021.alt" horiz-adv-x="791" 
d="M680 0h-570v-170h-72v235h53l267 635h74l267 -635h54v-235h-73v170zM395 601l-214 -536h429z" />
    <glyph glyph-name="afii10029.alt" horiz-adv-x="731" 
d="M30 0l299 700h73l298 -700h-91l-243 599l-244 -599h-92z" />
    <glyph glyph-name="afii10058.alt" horiz-adv-x="973" 
d="M30 0l299 700h73l130 -308h191q89 0 143.5 -53.5t54.5 -142.5t-54.5 -142.5t-143.5 -53.5h-114l-243 599l-244 -599h-92zM723 325h-161l108 -258h53q53 0 85.5 35.5t32.5 93.5t-32.5 93.5t-85.5 35.5z" />
    <glyph glyph-name="afii10106.alt" horiz-adv-x="671" 
d="M15 0l196 450h70l81 -188h132q65 0 103 -36.5t38 -94.5t-37.5 -94.5t-102.5 -36.5h-101l-148 360l-147 -360h-84zM491 205h-103l63 -148h41q30 0 49 21t19 53t-19.5 53t-49.5 21z" />
    <glyph glyph-name="at.case" horiz-adv-x="804" 
d="M632 130l37 -36q-97 -102 -265 -102q-159 0 -256.5 99t-97.5 259q0 159 98 258t255 99q158 0 254.5 -94.5t96.5 -234.5q0 -103 -50.5 -151.5t-115.5 -48.5q-66 0 -89 37q-42 -37 -102 -37q-72 0 -116 47.5t-44 124.5t47.5 124.5t125.5 47.5q92 0 139 -55v-200
q0 -18 14.5 -27.5t35.5 -9.5q39 0 67 34t28 108q0 123 -79 203t-211 80t-213 -84t-81 -221q0 -138 81 -221.5t215 -83.5q144 0 226 85zM297 350q0 -55 31 -87.5t83 -32.5q49 0 80 29v187q-32 23 -82 23q-52 0 -82 -32.5t-30 -86.5z" />
    <glyph glyph-name="exclamdown.case" 
d="M60 657q0 21 14.5 35.5t35.5 14.5t35.5 -14.5t14.5 -35.5t-14.5 -35.5t-35.5 -14.5t-35.5 14.5t-14.5 35.5zM72 507h75v-507h-75v507z" />
    <glyph glyph-name="questiondown.case" horiz-adv-x="471" 
d="M385 115l49 -49q-80 -74 -193 -74q-93 0 -144.5 52.5t-51.5 128.5q0 41 16 71t39 48.5t46 37.5t39 49t16 71v57h75v-57q0 -51 -16 -88.5t-38.5 -58.5t-45 -38.5t-38.5 -40t-16 -50.5q0 -45 30.5 -79.5t90.5 -34.5q85 0 142 55zM288 657q0 -21 -14.5 -35.5t-35.5 -14.5
t-35.5 14.5t-14.5 35.5t14.5 35.5t35.5 14.5t35.5 -14.5t14.5 -35.5z" />
    <glyph glyph-name="dagger.case" horiz-adv-x="500" 
d="M60 477v60h152v213h75v-213h153v-60h-153v-527h-75v527h-152z" />
    <glyph glyph-name="daggerdbl.case" horiz-adv-x="500" 
d="M60 177v60h152v240h-152v60h152v213h75v-213h153v-60h-153v-240h153v-60h-153v-227h-75v227h-152z" />
    <glyph glyph-name="germandbls.case" horiz-adv-x="590" 
d="M150 520v-520h-78v520q0 83 53.5 135t139.5 52t139.5 -51t53.5 -134q0 -61 -33 -105t-90 -58q0 -35 21.5 -58t52 -36.5t61 -28.5t52 -43.5t21.5 -72.5q0 -52 -39.5 -90t-110.5 -38q-92 0 -148 61l46 46q38 -43 97 -43q40 0 60 20.5t20 44.5q0 27 -21.5 46t-52 32.5
t-61 29.5t-52 48t-21.5 79v59q53 0 86.5 30.5t33.5 79.5q0 50 -32 82.5t-83 32.5t-83 -33.5t-32 -86.5z" />
    <glyph glyph-name="parenleft.case" horiz-adv-x="297" 
d="M247 757v-57q-45 0 -77.5 -99t-32.5 -252q0 -152 32.5 -251t77.5 -99v-57q-80 0 -133.5 114t-53.5 294q0 179 53.5 293t133.5 114z" />
    <glyph glyph-name="parenright.case" horiz-adv-x="297" 
d="M50 700v57q80 0 133.5 -114t53.5 -293q0 -180 -53.5 -294t-133.5 -114v58q45 0 77.5 98.5t32.5 251.5t-32.5 251.5t-77.5 98.5z" />
    <glyph glyph-name="bracketleft.case" horiz-adv-x="297" 
d="M247 750v-60h-100v-680h100v-60h-175v800h175z" />
    <glyph glyph-name="bracketright.case" horiz-adv-x="297" 
d="M50 690v60h175v-800h-175v60h100v680h-100z" />
    <glyph glyph-name="braceleft.case" horiz-adv-x="317" 
d="M277 0v-58q-67 0 -112 49t-45 125v75q0 56 -23.5 92.5t-56.5 36.5v57q33 0 56.5 36.5t23.5 92.5v77q0 76 45 125t112 49v-57q-33 0 -56.5 -36t-23.5 -91v-76q0 -52 -23 -91.5t-61 -57.5q38 -18 61 -57t23 -91v-74q0 -55 23.5 -90.5t56.5 -35.5z" />
    <glyph glyph-name="braceright.case" horiz-adv-x="317" 
d="M40 -58v58q33 0 56.5 35.5t23.5 90.5v74q0 52 23 91t61 57q-38 18 -61 57.5t-23 91.5v76q0 55 -23.5 91t-56.5 36v57q67 0 112 -49t45 -125v-77q0 -56 23.5 -92.5t56.5 -36.5v-57q-33 0 -56.5 -36.5t-23.5 -92.5v-75q0 -76 -45 -125t-112 -49z" />
    <glyph glyph-name="guillemotleft.case" horiz-adv-x="470" 
d="M206 179l-171 171l171 171l39 -39l-132 -132l132 -132zM376 179l-171 171l171 171l39 -39l-132 -132l132 -132z" />
    <glyph glyph-name="guillemotright.case" horiz-adv-x="470" 
d="M430 350l-171 -171l-39 39l132 132l-132 132l39 39zM260 350l-171 -171l-39 39l132 132l-132 132l39 39z" />
    <glyph glyph-name="guilsinglleft.case" horiz-adv-x="300" 
d="M206 179l-171 171l171 171l39 -39l-132 -132l132 -132z" />
    <glyph glyph-name="guilsinglright.case" horiz-adv-x="300" 
d="M260 350l-171 -171l-39 39l132 132l-132 132l39 39z" />
    <glyph glyph-name="hyphen.case" horiz-adv-x="340" 
d="M60 320v60h220v-60h-220z" />
    <glyph glyph-name="endash.case" horiz-adv-x="500" 
d="M60 320v60h380v-60h-380z" />
    <glyph glyph-name="emdash.case" horiz-adv-x="700" 
d="M60 320v60h580v-60h-580z" />
    <glyph glyph-name="bar.case" 
d="M72 -50v800h75v-800h-75z" />
    <glyph glyph-name="brokenbar.case" 
d="M72 -50v350h75v-350h-75zM147 750v-350h-75v350h75z" />
    <glyph glyph-name="a.ord" horiz-adv-x="260" 
d="M237 483v-32q-15 -3 -19 -3q-36 0 -49 28q-29 -29 -70 -29q-35 0 -53.5 20.5t-18.5 51.5q0 38 28 58.5t74 20.5l36 -5v30q0 18 -12.5 30t-37.5 12q-35 0 -55 -20l-24 25q34 34 83 34q45 0 69 -23t24 -58v-119q0 -21 25 -21zM113 487q34 0 52 22v51q-12 5 -32 5
q-58 0 -58 -40q0 -38 38 -38z" />
    <glyph glyph-name="b.ord" horiz-adv-x="307" 
d="M143 447q-66 0 -101 36v382h48v-179q27 18 66 18q54 0 88 -35.5t34 -93.5t-35.5 -93t-99.5 -35zM229 575q0 38 -22 62t-58 24q-37 0 -59 -25v-129q20 -17 57 -17q39 0 60.5 23t21.5 62z" />
    <glyph glyph-name="c.ord" horiz-adv-x="271" 
d="M78 576q0 -39 22.5 -62.5t58.5 -23.5q38 0 60 24l29 -30q-35 -37 -92 -37t-92 35.5t-35 93.5q0 57 35 92.5t92 35.5t92 -38l-29 -29q-22 24 -60 24q-36 0 -58.5 -23.5t-22.5 -61.5z" />
    <glyph glyph-name="d.ord" horiz-adv-x="308" 
d="M265 452h-47v19q-30 -24 -72 -24q-52 0 -84.5 35.5t-32.5 93.5q0 57 34.5 92.5t90.5 35.5q35 0 64 -16v177h47v-413zM78 576q0 -39 22.5 -62.5t58.5 -23.5q38 0 59 23v126q-22 22 -59 22q-36 0 -58.5 -23.5t-22.5 -61.5z" />
    <glyph glyph-name="e.ord" horiz-adv-x="289" 
d="M262 562h-183q4 -33 25.5 -52.5t56.5 -19.5q39 0 61 24l29 -30q-37 -37 -94 -37t-92.5 36t-35.5 94q0 57 33 92t87 35q56 0 84.5 -37.5t28.5 -104.5zM149 662q-29 0 -47.5 -17.5t-22.5 -48.5h135q-4 31 -20.5 48.5t-44.5 17.5z" />
    <glyph glyph-name="egrave.ord" horiz-adv-x="289" 
d="M262 562h-183q4 -33 25.5 -52.5t56.5 -19.5q39 0 61 24l29 -30q-37 -37 -94 -37t-92.5 36t-35.5 94q0 57 33 92t87 35q56 0 84.5 -37.5t28.5 -104.5zM149 662q-29 0 -47.5 -17.5t-22.5 -48.5h135q-4 31 -20.5 48.5t-44.5 17.5zM114 827l72 -72l-25 -24l-71 72z" />
    <glyph glyph-name="f.ord" horiz-adv-x="190" 
d="M22 662v38h34v81q0 40 24 64t63 24q16 0 31 -6v-40q-10 5 -22 5q-21 0 -34 -13t-13 -34v-81h69v-38h-69v-210h-49v210h-34z" />
    <glyph glyph-name="g.ord" horiz-adv-x="284" 
d="M16 388q0 47 55 67q-30 14 -30 41t32 42q-40 21 -40 74q0 42 27.5 67t71.5 25q40 0 67 -22q20 22 48 22q4 0 14 -2v-37q-4 1 -11 1q-17 0 -29 -10q10 -20 10 -43q0 -40 -27.5 -65t-72.5 -25t-45 -26q0 -25 54 -25t86.5 -21.5t32.5 -56.5q0 -37 -36.5 -60.5t-91.5 -23.5
q-53 0 -84 21.5t-31 56.5zM65 388q0 -19 17 -30t48 -11q34 0 57 13t23 33q0 19 -19.5 30.5t-50.5 11.5q-34 0 -54.5 -13t-20.5 -34zM80 613q0 -23 14.5 -37.5t38.5 -14.5q23 0 38 14.5t15 37.5t-15 38t-38 15q-24 0 -38.5 -15t-14.5 -38z" />
    <glyph glyph-name="h.ord" horiz-adv-x="297" 
d="M42 865h48v-185q30 24 70 24q42 0 67.5 -28.5t25.5 -74.5v-149h-47v149q0 27 -16 43.5t-42 16.5q-37 0 -58 -23v-186h-48v413z" />
    <glyph glyph-name="i.ord" horiz-adv-x="133" 
d="M42 452v248h48v-248h-48zM36 774q0 13 8.5 21.5t21.5 8.5t22 -8.5t9 -21.5t-9 -22t-22 -9t-21.5 9t-8.5 22z" />
    <glyph glyph-name="j.ord" horiz-adv-x="132" 
d="M35 774q0 13 9 21.5t22 8.5t21.5 -8.5t8.5 -21.5t-8.5 -22t-21.5 -9t-22 9t-9 22zM8 315v30q34 0 34 34v321h48v-322q0 -31 -16.5 -48.5t-45.5 -17.5q-16 0 -20 3z" />
    <glyph glyph-name="k.ord" horiz-adv-x="266" 
d="M90 452h-48v413h48v-273l92 108h57l-101 -116l112 -132h-56l-104 123v-123z" />
    <glyph glyph-name="l.ord" horiz-adv-x="147" 
d="M126 483v-31q-8 -3 -22 -3q-29 0 -45.5 17.5t-16.5 48.5v350h48v-349q0 -33 36 -33z" />
    <glyph glyph-name="m.ord" horiz-adv-x="429" 
d="M339 452v164q0 20 -11.5 32.5t-30.5 12.5q-38 0 -61 -21q2 -16 2 -24v-164h-48v164q0 20 -11.5 32.5t-30.5 12.5q-37 0 -58 -23v-186h-48v248h48v-20q30 24 70 24q41 0 64 -34q32 34 85 34q35 0 56 -24.5t21 -63.5v-164h-47z" />
    <glyph glyph-name="n.ord" horiz-adv-x="296" 
d="M42 700h48v-20q30 24 70 24q42 0 67.5 -28.5t25.5 -74.5v-149h-47v149q0 27 -16 43.5t-42 16.5q-37 0 -58 -23v-186h-48v248z" />
    <glyph glyph-name="o.ord" horiz-adv-x="311" 
d="M28 576q0 57 35 92.5t92 35.5t92.5 -35.5t35.5 -92.5q0 -58 -35.5 -93.5t-92.5 -35.5t-92 35.5t-35 93.5zM77 576q0 -39 21.5 -62.5t56.5 -23.5t57 23.5t22 62.5q0 37 -22 61t-57 24q-34 0 -56 -23.5t-22 -61.5z" />
    <glyph glyph-name="p.ord" horiz-adv-x="308" 
d="M42 700h48v-20q30 24 71 24q53 0 85.5 -35.5t32.5 -92.5q0 -58 -34.5 -93.5t-90.5 -35.5q-38 0 -64 16v-148h-48v385zM229 576q0 38 -22 61.5t-59 23.5t-58 -23v-126q21 -22 58 -22t59 23.5t22 62.5z" />
    <glyph glyph-name="q.ord" horiz-adv-x="307" 
d="M162 704q70 0 102 -37v-352h-47v151q-30 -19 -67 -19q-54 0 -87.5 35.5t-33.5 93.5t35.5 93t97.5 35zM78 576q0 -38 22 -62t58 -24q38 0 59 25v129q-23 17 -57 17q-38 0 -60 -23.5t-22 -61.5z" />
    <glyph glyph-name="r.ord" horiz-adv-x="194" 
d="M155 703q6 0 16 -2v-41q-6 2 -19 2q-41 0 -62 -33v-177h-48v248h48v-29q29 32 65 32z" />
    <glyph glyph-name="s.ord" horiz-adv-x="219" 
d="M187 673l-28 -28q-17 19 -46 19q-17 0 -25.5 -9.5t-8.5 -21.5q0 -9 8 -17t15 -11t26 -11q21 -9 32 -15.5t21.5 -21t10.5 -33.5q0 -32 -22 -54.5t-62 -22.5q-51 0 -83 34l28 28q19 -22 52 -22q20 0 30 10.5t10 23.5q0 12 -10 19.5t-36 18.5q-21 8 -33 15t-23 22t-11 36
q0 30 20 51t57 21q47 0 78 -31z" />
    <glyph glyph-name="t.ord" horiz-adv-x="187" 
d="M20 662v38h31v55h49v-55h63v-38h-63v-131q0 -19 11 -31t30 -12q10 0 22 5v-40q-15 -6 -30 -6q-38 0 -60 23t-22 61v131h-31z" />
    <glyph glyph-name="u.ord" horiz-adv-x="301" 
d="M258 700v-145q0 -48 -30 -78t-78 -30t-78 30t-30 78v145h49v-145q0 -29 17 -47t43 -18q27 0 43.5 18t16.5 47v145h47z" />
    <glyph glyph-name="uacute.ord" horiz-adv-x="301" 
d="M258 700v-145q0 -48 -30 -78t-78 -30t-78 30t-30 78v145h49v-145q0 -29 17 -47t43 -18q27 0 43.5 18t16.5 47v145h47zM113 755l71 72l25 -24l-71 -72z" />
    <glyph glyph-name="v.ord" horiz-adv-x="281" 
d="M270 700l-108 -248h-43l-108 248h53l76 -189l77 189h53z" />
    <glyph glyph-name="w.ord" horiz-adv-x="420" 
d="M408 700l-91 -248h-50l-57 181l-58 -181h-49l-92 248h55l61 -191l58 191h48l59 -191l61 191h55z" />
    <glyph glyph-name="x.ord" horiz-adv-x="276" 
d="M207 452l-69 96l-69 -96h-55l93 126l-89 122h56l64 -92l64 92h56l-89 -122l93 -126h-55z" />
    <glyph glyph-name="y.ord" horiz-adv-x="281" 
d="M270 700l-169 -385h-53l71 137l-108 248h53l76 -191l77 191h53z" />
    <glyph glyph-name="z.ord" horiz-adv-x="265" 
d="M32 662v38h204v-17l-137 -193h137v-38h-207v16l137 194h-134z" />
    <glyph glyph-name="minus.sup" horiz-adv-x="225" 
d="M32 477v35h161v-35h-161z" />
    <glyph glyph-name="minus.sub" horiz-adv-x="225" 
d="M32 77v35h161v-35h-161z" />
    <glyph glyph-name="plus.sup" horiz-adv-x="225" 
d="M32 477v35h62v63h36v-63h63v-35h-63v-63h-36v63h-62z" />
    <glyph glyph-name="plusminus.sup" horiz-adv-x="225" 
d="M32 483v36h62v62h36v-62h63v-36h-63v-63h-36v63h-62zM32 369v35h161v-35h-161z" />
    <glyph glyph-name="plus.sub" horiz-adv-x="225" 
d="M32 77v35h62v63h36v-63h63v-35h-63v-63h-36v63h-62z" />
    <glyph glyph-name="plusminus.sub" horiz-adv-x="225" 
d="M32 83v36h62v62h36v-62h63v-36h-63v-63h-36v63h-62zM32 -31v35h161v-35h-161z" />
    <glyph glyph-name="afii10021.alt.smcp" horiz-adv-x="600" 
d="M502 0h-404v-122h-63v178h38l195 448h64l195 -448h38v-178h-63v122zM300 418l-149 -362h298z" />
    <glyph glyph-name="afii10029.alt.smcp" horiz-adv-x="564" 
d="M29 0l221 504h63l221 -504h-79l-173 415l-173 -415h-80z" />
    </font>
</defs>
</svg>
