<?xml version="1.0" encoding="UTF-8"?>
<svg width="86px" height="64px" viewBox="0 0 86 64" version="1.1" xmlns="http://www.w3.org/2000/svg" xmlns:xlink="http://www.w3.org/1999/xlink">
    <!-- Generator: sketchtool 54.1 (76490) - https://sketchapp.com -->
    <title>90EA9C81-76AA-40B7-B3C9-E2C7080A1CF9</title>
    <desc>Created with sketchtool.</desc>
    <g id="Help" stroke="none" stroke-width="1" fill="none" fill-rule="evenodd" opacity="0.300000012">
        <g id="Gov_Design_Help_Center_Donbass_People_Index_Desktop_1440px" transform="translate(-401.000000, -598.000000)" fill="#F4F7FB">
            <g id="Slide" transform="translate(0.000000, 54.000000)">
                <g id="Leader-words" transform="translate(132.000000, 468.000000)">
                    <path d="M322.072304,98.1482843 C323.976044,97.2660631 325.7985,96.6160152 327.539726,96.1981209 C329.280952,95.7802267 330.91768,95.5712827 332.449959,95.5712827 C338.579075,95.5712827 343.744634,97.6839386 347.946793,101.909314 C352.148952,106.134689 354.25,111.288641 354.25,117.371324 C354.25,120.296583 353.704424,123.082503 352.613256,125.729167 C351.522087,128.37583 349.931791,130.720646 347.84232,132.763685 C345.799282,134.853156 343.442858,136.443452 340.772978,137.53462 C338.103098,138.625788 335.328786,139.171364 332.449959,139.171364 C327.713824,139.171364 323.685849,137.952524 320.365911,135.514808 C317.045973,133.077092 314.225229,129.25806 311.903595,124.057598 C309.442662,129.304492 306.540662,133.135132 303.197508,135.549632 C299.854354,137.964132 295.81477,139.171364 291.078636,139.171364 C284.578058,139.171364 279.273203,136.896196 275.163909,132.345792 C271.054616,127.795388 269,121.852093 269,114.515727 C269,107.968717 270.404568,101.897734 273.213746,96.302594 C276.022924,90.7074543 279.981252,86.0758626 285.088848,82.4076797 C288.014108,80.3646412 291.345604,78.7859533 295.083435,77.6715686 C298.821267,76.557184 302.663515,76 306.610294,76 L309.047998,76 L311.903595,79.2734886 C303.452844,80.0164117 296.708597,81.9085156 291.67065,84.949857 C286.632702,87.9911985 282.976182,92.3906303 280.70098,98.1482843 C282.697586,97.2660631 284.554866,96.6160152 286.272876,96.1981209 C287.990885,95.7802267 289.592789,95.5712827 291.078636,95.5712827 C295.257578,95.5712827 298.937314,96.5811786 302.117953,98.6010008 C305.298593,100.620823 308.235417,103.789807 310.928513,108.108047 C313.760907,97.5213931 318.299635,89.5234816 324.544833,84.1140727 C330.79003,78.7046639 338.602213,76 347.981618,76 L350.419322,76 L353.274918,79.2734886 C344.824168,80.0164117 338.068312,81.9201236 333.007149,84.9846814 C327.945985,88.0492392 324.301073,92.4370629 322.072304,98.1482843 Z" id="â-copy"></path>
                </g>
            </g>
        </g>
    </g>
</svg>